<svg xmlns="http://www.w3.org/2000/svg" height="180" width="180"> 	
    <line x1="18" y1="18" x2="162" y2="18" stroke="#000000" fill="none"></line>
 	<line x1="18" y1="54" x2="162" y2="54" stroke="#000000" fill="none"></line>
     <line x1="18" y1="90" x2="162" y2="90" stroke="#000000" fill="none"></line>
     <line x1="18" y1="126" x2="162" y2="126" stroke="#000000" fill="none"></line>
     <line x1="18" y1="162" x2="162" y2="162" stroke="#000000" fill="none"></line>
     <line x1="18" y1="18" x2="17.5" y2="162" stroke="#000000" fill="none"></line>
     <line x1="54" y1="18" x2="53.5" y2="162" stroke="#000000" fill="none"></line>
     <line x1="90" y1="18" x2="89.5" y2="162" stroke="#000000" fill="none"></line> 	<line x1="126" y1="18" x2="125.5" y2="162" stroke="#000000" fill="none"></line> 	<line x1="162" y1="18" x2="161.5" y2="162" stroke="#000000" fill="none"></line><circle stroke="#000000" cx="17.5" cy="18.5" r="4.5"></circle><circle stroke="#000" fill="#CCC" cx="18" cy="18" r="4.5"></circle><circle stroke="#000" fill="#CCC" cx="18" cy="54" r="4.5"></circle><circle stroke="#000" fill="#CCC" cx="18" cy="90" r="4.5"></circle><circle stroke="#000" fill="#CCC" cx="18" cy="126" r="4.5"></circle><circle stroke="#000" fill="#CCC" cx="18" cy="162" r="4.5"></circle><circle stroke="#000" fill="#CCC" cx="54" cy="18" r="4.5"></circle><circle stroke="#000" fill="#CCC" cx="54" cy="54" r="4.5"></circle><circle stroke="#000" fill="#CCC" cx="54" cy="90" r="4.5"></circle><circle stroke="#000" fill="#CCC" cx="54" cy="126" r="4.5"></circle><circle stroke="#000" fill="#CCC" cx="54" cy="162" r="4.5"></circle><circle stroke="#000" fill="#CCC" cx="90" cy="18" r="4.5"></circle><circle stroke="#000" fill="#CCC" cx="90" cy="54" r="4.5"></circle><circle stroke="#000" fill="#CCC" cx="90" cy="90" r="4.5"></circle><circle stroke="#000" fill="#CCC" cx="90" cy="126" r="4.5"></circle><circle stroke="#000" fill="#CCC" cx="90" cy="162" r="4.5"></circle><circle stroke="#000" fill="#CCC" cx="126" cy="18" r="4.5"></circle><circle stroke="#000" fill="#CCC" cx="126" cy="54" r="4.5"></circle><circle stroke="#000" fill="#CCC" cx="126" cy="90" r="4.5"></circle><circle stroke="#000" fill="#CCC" cx="126" cy="126" r="4.5"></circle><circle stroke="#000" fill="#CCC" cx="126" cy="162" r="4.5"></circle><circle stroke="#000" fill="#CCC" cx="162" cy="18" r="4.5"></circle><circle stroke="#000" fill="#CCC" cx="162" cy="54" r="4.5"></circle><circle stroke="#000" fill="#CCC" cx="162" cy="90" r="4.5"></circle><circle stroke="#000" fill="#CCC" cx="162" cy="126" r="4.5"></circle><circle stroke="#000" fill="#CCC" cx="162" cy="162" r="4.5"></circle>
</svg>