<?xml version="1.0" encoding="UTF-8"?>
<svg xmlns="http://www.w3.org/2000/svg" xmlns:xlink="http://www.w3.org/1999/xlink" width="163pt" height="91pt" viewBox="0 0 163 91">
<path fill="none" stroke-width="1" stroke-linecap="butt" stroke-linejoin="miter" stroke="rgb(13.729858%, 12.159729%, 12.548828%)" stroke-opacity="1" stroke-miterlimit="4" d="M 0.5 0.5 L 162.5 0.5 L 162.5 90.5 L 0.5 90.5 Z M 0.5 0.5 " transform="matrix(1, 0, 0, -1, 0, 91)"/>
<path fill="none" stroke-width="4" stroke-linecap="butt" stroke-linejoin="miter" stroke="rgb(56.864929%, 56.079102%, 56.274414%)" stroke-opacity="1" stroke-miterlimit="4" d="M 0 0 C 0 0 0.539062 -0.601562 0 0 C -0.539062 0.601562 -2.28125 2.398438 -3.238281 3.601562 C -4.199219 4.800781 -5.039062 6 -5.761719 7.199219 C -6.480469 8.398438 -7.078125 9.601562 -7.558594 10.800781 C -8.039062 12 -8.398438 13.199219 -8.640625 14.398438 C -8.878906 15.601562 -9 16.800781 -9 18 C -9 19.199219 -8.878906 20.398438 -8.640625 21.601562 C -8.398438 22.800781 -8.039062 24 -7.558594 25.199219 C -7.078125 26.398438 -6.480469 27.601562 -5.761719 28.800781 C -5.039062 30 -4.199219 31.199219 -3.238281 32.398438 C -2.28125 33.601562 -1.140625 34.859375 0 36 C 1.140625 37.140625 2.398438 38.28125 3.601562 39.238281 C 4.800781 40.199219 6 41.039062 7.199219 41.761719 C 8.398438 42.480469 9.601562 43.082031 10.800781 43.558594 C 12 44.039062 13.199219 44.398438 14.398438 44.640625 C 15.601562 44.878906 16.800781 45 18 45 C 19.199219 45 20.398438 44.878906 21.601562 44.640625 C 22.800781 44.398438 24 44.039062 25.199219 43.558594 C 26.398438 43.082031 27.601562 42.480469 28.800781 41.761719 C 30 41.039062 31.199219 40.199219 32.398438 39.238281 C 33.601562 38.28125 34.800781 37.078125 36 36 C 37.199219 34.921875 38.398438 33.71875 39.601562 32.761719 C 40.800781 31.800781 42 30.960938 43.199219 30.238281 C 44.398438 29.519531 45.601562 28.917969 46.800781 28.441406 C 48 27.960938 49.199219 27.601562 50.398438 27.359375 C 51.601562 27.121094 52.800781 27 54 27 C 55.199219 27 56.398438 27.121094 57.601562 27.359375 C 58.800781 27.601562 60 27.960938 61.199219 28.441406 C 62.398438 28.917969 63.601562 29.519531 64.800781 30.238281 C 66 30.960938 67.199219 31.800781 68.398438 32.761719 C 69.601562 33.71875 70.800781 34.921875 72 36 C 73.199219 37.078125 74.398438 38.28125 75.601562 39.238281 C 76.800781 40.199219 78 41.039062 79.199219 41.761719 C 80.398438 42.480469 81.601562 43.082031 82.800781 43.558594 C 84 44.039062 85.199219 44.398438 86.398438 44.640625 C 87.601562 44.878906 88.800781 45 90 45 C 91.199219 45 92.398438 44.878906 93.601562 44.640625 C 94.800781 44.398438 96 44.039062 97.199219 43.558594 C 98.398438 43.082031 99.601562 42.480469 100.800781 41.761719 C 102 41.039062 103.199219 40.199219 104.398438 39.238281 C 105.601562 38.28125 106.859375 37.140625 108 36 C 109.140625 34.859375 110.28125 33.601562 111.238281 32.398438 C 112.199219 31.199219 113.039062 30 113.761719 28.800781 C 114.480469 27.601562 115.082031 26.398438 115.558594 25.199219 C 116.039062 24 116.398438 22.800781 116.640625 21.601562 C 116.878906 20.398438 117 19.199219 117 18 C 117 16.800781 116.878906 15.601562 116.640625 14.398438 C 116.398438 13.199219 116.039062 12 115.558594 10.800781 C 115.082031 9.601562 114.480469 8.398438 113.761719 7.199219 C 113.039062 6 112.199219 4.800781 111.238281 3.601562 C 110.28125 2.398438 108.539062 0.601562 108 0 " transform="matrix(1, 0, 0, -1, 27.5, 63.5)"/>
<path fill="none" stroke-width="1" stroke-linecap="butt" stroke-linejoin="miter" stroke="rgb(13.729858%, 12.159729%, 12.548828%)" stroke-opacity="1" stroke-miterlimit="4" d="M 0 0 L -6 -6 " transform="matrix(1, 0, 0, -1, 48.5, 78.5)"/>
<path fill="none" stroke-width="1" stroke-linecap="butt" stroke-linejoin="miter" stroke="rgb(13.729858%, 12.159729%, 12.548828%)" stroke-opacity="1" stroke-miterlimit="4" d="M 0 0 L 6 -6 " transform="matrix(1, 0, 0, -1, 42.5, 78.5)"/>
<path fill="none" stroke-width="1" stroke-linecap="butt" stroke-linejoin="miter" stroke="rgb(13.729858%, 12.159729%, 12.548828%)" stroke-opacity="1" stroke-miterlimit="4" d="M 0 0 L -6 -6 " transform="matrix(1, 0, 0, -1, 12.5, 42.5)"/>
<path fill="none" stroke-width="1" stroke-linecap="butt" stroke-linejoin="miter" stroke="rgb(13.729858%, 12.159729%, 12.548828%)" stroke-opacity="1" stroke-miterlimit="4" d="M 0 0 L 6 -6 " transform="matrix(1, 0, 0, -1, 6.5, 42.5)"/>
<path fill="none" stroke-width="1" stroke-linecap="butt" stroke-linejoin="miter" stroke="rgb(13.729858%, 12.159729%, 12.548828%)" stroke-opacity="1" stroke-miterlimit="4" d="M 0 0 L -6 -6 " transform="matrix(1, 0, 0, -1, 48.5, 6.5)"/>
<path fill="none" stroke-width="1" stroke-linecap="butt" stroke-linejoin="miter" stroke="rgb(13.729858%, 12.159729%, 12.548828%)" stroke-opacity="1" stroke-miterlimit="4" d="M 0 0 L 6 -6 " transform="matrix(1, 0, 0, -1, 42.5, 6.5)"/>
<path fill="none" stroke-width="1" stroke-linecap="butt" stroke-linejoin="miter" stroke="rgb(13.729858%, 12.159729%, 12.548828%)" stroke-opacity="1" stroke-miterlimit="4" d="M 0 0 L -6 -6 " transform="matrix(1, 0, 0, -1, 84.5, 42.5)"/>
<path fill="none" stroke-width="1" stroke-linecap="butt" stroke-linejoin="miter" stroke="rgb(13.729858%, 12.159729%, 12.548828%)" stroke-opacity="1" stroke-miterlimit="4" d="M 0 0 L 6 -6 " transform="matrix(1, 0, 0, -1, 78.5, 42.5)"/>
<path fill="none" stroke-width="1" stroke-linecap="butt" stroke-linejoin="miter" stroke="rgb(13.729858%, 12.159729%, 12.548828%)" stroke-opacity="1" stroke-miterlimit="4" d="M 0 0 L -6 -6 " transform="matrix(1, 0, 0, -1, 120.5, 6.5)"/>
<path fill="none" stroke-width="1" stroke-linecap="butt" stroke-linejoin="miter" stroke="rgb(13.729858%, 12.159729%, 12.548828%)" stroke-opacity="1" stroke-miterlimit="4" d="M 0 0 L 6 -6 " transform="matrix(1, 0, 0, -1, 114.5, 6.5)"/>
<path fill="none" stroke-width="1" stroke-linecap="butt" stroke-linejoin="miter" stroke="rgb(13.729858%, 12.159729%, 12.548828%)" stroke-opacity="1" stroke-miterlimit="4" d="M 0 0 L -6 -6 " transform="matrix(1, 0, 0, -1, 156.5, 42.5)"/>
<path fill="none" stroke-width="1" stroke-linecap="butt" stroke-linejoin="miter" stroke="rgb(13.729858%, 12.159729%, 12.548828%)" stroke-opacity="1" stroke-miterlimit="4" d="M 0 0 L 6 -6 " transform="matrix(1, 0, 0, -1, 150.5, 42.5)"/>
<path fill="none" stroke-width="1" stroke-linecap="butt" stroke-linejoin="miter" stroke="rgb(13.729858%, 12.159729%, 12.548828%)" stroke-opacity="1" stroke-miterlimit="4" d="M 0 0 L -6 -6 " transform="matrix(1, 0, 0, -1, 120.5, 78.5)"/>
<path fill="none" stroke-width="1" stroke-linecap="butt" stroke-linejoin="miter" stroke="rgb(13.729858%, 12.159729%, 12.548828%)" stroke-opacity="1" stroke-miterlimit="4" d="M 0 0 L 6 -6 " transform="matrix(1, 0, 0, -1, 114.5, 78.5)"/>
</svg>
