<?xml version="1.0" encoding="UTF-8"?>
<svg xmlns="http://www.w3.org/2000/svg" xmlns:xlink="http://www.w3.org/1999/xlink" width="163pt" height="91pt" viewBox="0 0 163 91">
<path fill="none" stroke-width="1" stroke-linecap="butt" stroke-linejoin="miter" stroke="rgb(13.729858%, 12.159729%, 12.548828%)" stroke-opacity="1" stroke-miterlimit="4" d="M 0.5 0.5 L 162.5 0.5 L 162.5 90.5 L 0.5 90.5 Z M 0.5 0.5 " transform="matrix(1, 0, 0, -1, 0, 91)"/>
<path fill="none" stroke-width="4" stroke-linecap="butt" stroke-linejoin="miter" stroke="rgb(56.864929%, 56.079102%, 56.274414%)" stroke-opacity="1" stroke-miterlimit="4" d="M 0 0 C 0 0 0.511719 -0.628906 0 0 C -0.511719 0.628906 -2.21875 2.460938 -3.058594 3.78125 C -3.898438 5.101562 -4.558594 6.480469 -5.039062 7.921875 C -5.519531 9.359375 -5.820312 10.859375 -5.941406 12.421875 C -6.058594 13.980469 -6 15.601562 -5.761719 17.28125 C -5.519531 18.960938 -5.101562 20.699219 -4.5 22.5 C -3.898438 24.300781 -3.121094 26.160156 -2.160156 28.078125 C -1.199219 30 -0.0585938 31.980469 1.261719 34.019531 C 2.578125 36.058594 4.078125 38.160156 5.761719 40.320312 C 7.441406 42.480469 9.300781 44.699219 11.339844 46.980469 C 13.378906 49.257812 16.292969 53.402344 18 54 C 19.703125 54.59375 20.390625 51.648438 21.570312 50.550781 C 22.75 49.449219 23.921875 48.398438 25.078125 47.398438 C 26.238281 46.398438 27.390625 45.449219 28.53125 44.550781 C 29.671875 43.648438 30.800781 42.800781 31.921875 42 C 33.039062 41.199219 34.148438 40.449219 35.25 39.75 C 36.351562 39.050781 37.441406 38.398438 38.519531 37.800781 C 39.601562 37.199219 40.671875 36.648438 41.730469 36.148438 C 42.789062 35.648438 43.839844 35.199219 44.878906 34.800781 C 45.921875 34.398438 46.949219 34.050781 47.96875 33.75 C 48.988281 33.449219 50 33.199219 51 33 C 52 32.800781 52.988281 32.648438 53.96875 32.550781 C 54.949219 32.449219 55.921875 32.398438 56.878906 32.398438 C 57.839844 32.398438 58.789062 32.449219 59.730469 32.550781 C 60.671875 32.648438 61.601562 32.800781 62.519531 33 C 63.4375 33.199219 64.351562 33.449219 65.25 33.75 C 66.148438 34.050781 67.039062 34.398438 67.921875 34.800781 C 68.800781 35.199219 69.671875 35.648438 70.53125 36.148438 C 71.390625 36.648438 72.238281 37.199219 73.078125 37.800781 C 73.921875 38.398438 74.75 39.050781 75.570312 39.75 C 76.390625 40.449219 77.183594 41.273438 78 42 C 78.816406 42.726562 79.621094 43.5 80.460938 44.101562 C 81.300781 44.699219 82.160156 45.199219 83.039062 45.601562 C 83.921875 46 84.820312 46.300781 85.738281 46.5 C 86.660156 46.699219 87.601562 46.800781 88.558594 46.800781 C 89.519531 46.800781 90.5 46.699219 91.5 46.5 C 92.5 46.300781 93.519531 46 94.558594 45.601562 C 95.601562 45.199219 96.660156 44.699219 97.738281 44.101562 C 98.820312 43.5 99.921875 42.800781 101.039062 42 C 102.160156 41.199219 103.300781 40.300781 104.460938 39.300781 C 105.621094 38.300781 106.898438 37.179688 108 36 C 109.101562 34.820312 110.222656 33.539062 111.058594 32.21875 C 111.898438 30.898438 112.558594 29.519531 113.039062 28.078125 C 113.519531 26.640625 113.820312 25.140625 113.941406 23.578125 C 114.058594 22.019531 114 20.398438 113.761719 18.71875 C 113.519531 17.039062 113.101562 15.300781 112.5 13.5 C 111.898438 11.699219 111.121094 9.839844 110.160156 7.921875 C 109.199219 6 108.058594 4.019531 106.738281 1.980469 C 105.421875 -0.0585938 103.921875 -2.160156 102.238281 -4.320312 C 100.558594 -6.480469 98.699219 -8.699219 96.660156 -10.980469 C 94.621094 -13.261719 91.109375 -16.828125 90 -18 " transform="matrix(1, 0, 0, -1, 27.5, 63.5)"/>
<path fill="none" stroke-width="1" stroke-linecap="butt" stroke-linejoin="miter" stroke="rgb(13.729858%, 12.159729%, 12.548828%)" stroke-opacity="1" stroke-miterlimit="4" d="M 0 0 L -6 -6 " transform="matrix(1, 0, 0, -1, 48.5, 78.5)"/>
<path fill="none" stroke-width="1" stroke-linecap="butt" stroke-linejoin="miter" stroke="rgb(13.729858%, 12.159729%, 12.548828%)" stroke-opacity="1" stroke-miterlimit="4" d="M 0 0 L 6 -6 " transform="matrix(1, 0, 0, -1, 42.5, 78.5)"/>
<path fill="none" stroke-width="1" stroke-linecap="butt" stroke-linejoin="miter" stroke="rgb(13.729858%, 12.159729%, 12.548828%)" stroke-opacity="1" stroke-miterlimit="4" d="M 0 0 L -6 -6 " transform="matrix(1, 0, 0, -1, 12.5, 42.5)"/>
<path fill="none" stroke-width="1" stroke-linecap="butt" stroke-linejoin="miter" stroke="rgb(13.729858%, 12.159729%, 12.548828%)" stroke-opacity="1" stroke-miterlimit="4" d="M 0 0 L 6 -6 " transform="matrix(1, 0, 0, -1, 6.5, 42.5)"/>
<path fill="none" stroke-width="1" stroke-linecap="butt" stroke-linejoin="miter" stroke="rgb(13.729858%, 12.159729%, 12.548828%)" stroke-opacity="1" stroke-miterlimit="4" d="M 0 0 L -6 -6 " transform="matrix(1, 0, 0, -1, 48.5, 6.5)"/>
<path fill="none" stroke-width="1" stroke-linecap="butt" stroke-linejoin="miter" stroke="rgb(13.729858%, 12.159729%, 12.548828%)" stroke-opacity="1" stroke-miterlimit="4" d="M 0 0 L 6 -6 " transform="matrix(1, 0, 0, -1, 42.5, 6.5)"/>
<path fill="none" stroke-width="1" stroke-linecap="butt" stroke-linejoin="miter" stroke="rgb(13.729858%, 12.159729%, 12.548828%)" stroke-opacity="1" stroke-miterlimit="4" d="M 0 0 L -6 -6 " transform="matrix(1, 0, 0, -1, 84.5, 42.5)"/>
<path fill="none" stroke-width="1" stroke-linecap="butt" stroke-linejoin="miter" stroke="rgb(13.729858%, 12.159729%, 12.548828%)" stroke-opacity="1" stroke-miterlimit="4" d="M 0 0 L 6 -6 " transform="matrix(1, 0, 0, -1, 78.5, 42.5)"/>
<path fill="none" stroke-width="1" stroke-linecap="butt" stroke-linejoin="miter" stroke="rgb(13.729858%, 12.159729%, 12.548828%)" stroke-opacity="1" stroke-miterlimit="4" d="M 0 0 L -6 -6 " transform="matrix(1, 0, 0, -1, 120.5, 6.5)"/>
<path fill="none" stroke-width="1" stroke-linecap="butt" stroke-linejoin="miter" stroke="rgb(13.729858%, 12.159729%, 12.548828%)" stroke-opacity="1" stroke-miterlimit="4" d="M 0 0 L 6 -6 " transform="matrix(1, 0, 0, -1, 114.5, 6.5)"/>
<path fill="none" stroke-width="1" stroke-linecap="butt" stroke-linejoin="miter" stroke="rgb(13.729858%, 12.159729%, 12.548828%)" stroke-opacity="1" stroke-miterlimit="4" d="M 0 0 L -6 -6 " transform="matrix(1, 0, 0, -1, 156.5, 42.5)"/>
<path fill="none" stroke-width="1" stroke-linecap="butt" stroke-linejoin="miter" stroke="rgb(13.729858%, 12.159729%, 12.548828%)" stroke-opacity="1" stroke-miterlimit="4" d="M 0 0 L 6 -6 " transform="matrix(1, 0, 0, -1, 150.5, 42.5)"/>
<path fill="none" stroke-width="1" stroke-linecap="butt" stroke-linejoin="miter" stroke="rgb(13.729858%, 12.159729%, 12.548828%)" stroke-opacity="1" stroke-miterlimit="4" d="M 0 0 L -6 -6 " transform="matrix(1, 0, 0, -1, 120.5, 78.5)"/>
<path fill="none" stroke-width="1" stroke-linecap="butt" stroke-linejoin="miter" stroke="rgb(13.729858%, 12.159729%, 12.548828%)" stroke-opacity="1" stroke-miterlimit="4" d="M 0 0 L 6 -6 " transform="matrix(1, 0, 0, -1, 114.5, 78.5)"/>
</svg>
