<?xml version="1.0" encoding="UTF-8"?>
<svg xmlns="http://www.w3.org/2000/svg" xmlns:xlink="http://www.w3.org/1999/xlink" width="334pt" height="163pt" viewBox="0 0 334 163">
<path fill-rule="nonzero" fill="rgb(100%, 100%, 100%)" fill-opacity="1" d="M 18.5 81.5 C 18.5 86.472656 14.472656 90.5 9.5 90.5 C 4.527344 90.5 0.5 86.472656 0.5 81.5 C 0.5 76.527344 4.527344 72.5 9.5 72.5 C 14.472656 72.5 18.5 76.527344 18.5 81.5 "/>
<path fill="none" stroke-width="1" stroke-linecap="butt" stroke-linejoin="miter" stroke="rgb(0%, 0%, 0%)" stroke-opacity="1" stroke-miterlimit="4" d="M 0 0 C 0 -4.972656 -4.027344 -9 -9 -9 C -13.972656 -9 -18 -4.972656 -18 0 C -18 4.972656 -13.972656 9 -9 9 C -4.027344 9 0 4.972656 0 0 Z M 0 0 " transform="matrix(1, 0, 0, -1, 18.5, 81.5)"/>
<path fill-rule="nonzero" fill="rgb(100%, 100%, 100%)" fill-opacity="1" d="M 36.5 9.5 C 36.5 14.472656 32.472656 18.5 27.5 18.5 C 22.527344 18.5 18.5 14.472656 18.5 9.5 C 18.5 4.527344 22.527344 0.5 27.5 0.5 C 32.472656 0.5 36.5 4.527344 36.5 9.5 "/>
<path fill="none" stroke-width="1" stroke-linecap="butt" stroke-linejoin="miter" stroke="rgb(0%, 0%, 0%)" stroke-opacity="1" stroke-miterlimit="4" d="M 0 0 C 0 -4.972656 -4.027344 -9 -9 -9 C -13.972656 -9 -18 -4.972656 -18 0 C -18 4.972656 -13.972656 9 -9 9 C -4.027344 9 0 4.972656 0 0 Z M 0 0 " transform="matrix(1, 0, 0, -1, 36.5, 9.5)"/>
<path fill-rule="nonzero" fill="rgb(100%, 100%, 100%)" fill-opacity="1" d="M 108.5 9.5 C 108.5 14.472656 104.472656 18.5 99.5 18.5 C 94.527344 18.5 90.5 14.472656 90.5 9.5 C 90.5 4.527344 94.527344 0.5 99.5 0.5 C 104.472656 0.5 108.5 4.527344 108.5 9.5 "/>
<path fill="none" stroke-width="1" stroke-linecap="butt" stroke-linejoin="miter" stroke="rgb(0%, 0%, 0%)" stroke-opacity="1" stroke-miterlimit="4" d="M 0 0 C 0 -4.972656 -4.027344 -9 -9 -9 C -13.972656 -9 -18 -4.972656 -18 0 C -18 4.972656 -13.972656 9 -9 9 C -4.027344 9 0 4.972656 0 0 Z M 0 0 " transform="matrix(1, 0, 0, -1, 108.5, 9.5)"/>
<path fill-rule="nonzero" fill="rgb(100%, 100%, 100%)" fill-opacity="1" d="M 180.5 81.5 C 180.5 86.472656 176.472656 90.5 171.5 90.5 C 166.527344 90.5 162.5 86.472656 162.5 81.5 C 162.5 76.527344 166.527344 72.5 171.5 72.5 C 176.472656 72.5 180.5 76.527344 180.5 81.5 "/>
<path fill="none" stroke-width="1" stroke-linecap="butt" stroke-linejoin="miter" stroke="rgb(0%, 0%, 0%)" stroke-opacity="1" stroke-miterlimit="4" d="M 0 0 C 0 -4.972656 -4.027344 -9 -9 -9 C -13.972656 -9 -18 -4.972656 -18 0 C -18 4.972656 -13.972656 9 -9 9 C -4.027344 9 0 4.972656 0 0 Z M 0 0 " transform="matrix(1, 0, 0, -1, 180.5, 81.5)"/>
<path fill-rule="nonzero" fill="rgb(100%, 100%, 100%)" fill-opacity="1" d="M 252.5 153.5 C 252.5 158.472656 248.472656 162.5 243.5 162.5 C 238.527344 162.5 234.5 158.472656 234.5 153.5 C 234.5 148.527344 238.527344 144.5 243.5 144.5 C 248.472656 144.5 252.5 148.527344 252.5 153.5 "/>
<path fill="none" stroke-width="1" stroke-linecap="butt" stroke-linejoin="miter" stroke="rgb(0%, 0%, 0%)" stroke-opacity="1" stroke-miterlimit="4" d="M 0 0 C 0 -4.972656 -4.027344 -9 -9 -9 C -13.972656 -9 -18 -4.972656 -18 0 C -18 4.972656 -13.972656 9 -9 9 C -4.027344 9 0 4.972656 0 0 Z M 0 0 " transform="matrix(1, 0, 0, -1, 252.5, 153.5)"/>
<path fill-rule="nonzero" fill="rgb(100%, 100%, 100%)" fill-opacity="1" d="M 324.5 153.5 C 324.5 158.472656 320.472656 162.5 315.5 162.5 C 310.527344 162.5 306.5 158.472656 306.5 153.5 C 306.5 148.527344 310.527344 144.5 315.5 144.5 C 320.472656 144.5 324.5 148.527344 324.5 153.5 "/>
<path fill="none" stroke-width="1" stroke-linecap="butt" stroke-linejoin="miter" stroke="rgb(0%, 0%, 0%)" stroke-opacity="1" stroke-miterlimit="4" d="M 0 0 C 0 -4.972656 -4.027344 -9 -9 -9 C -13.972656 -9 -18 -4.972656 -18 0 C -18 4.972656 -13.972656 9 -9 9 C -4.027344 9 0 4.972656 0 0 Z M 0 0 " transform="matrix(1, 0, 0, -1, 324.5, 153.5)"/>
<path fill-rule="nonzero" fill="rgb(100%, 100%, 100%)" fill-opacity="1" d="M 333.5 81.5 C 333.5 86.472656 329.472656 90.5 324.5 90.5 C 319.527344 90.5 315.5 86.472656 315.5 81.5 C 315.5 76.527344 319.527344 72.5 324.5 72.5 C 329.472656 72.5 333.5 76.527344 333.5 81.5 "/>
<path fill="none" stroke-width="1" stroke-linecap="butt" stroke-linejoin="miter" stroke="rgb(0%, 0%, 0%)" stroke-opacity="1" stroke-miterlimit="4" d="M 0 0 C 0 -4.972656 -4.027344 -9 -9 -9 C -13.972656 -9 -18 -4.972656 -18 0 C -18 4.972656 -13.972656 9 -9 9 C -4.027344 9 0 4.972656 0 0 Z M 0 0 " transform="matrix(1, 0, 0, -1, 333.5, 81.5)"/>
<path fill="none" stroke-width="11" stroke-linecap="butt" stroke-linejoin="miter" stroke="rgb(71.998596%, 71.998596%, 71.998596%)" stroke-opacity="1" stroke-miterlimit="4" d="M 0 0 C 18 72 90 72 162 0 " transform="matrix(1, 0, 0, -1, 9.5, 81.5)"/>
<path fill="none" stroke-width="12" stroke-linecap="butt" stroke-linejoin="miter" stroke="rgb(50%, 50%, 50%)" stroke-opacity="1" stroke-miterlimit="4" d="M 0 0 C 72 -72 144 -72.335938 153 0 " transform="matrix(1, 0, 0, -1, 171.5, 81.5)"/>
<path fill-rule="nonzero" fill="rgb(100%, 100%, 100%)" fill-opacity="1" d="M 152.777344 62.777344 L 153.777344 58.683594 L 153.921875 58.710938 L 156.425781 64.515625 C 157.554688 66.28125 158.683594 68.046875 159.8125 69.8125 C 158.046875 68.683594 156.28125 67.554688 154.515625 66.425781 L 148.710938 63.921875 L 148.667969 63.792969 Z M 152.777344 62.777344 "/>
<path fill="none" stroke-width="3" stroke-linecap="butt" stroke-linejoin="miter" stroke="rgb(0%, 0%, 0%)" stroke-opacity="1" stroke-miterlimit="4" d="M 0 0 L 54 -54 " transform="matrix(1, 0, 0, -1, 99.5, 9.5)"/>
<path fill-rule="nonzero" fill="rgb(0%, 0%, 0%)" fill-opacity="1" d="M 151.335938 61.335938 L 154.332031 49.046875 L 154.765625 49.132812 L 162.277344 66.546875 C 165.664062 71.84375 169.054688 77.140625 172.441406 82.4375 C 167.140625 79.054688 161.84375 75.667969 156.542969 72.28125 L 139.132812 64.765625 L 139.003906 64.375 Z M 151.335938 61.335938 "/>
<path fill-rule="nonzero" fill="rgb(100%, 100%, 100%)" fill-opacity="1" d="M 224.777344 134.777344 L 225.777344 130.683594 L 225.921875 130.710938 L 228.425781 136.515625 C 229.554688 138.28125 230.683594 140.046875 231.8125 141.8125 C 230.046875 140.683594 228.28125 139.554688 226.515625 138.425781 L 220.710938 135.921875 L 220.667969 135.792969 Z M 224.777344 134.777344 "/>
<path fill="none" stroke-width="3" stroke-linecap="butt" stroke-linejoin="miter" stroke="rgb(0%, 0%, 0%)" stroke-opacity="1" stroke-miterlimit="4" d="M 0 0 L 54 -54 " transform="matrix(1, 0, 0, -1, 171.5, 81.5)"/>
<path fill-rule="nonzero" fill="rgb(0%, 0%, 0%)" fill-opacity="1" d="M 223.335938 133.335938 L 226.332031 121.046875 L 226.765625 121.132812 L 234.277344 138.546875 C 237.664062 143.84375 241.054688 149.140625 244.441406 154.4375 C 239.140625 151.054688 233.84375 147.667969 228.542969 144.28125 L 211.132812 136.765625 L 211.003906 136.375 Z M 223.335938 133.335938 "/>
</svg>
