<?xml version="1.0" encoding="UTF-8"?>
<svg xmlns="http://www.w3.org/2000/svg" xmlns:xlink="http://www.w3.org/1999/xlink" width="196.688pt" height="172.651pt" viewBox="0 0 196.688 172.651">
<defs>
<g>
<g id="glyph-0-0">
<path d="M -0.015625 0 L 3.28125 -8.59375 L 4.5 -8.59375 L 8.015625 0 L 6.734375 0 L 5.71875 -2.609375 L 2.140625 -2.609375 L 1.1875 0 Z M 2.46875 -3.53125 L 5.375 -3.53125 L 4.484375 -5.90625 C 4.203125 -6.625 4 -7.21875 3.875 -7.6875 C 3.757812 -7.132812 3.601562 -6.585938 3.40625 -6.046875 Z M 2.46875 -3.53125 "/>
</g>
<g id="glyph-0-1">
<path d="M 0.875 0 L 0.875 -8.59375 L 4.109375 -8.59375 C 4.765625 -8.59375 5.289062 -8.503906 5.6875 -8.328125 C 6.082031 -8.148438 6.390625 -7.878906 6.609375 -7.515625 C 6.835938 -7.160156 6.953125 -6.785156 6.953125 -6.390625 C 6.953125 -6.023438 6.851562 -5.679688 6.65625 -5.359375 C 6.457031 -5.035156 6.15625 -4.773438 5.75 -4.578125 C 6.269531 -4.421875 6.664062 -4.15625 6.9375 -3.78125 C 7.21875 -3.414062 7.359375 -2.984375 7.359375 -2.484375 C 7.359375 -2.085938 7.273438 -1.710938 7.109375 -1.359375 C 6.941406 -1.015625 6.734375 -0.75 6.484375 -0.5625 C 6.234375 -0.375 5.914062 -0.234375 5.53125 -0.140625 C 5.15625 -0.046875 4.695312 0 4.15625 0 Z M 2.015625 -4.984375 L 3.875 -4.984375 C 4.375 -4.984375 4.734375 -5.015625 4.953125 -5.078125 C 5.242188 -5.160156 5.460938 -5.300781 5.609375 -5.5 C 5.753906 -5.707031 5.828125 -5.960938 5.828125 -6.265625 C 5.828125 -6.546875 5.757812 -6.796875 5.625 -7.015625 C 5.488281 -7.234375 5.289062 -7.378906 5.03125 -7.453125 C 4.78125 -7.535156 4.347656 -7.578125 3.734375 -7.578125 L 2.015625 -7.578125 Z M 2.015625 -1.015625 L 4.15625 -1.015625 C 4.519531 -1.015625 4.773438 -1.03125 4.921875 -1.0625 C 5.191406 -1.101562 5.410156 -1.175781 5.578125 -1.28125 C 5.753906 -1.394531 5.898438 -1.554688 6.015625 -1.765625 C 6.128906 -1.972656 6.1875 -2.210938 6.1875 -2.484375 C 6.1875 -2.804688 6.101562 -3.085938 5.9375 -3.328125 C 5.78125 -3.566406 5.554688 -3.734375 5.265625 -3.828125 C 4.972656 -3.921875 4.550781 -3.96875 4 -3.96875 L 2.015625 -3.96875 Z M 2.015625 -1.015625 "/>
</g>
<g id="glyph-0-2">
<path d="M 7.0625 -3.015625 L 8.1875 -2.71875 C 7.945312 -1.789062 7.519531 -1.082031 6.90625 -0.59375 C 6.289062 -0.101562 5.535156 0.140625 4.640625 0.140625 C 3.710938 0.140625 2.957031 -0.046875 2.375 -0.421875 C 1.789062 -0.796875 1.347656 -1.335938 1.046875 -2.046875 C 0.742188 -2.765625 0.59375 -3.535156 0.59375 -4.359375 C 0.59375 -5.253906 0.765625 -6.035156 1.109375 -6.703125 C 1.453125 -7.367188 1.9375 -7.875 2.5625 -8.21875 C 3.195312 -8.5625 3.894531 -8.734375 4.65625 -8.734375 C 5.507812 -8.734375 6.226562 -8.515625 6.8125 -8.078125 C 7.40625 -7.640625 7.816406 -7.023438 8.046875 -6.234375 L 6.921875 -5.96875 C 6.722656 -6.59375 6.429688 -7.046875 6.046875 -7.328125 C 5.671875 -7.617188 5.195312 -7.765625 4.625 -7.765625 C 3.96875 -7.765625 3.414062 -7.601562 2.96875 -7.28125 C 2.53125 -6.96875 2.21875 -6.546875 2.03125 -6.015625 C 1.851562 -5.484375 1.765625 -4.929688 1.765625 -4.359375 C 1.765625 -3.628906 1.867188 -2.992188 2.078125 -2.453125 C 2.296875 -1.910156 2.628906 -1.503906 3.078125 -1.234375 C 3.523438 -0.960938 4.015625 -0.828125 4.546875 -0.828125 C 5.179688 -0.828125 5.71875 -1.007812 6.15625 -1.375 C 6.601562 -1.738281 6.90625 -2.285156 7.0625 -3.015625 Z M 7.0625 -3.015625 "/>
</g>
<g id="glyph-0-3">
<path d="M 0.921875 0 L 0.921875 -8.59375 L 3.890625 -8.59375 C 4.554688 -8.59375 5.066406 -8.550781 5.421875 -8.46875 C 5.910156 -8.351562 6.328125 -8.148438 6.671875 -7.859375 C 7.128906 -7.472656 7.46875 -6.976562 7.6875 -6.375 C 7.914062 -5.78125 8.03125 -5.101562 8.03125 -4.34375 C 8.03125 -3.6875 7.953125 -3.109375 7.796875 -2.609375 C 7.648438 -2.109375 7.457031 -1.691406 7.21875 -1.359375 C 6.976562 -1.023438 6.710938 -0.765625 6.421875 -0.578125 C 6.140625 -0.390625 5.800781 -0.242188 5.40625 -0.140625 C 5.007812 -0.046875 4.550781 0 4.03125 0 Z M 2.0625 -1.015625 L 3.890625 -1.015625 C 4.460938 -1.015625 4.910156 -1.066406 5.234375 -1.171875 C 5.554688 -1.273438 5.8125 -1.425781 6 -1.625 C 6.269531 -1.882812 6.476562 -2.242188 6.625 -2.703125 C 6.78125 -3.160156 6.859375 -3.710938 6.859375 -4.359375 C 6.859375 -5.253906 6.707031 -5.941406 6.40625 -6.421875 C 6.113281 -6.910156 5.757812 -7.238281 5.34375 -7.40625 C 5.03125 -7.519531 4.539062 -7.578125 3.875 -7.578125 L 2.0625 -7.578125 Z M 2.0625 -1.015625 "/>
</g>
</g>
<clipPath id="clip-0">
<path clip-rule="nonzero" d="M 17 154 L 36 154 L 36 172.652344 L 17 172.652344 Z M 17 154 "/>
</clipPath>
<clipPath id="clip-1">
<path clip-rule="nonzero" d="M 161 154 L 180 154 L 180 172.652344 L 161 172.652344 Z M 161 154 "/>
</clipPath>
<clipPath id="clip-2">
<path clip-rule="nonzero" d="M 155 148 L 185 148 L 185 172.652344 L 155 172.652344 Z M 155 148 "/>
</clipPath>
<clipPath id="clip-3">
<path clip-rule="nonzero" d="M 0 27 L 127 27 L 127 172.652344 L 0 172.652344 Z M 0 27 "/>
</clipPath>
<clipPath id="clip-4">
<path clip-rule="nonzero" d="M 69 27 L 196.6875 27 L 196.6875 172.652344 L 69 172.652344 Z M 69 27 "/>
</clipPath>
<clipPath id="clip-5">
<path clip-rule="nonzero" d="M 179 82 L 196.6875 82 L 196.6875 92 L 179 92 Z M 179 82 "/>
</clipPath>
</defs>
<path fill="none" stroke-width="1" stroke-linecap="butt" stroke-linejoin="miter" stroke="rgb(0%, 0%, 0%)" stroke-opacity="1" stroke-miterlimit="4" d="M 0.0009375 0.000525 L 0.0009375 144.000525 L 144.000937 144.000525 L 144.000937 0.000525 " transform="matrix(1, 0, 0, -1, 26.0225, 163.2974)"/>
<g clip-path="url(#clip-0)">
<path fill-rule="nonzero" fill="rgb(0%, 0%, 0%)" fill-opacity="1" d="M 17.023438 163.296875 L 26.023438 172.296875 L 35.023438 163.296875 L 26.023438 154.296875 Z M 17.023438 163.296875 "/>
</g>
<path fill-rule="nonzero" fill="rgb(0%, 0%, 0%)" fill-opacity="1" d="M 26.023438 10.296875 L 17.023438 19.296875 L 26.023438 28.296875 L 35.023438 19.296875 "/>
<path fill-rule="nonzero" fill="rgb(0%, 0%, 0%)" fill-opacity="1" d="M 170.023438 10.296875 L 161.023438 19.296875 L 170.023438 28.296875 L 179.023438 19.296875 "/>
<g clip-path="url(#clip-1)">
<path fill-rule="nonzero" fill="rgb(0%, 0%, 0%)" fill-opacity="1" d="M 161.023438 163.296875 L 170.023438 172.296875 L 179.023438 163.296875 L 170.023438 154.296875 Z M 161.023438 163.296875 "/>
</g>
<g clip-path="url(#clip-2)">
<path fill="none" stroke-width="1" stroke-linecap="butt" stroke-linejoin="miter" stroke="rgb(0%, 0%, 0%)" stroke-opacity="1" stroke-miterlimit="4" d="M 0.0009375 0.000525 L 9.000937 9.000525 L 18.000937 0.000525 L 9.000937 -8.999475 " transform="matrix(1, 0, 0, -1, 161.0225, 163.2974)"/>
</g>
<path fill="none" stroke-width="1" stroke-linecap="butt" stroke-linejoin="miter" stroke="rgb(0%, 0%, 0%)" stroke-opacity="1" stroke-miterlimit="4" d="M 0.0009375 0.000525 L 72.000938 72.000525 L 144.000937 0.000525 " transform="matrix(1, 0, 0, -1, 26.0225, 91.2974)"/>
<path fill="none" stroke-width="1" stroke-linecap="butt" stroke-linejoin="miter" stroke="rgb(0%, 0%, 0%)" stroke-opacity="1" stroke-miterlimit="4" d="M 0.0009375 0.000525 L 72.000937 0.000525 " transform="matrix(1, 0, 0, -1, 62.0225, 55.2974)"/>
<path fill-rule="nonzero" fill="rgb(79.998779%, 79.998779%, 79.998779%)" fill-opacity="1" d="M 30.523438 91.296875 C 30.523438 93.78125 28.507812 95.796875 26.023438 95.796875 C 23.539062 95.796875 21.523438 93.78125 21.523438 91.296875 C 21.523438 88.8125 23.539062 86.796875 26.023438 86.796875 C 28.507812 86.796875 30.523438 88.8125 30.523438 91.296875 "/>
<path fill="none" stroke-width="1" stroke-linecap="butt" stroke-linejoin="miter" stroke="rgb(0%, 0%, 0%)" stroke-opacity="1" stroke-miterlimit="4" d="M 0.0009375 0.000525 C 0.0009375 -2.48385 -2.014687 -4.499475 -4.499062 -4.499475 C -6.983437 -4.499475 -8.999062 -2.48385 -8.999062 0.000525 C -8.999062 2.4849 -6.983437 4.500525 -4.499062 4.500525 C -2.014687 4.500525 0.0009375 2.4849 0.0009375 0.000525 Z M 0.0009375 0.000525 " transform="matrix(1, 0, 0, -1, 30.5225, 91.2974)"/>
<path fill-rule="nonzero" fill="rgb(79.998779%, 79.998779%, 79.998779%)" fill-opacity="1" d="M 102.523438 19.296875 C 102.523438 21.78125 100.507812 23.796875 98.023438 23.796875 C 95.539062 23.796875 93.523438 21.78125 93.523438 19.296875 C 93.523438 16.8125 95.539062 14.796875 98.023438 14.796875 C 100.507812 14.796875 102.523438 16.8125 102.523438 19.296875 "/>
<path fill="none" stroke-width="1" stroke-linecap="butt" stroke-linejoin="miter" stroke="rgb(0%, 0%, 0%)" stroke-opacity="1" stroke-miterlimit="4" d="M 0.0009375 0.000625 C 0.0009375 -2.48375 -2.014687 -4.499375 -4.499062 -4.499375 C -6.983437 -4.499375 -8.999062 -2.48375 -8.999062 0.000625 C -8.999062 2.485 -6.983437 4.500625 -4.499062 4.500625 C -2.014687 4.500625 0.0009375 2.485 0.0009375 0.000625 Z M 0.0009375 0.000625 " transform="matrix(1, 0, 0, -1, 102.5225, 19.2975)"/>
<path fill-rule="nonzero" fill="rgb(79.998779%, 79.998779%, 79.998779%)" fill-opacity="1" d="M 174.523438 91.296875 C 174.523438 93.78125 172.507812 95.796875 170.023438 95.796875 C 167.539062 95.796875 165.523438 93.78125 165.523438 91.296875 C 165.523438 88.8125 167.539062 86.796875 170.023438 86.796875 C 172.507812 86.796875 174.523438 88.8125 174.523438 91.296875 "/>
<path fill="none" stroke-width="1" stroke-linecap="butt" stroke-linejoin="miter" stroke="rgb(0%, 0%, 0%)" stroke-opacity="1" stroke-miterlimit="4" d="M 0.0009375 0.000525 C 0.0009375 -2.48385 -2.014688 -4.499475 -4.499063 -4.499475 C -6.983438 -4.499475 -8.999063 -2.48385 -8.999063 0.000525 C -8.999063 2.4849 -6.983438 4.500525 -4.499063 4.500525 C -2.014688 4.500525 0.0009375 2.4849 0.0009375 0.000525 Z M 0.0009375 0.000525 " transform="matrix(1, 0, 0, -1, 174.5225, 91.2974)"/>
<path fill-rule="nonzero" fill="rgb(100%, 100%, 100%)" fill-opacity="1" d="M 138.523438 55.296875 C 138.523438 57.78125 136.507812 59.796875 134.023438 59.796875 C 131.539062 59.796875 129.523438 57.78125 129.523438 55.296875 C 129.523438 52.8125 131.539062 50.796875 134.023438 50.796875 C 136.507812 50.796875 138.523438 52.8125 138.523438 55.296875 "/>
<path fill="none" stroke-width="1" stroke-linecap="butt" stroke-linejoin="miter" stroke="rgb(0%, 0%, 0%)" stroke-opacity="1" stroke-miterlimit="4" d="M 0.0009375 0.000525 C 0.0009375 -2.48385 -2.014688 -4.499475 -4.499063 -4.499475 C -6.983438 -4.499475 -8.999063 -2.48385 -8.999063 0.000525 C -8.999063 2.4849 -6.983438 4.500525 -4.499063 4.500525 C -2.014688 4.500525 0.0009375 2.4849 0.0009375 0.000525 Z M 0.0009375 0.000525 " transform="matrix(1, 0, 0, -1, 138.5225, 55.2974)"/>
<path fill-rule="nonzero" fill="rgb(100%, 100%, 100%)" fill-opacity="1" d="M 66.523438 55.296875 C 66.523438 57.78125 64.507812 59.796875 62.023438 59.796875 C 59.539062 59.796875 57.523438 57.78125 57.523438 55.296875 C 57.523438 52.8125 59.539062 50.796875 62.023438 50.796875 C 64.507812 50.796875 66.523438 52.8125 66.523438 55.296875 "/>
<path fill="none" stroke-width="1" stroke-linecap="butt" stroke-linejoin="miter" stroke="rgb(0%, 0%, 0%)" stroke-opacity="1" stroke-miterlimit="4" d="M 0.0009375 0.000525 C 0.0009375 -2.48385 -2.014687 -4.499475 -4.499062 -4.499475 C -6.983437 -4.499475 -8.999062 -2.48385 -8.999062 0.000525 C -8.999062 2.4849 -6.983437 4.500525 -4.499062 4.500525 C -2.014687 4.500525 0.0009375 2.4849 0.0009375 0.000525 Z M 0.0009375 0.000525 " transform="matrix(1, 0, 0, -1, 66.5225, 55.2974)"/>
<path fill-rule="nonzero" fill="rgb(0%, 0%, 0%)" fill-opacity="1" d="M 102.523438 55.296875 C 102.523438 57.78125 100.507812 59.796875 98.023438 59.796875 C 95.539062 59.796875 93.523438 57.78125 93.523438 55.296875 C 93.523438 52.8125 95.539062 50.796875 98.023438 50.796875 C 100.507812 50.796875 102.523438 52.8125 102.523438 55.296875 "/>
<path fill="none" stroke-width="1" stroke-linecap="butt" stroke-linejoin="miter" stroke="rgb(0%, 0%, 0%)" stroke-opacity="1" stroke-miterlimit="4" d="M 0.0009375 0.000525 C 0.0009375 -2.48385 -2.014687 -4.499475 -4.499062 -4.499475 C -6.983437 -4.499475 -8.999062 -2.48385 -8.999062 0.000525 C -8.999062 2.4849 -6.983437 4.500525 -4.499062 4.500525 C -2.014687 4.500525 0.0009375 2.4849 0.0009375 0.000525 Z M 0.0009375 0.000525 " transform="matrix(1, 0, 0, -1, 102.5225, 55.2974)"/>
<g clip-path="url(#clip-3)">
<path fill="none" stroke-width="5" stroke-linecap="butt" stroke-linejoin="miter" stroke="rgb(50%, 50%, 50%)" stroke-opacity="1" stroke-miterlimit="4" d="M 0.0009375 0.000525 C 0.0009375 81.000525 54.000938 108.000525 72.000938 108.000525 " transform="matrix(1, 0, 0, -1, 26.0225, 163.2974)"/>
</g>
<g clip-path="url(#clip-4)">
<path fill="none" stroke-width="5" stroke-linecap="butt" stroke-linejoin="miter" stroke="rgb(75%, 75%, 75%)" stroke-opacity="1" stroke-miterlimit="4" d="M 0.0009375 0.000525 C 36.000938 0.000525 72.000938 -35.999475 72.000938 -107.999475 " transform="matrix(1, 0, 0, -1, 98.0225, 55.2974)"/>
</g>
<g fill="rgb(0%, 0%, 0%)" fill-opacity="1">
<use xlink:href="#glyph-0-0" x="4.3516" y="163.2975"/>
</g>
<g fill="rgb(0%, 0%, 0%)" fill-opacity="1">
<use xlink:href="#glyph-0-1" x="4.0156" y="19.2975"/>
</g>
<g fill="rgb(0%, 0%, 0%)" fill-opacity="1">
<use xlink:href="#glyph-0-2" x="183.6796" y="19.2975"/>
</g>
<g fill="rgb(0%, 0%, 0%)" fill-opacity="1">
<use xlink:href="#glyph-0-3" x="183.6796" y="163.2975"/>
</g>
<g clip-path="url(#clip-5)">
<g fill="rgb(0%, 0%, 0%)" fill-opacity="1">
<use xlink:href="#glyph-0-2" x="179.3564" y="91.2975"/>
<use xlink:href="#glyph-0-3" x="188.0204" y="91.2975"/>
</g>
</g>
<g fill="rgb(0%, 0%, 0%)" fill-opacity="1">
<use xlink:href="#glyph-0-0" x="0.0164" y="91.2975"/>
<use xlink:href="#glyph-0-1" x="8.0204" y="91.2975"/>
</g>
<g fill="rgb(0%, 0%, 0%)" fill-opacity="1">
<use xlink:href="#glyph-0-1" x="89.6804" y="10.2975"/>
<use xlink:href="#glyph-0-2" x="97.6844" y="10.2975"/>
</g>
<g fill="rgb(0%, 0%, 0%)" fill-opacity="1">
<use xlink:href="#glyph-0-0" x="44.6875" y="46.2975"/>
<use xlink:href="#glyph-0-2" x="52.6915" y="46.2975"/>
</g>
<g fill="rgb(0%, 0%, 0%)" fill-opacity="1">
<use xlink:href="#glyph-0-1" x="134.6875" y="46.2975"/>
<use xlink:href="#glyph-0-3" x="142.6915" y="46.2975"/>
</g>
<g fill="rgb(0%, 0%, 0%)" fill-opacity="1">
<use xlink:href="#glyph-0-0" x="89.6875" y="46.2975"/>
<use xlink:href="#glyph-0-3" x="97.6915" y="46.2975"/>
</g>
</svg>
