<?xml version="1.0" encoding="UTF-8"?>
<svg xmlns="http://www.w3.org/2000/svg" xmlns:xlink="http://www.w3.org/1999/xlink" width="511.276pt" height="154pt" viewBox="0 0 511.276 154">
<defs>
<clipPath id="clip-0">
<path clip-rule="nonzero" d="M 500 141 L 511.277344 141 L 511.277344 154 L 500 154 Z M 500 141 "/>
</clipPath>
<clipPath id="clip-1">
<path clip-rule="nonzero" d="M 488 119 L 511.277344 119 L 511.277344 154 L 488 154 Z M 488 119 "/>
</clipPath>
</defs>
<path fill-rule="nonzero" fill="rgb(0%, 0%, 0%)" fill-opacity="1" d="M 9.5 149 C 9.5 151.484375 7.484375 153.5 5 153.5 C 2.515625 153.5 0.5 151.484375 0.5 149 C 0.5 146.515625 2.515625 144.5 5 144.5 C 7.484375 144.5 9.5 146.515625 9.5 149 "/>
<path fill="none" stroke-width="1" stroke-linecap="butt" stroke-linejoin="miter" stroke="rgb(0%, 0%, 0%)" stroke-opacity="1" stroke-miterlimit="4" d="M 0 0 C 0 -2.484375 -2.015625 -4.5 -4.5 -4.5 C -6.984375 -4.5 -9 -2.484375 -9 0 C -9 2.484375 -6.984375 4.5 -4.5 4.5 C -2.015625 4.5 0 2.484375 0 0 Z M 0 0 " transform="matrix(1, 0, 0, -1, 9.5, 149)"/>
<path fill-rule="nonzero" fill="rgb(0%, 0%, 0%)" fill-opacity="1" d="M 81.5 5 C 81.5 7.484375 79.484375 9.5 77 9.5 C 74.515625 9.5 72.5 7.484375 72.5 5 C 72.5 2.515625 74.515625 0.5 77 0.5 C 79.484375 0.5 81.5 2.515625 81.5 5 "/>
<path fill="none" stroke-width="1" stroke-linecap="butt" stroke-linejoin="miter" stroke="rgb(0%, 0%, 0%)" stroke-opacity="1" stroke-miterlimit="4" d="M 0 0 C 0 -2.484375 -2.015625 -4.5 -4.5 -4.5 C -6.984375 -4.5 -9 -2.484375 -9 0 C -9 2.484375 -6.984375 4.5 -4.5 4.5 C -2.015625 4.5 0 2.484375 0 0 Z M 0 0 " transform="matrix(1, 0, 0, -1, 81.5, 5)"/>
<path fill-rule="nonzero" fill="rgb(0%, 0%, 0%)" fill-opacity="1" d="M 153.5 149 C 153.5 151.484375 151.484375 153.5 149 153.5 C 146.515625 153.5 144.5 151.484375 144.5 149 C 144.5 146.515625 146.515625 144.5 149 144.5 C 151.484375 144.5 153.5 146.515625 153.5 149 "/>
<path fill="none" stroke-width="1" stroke-linecap="butt" stroke-linejoin="miter" stroke="rgb(0%, 0%, 0%)" stroke-opacity="1" stroke-miterlimit="4" d="M 0 0 C 0 -2.484375 -2.015625 -4.5 -4.5 -4.5 C -6.984375 -4.5 -9 -2.484375 -9 0 C -9 2.484375 -6.984375 4.5 -4.5 4.5 C -2.015625 4.5 0 2.484375 0 0 Z M 0 0 " transform="matrix(1, 0, 0, -1, 153.5, 149)"/>
<path fill-rule="nonzero" fill="rgb(0%, 0%, 0%)" fill-opacity="1" d="M 189.5 149 C 189.5 151.484375 187.484375 153.5 185 153.5 C 182.515625 153.5 180.5 151.484375 180.5 149 C 180.5 146.515625 182.515625 144.5 185 144.5 C 187.484375 144.5 189.5 146.515625 189.5 149 "/>
<path fill="none" stroke-width="1" stroke-linecap="butt" stroke-linejoin="miter" stroke="rgb(0%, 0%, 0%)" stroke-opacity="1" stroke-miterlimit="4" d="M 0 0 C 0 -2.484375 -2.015625 -4.5 -4.5 -4.5 C -6.984375 -4.5 -9 -2.484375 -9 0 C -9 2.484375 -6.984375 4.5 -4.5 4.5 C -2.015625 4.5 0 2.484375 0 0 Z M 0 0 " transform="matrix(1, 0, 0, -1, 189.5, 149)"/>
<path fill-rule="nonzero" fill="rgb(0%, 0%, 0%)" fill-opacity="1" d="M 225.5 77 C 225.5 79.484375 223.484375 81.5 221 81.5 C 218.515625 81.5 216.5 79.484375 216.5 77 C 216.5 74.515625 218.515625 72.5 221 72.5 C 223.484375 72.5 225.5 74.515625 225.5 77 "/>
<path fill="none" stroke-width="1" stroke-linecap="butt" stroke-linejoin="miter" stroke="rgb(0%, 0%, 0%)" stroke-opacity="1" stroke-miterlimit="4" d="M 0 0 C 0 -2.484375 -2.015625 -4.5 -4.5 -4.5 C -6.984375 -4.5 -9 -2.484375 -9 0 C -9 2.484375 -6.984375 4.5 -4.5 4.5 C -2.015625 4.5 0 2.484375 0 0 Z M 0 0 " transform="matrix(1, 0, 0, -1, 225.5, 77)"/>
<path fill-rule="nonzero" fill="rgb(0%, 0%, 0%)" fill-opacity="1" d="M 297.5 77 C 297.5 79.484375 295.484375 81.5 293 81.5 C 290.515625 81.5 288.5 79.484375 288.5 77 C 288.5 74.515625 290.515625 72.5 293 72.5 C 295.484375 72.5 297.5 74.515625 297.5 77 "/>
<path fill="none" stroke-width="1" stroke-linecap="butt" stroke-linejoin="miter" stroke="rgb(0%, 0%, 0%)" stroke-opacity="1" stroke-miterlimit="4" d="M 0 0 C 0 -2.484375 -2.015625 -4.5 -4.5 -4.5 C -6.984375 -4.5 -9 -2.484375 -9 0 C -9 2.484375 -6.984375 4.5 -4.5 4.5 C -2.015625 4.5 0 2.484375 0 0 Z M 0 0 " transform="matrix(1, 0, 0, -1, 297.5, 77)"/>
<path fill-rule="nonzero" fill="rgb(0%, 0%, 0%)" fill-opacity="1" d="M 333.5 149 C 333.5 151.484375 331.484375 153.5 329 153.5 C 326.515625 153.5 324.5 151.484375 324.5 149 C 324.5 146.515625 326.515625 144.5 329 144.5 C 331.484375 144.5 333.5 146.515625 333.5 149 "/>
<path fill="none" stroke-width="1" stroke-linecap="butt" stroke-linejoin="miter" stroke="rgb(0%, 0%, 0%)" stroke-opacity="1" stroke-miterlimit="4" d="M 0 0 C 0 -2.484375 -2.015625 -4.5 -4.5 -4.5 C -6.984375 -4.5 -9 -2.484375 -9 0 C -9 2.484375 -6.984375 4.5 -4.5 4.5 C -2.015625 4.5 0 2.484375 0 0 Z M 0 0 " transform="matrix(1, 0, 0, -1, 333.5, 149)"/>
<path fill="none" stroke-width="3" stroke-linecap="butt" stroke-linejoin="miter" stroke="rgb(0%, 0%, 0%)" stroke-opacity="1" stroke-miterlimit="4" d="M 0 0 L 36 -72 " transform="matrix(1, 0, 0, -1, 113, 77)"/>
<path fill="none" stroke-width="3" stroke-linecap="butt" stroke-linejoin="miter" stroke="rgb(0%, 0%, 0%)" stroke-opacity="1" stroke-dasharray="4" stroke-miterlimit="4" d="M 0 0 L 36 72 L 72 0 " transform="matrix(1, 0, 0, -1, 41, 77)"/>
<path fill="none" stroke-width="3" stroke-linecap="butt" stroke-linejoin="miter" stroke="rgb(0%, 0%, 0%)" stroke-opacity="1" stroke-miterlimit="4" d="M 0 0 L 36 72 " transform="matrix(1, 0, 0, -1, 5, 149)"/>
<path fill-rule="nonzero" fill="rgb(50%, 50%, 50%)" fill-opacity="1" d="M 45.5 76.5 C 45.5 78.984375 43.484375 81 41 81 C 38.515625 81 36.5 78.984375 36.5 76.5 C 36.5 74.015625 38.515625 72 41 72 C 43.484375 72 45.5 74.015625 45.5 76.5 "/>
<path fill="none" stroke-width="1" stroke-linecap="butt" stroke-linejoin="miter" stroke="rgb(50%, 50%, 50%)" stroke-opacity="1" stroke-miterlimit="4" d="M 0 0 C 0 -2.484375 -2.015625 -4.5 -4.5 -4.5 C -6.984375 -4.5 -9 -2.484375 -9 0 C -9 2.484375 -6.984375 4.5 -4.5 4.5 C -2.015625 4.5 0 2.484375 0 0 Z M 0 0 " transform="matrix(1, 0, 0, -1, 45.5, 76.5)"/>
<path fill-rule="nonzero" fill="rgb(50%, 50%, 50%)" fill-opacity="1" d="M 117.5 77 C 117.5 79.484375 115.484375 81.5 113 81.5 C 110.515625 81.5 108.5 79.484375 108.5 77 C 108.5 74.515625 110.515625 72.5 113 72.5 C 115.484375 72.5 117.5 74.515625 117.5 77 "/>
<path fill="none" stroke-width="1" stroke-linecap="butt" stroke-linejoin="miter" stroke="rgb(50%, 50%, 50%)" stroke-opacity="1" stroke-miterlimit="4" d="M 0 0 C 0 -2.484375 -2.015625 -4.5 -4.5 -4.5 C -6.984375 -4.5 -9 -2.484375 -9 0 C -9 2.484375 -6.984375 4.5 -4.5 4.5 C -2.015625 4.5 0 2.484375 0 0 Z M 0 0 " transform="matrix(1, 0, 0, -1, 117.5, 77)"/>
<path fill="none" stroke-width="3" stroke-linecap="butt" stroke-linejoin="miter" stroke="rgb(50%, 50%, 50%)" stroke-opacity="1" stroke-miterlimit="4" d="M 0 0 L 72 0 " transform="matrix(1, 0, 0, -1, 41, 76.5)"/>
<path fill="none" stroke-width="3" stroke-linecap="butt" stroke-linejoin="miter" stroke="rgb(0%, 0%, 0%)" stroke-opacity="1" stroke-miterlimit="4" d="M 0 0 L 18 -36 " transform="matrix(1, 0, 0, -1, 311, 113)"/>
<path fill="none" stroke-width="3" stroke-linecap="butt" stroke-linejoin="miter" stroke="rgb(0%, 0%, 0%)" stroke-opacity="1" stroke-dasharray="4" stroke-miterlimit="4" d="M 0 0 L 18 0 L 36 -36 " transform="matrix(1, 0, 0, -1, 275, 77)"/>
<path fill="none" stroke-width="3" stroke-linecap="butt" stroke-linejoin="miter" stroke="rgb(0%, 0%, 0%)" stroke-opacity="1" stroke-miterlimit="4" d="M 0 0 L 36 0 " transform="matrix(1, 0, 0, -1, 239, 77)"/>
<path fill="none" stroke-width="3" stroke-linecap="butt" stroke-linejoin="miter" stroke="rgb(0%, 0%, 0%)" stroke-opacity="1" stroke-dasharray="4" stroke-miterlimit="4" d="M 0 0 L 18 36 L 36 36 " transform="matrix(1, 0, 0, -1, 203, 113)"/>
<path fill="none" stroke-width="3" stroke-linecap="butt" stroke-linejoin="miter" stroke="rgb(0%, 0%, 0%)" stroke-opacity="1" stroke-miterlimit="4" d="M 0 0 L 18 36 " transform="matrix(1, 0, 0, -1, 185, 149)"/>
<path fill-rule="nonzero" fill="rgb(100%, 100%, 100%)" fill-opacity="1" d="M 81.5 77 C 81.5 79.484375 79.484375 81.5 77 81.5 C 74.515625 81.5 72.5 79.484375 72.5 77 C 72.5 74.515625 74.515625 72.5 77 72.5 C 79.484375 72.5 81.5 74.515625 81.5 77 "/>
<path fill="none" stroke-width="3" stroke-linecap="butt" stroke-linejoin="miter" stroke="rgb(0%, 0%, 0%)" stroke-opacity="1" stroke-miterlimit="4" d="M 0 0 C 0 -2.484375 -2.015625 -4.5 -4.5 -4.5 C -6.984375 -4.5 -9 -2.484375 -9 0 C -9 2.484375 -6.984375 4.5 -4.5 4.5 C -2.015625 4.5 0 2.484375 0 0 Z M 0 0 " transform="matrix(1, 0, 0, -1, 81.5, 77)"/>
<path fill-rule="nonzero" fill="rgb(50%, 50%, 50%)" fill-opacity="1" d="M 207.5 113 C 207.5 115.484375 205.484375 117.5 203 117.5 C 200.515625 117.5 198.5 115.484375 198.5 113 C 198.5 110.515625 200.515625 108.5 203 108.5 C 205.484375 108.5 207.5 110.515625 207.5 113 "/>
<path fill="none" stroke-width="1" stroke-linecap="butt" stroke-linejoin="miter" stroke="rgb(50%, 50%, 50%)" stroke-opacity="1" stroke-miterlimit="4" d="M 0 0 C 0 -2.484375 -2.015625 -4.5 -4.5 -4.5 C -6.984375 -4.5 -9 -2.484375 -9 0 C -9 2.484375 -6.984375 4.5 -4.5 4.5 C -2.015625 4.5 0 2.484375 0 0 Z M 0 0 " transform="matrix(1, 0, 0, -1, 207.5, 113)"/>
<path fill-rule="nonzero" fill="rgb(50%, 50%, 50%)" fill-opacity="1" d="M 243.5 77 C 243.5 79.484375 241.484375 81.5 239 81.5 C 236.515625 81.5 234.5 79.484375 234.5 77 C 234.5 74.515625 236.515625 72.5 239 72.5 C 241.484375 72.5 243.5 74.515625 243.5 77 "/>
<path fill="none" stroke-width="1" stroke-linecap="butt" stroke-linejoin="miter" stroke="rgb(50%, 50%, 50%)" stroke-opacity="1" stroke-miterlimit="4" d="M 0 0 C 0 -2.484375 -2.015625 -4.5 -4.5 -4.5 C -6.984375 -4.5 -9 -2.484375 -9 0 C -9 2.484375 -6.984375 4.5 -4.5 4.5 C -2.015625 4.5 0 2.484375 0 0 Z M 0 0 " transform="matrix(1, 0, 0, -1, 243.5, 77)"/>
<path fill-rule="nonzero" fill="rgb(50%, 50%, 50%)" fill-opacity="1" d="M 279.5 77 C 279.5 79.484375 277.484375 81.5 275 81.5 C 272.515625 81.5 270.5 79.484375 270.5 77 C 270.5 74.515625 272.515625 72.5 275 72.5 C 277.484375 72.5 279.5 74.515625 279.5 77 "/>
<path fill="none" stroke-width="1" stroke-linecap="butt" stroke-linejoin="miter" stroke="rgb(50%, 50%, 50%)" stroke-opacity="1" stroke-miterlimit="4" d="M 0 0 C 0 -2.484375 -2.015625 -4.5 -4.5 -4.5 C -6.984375 -4.5 -9 -2.484375 -9 0 C -9 2.484375 -6.984375 4.5 -4.5 4.5 C -2.015625 4.5 0 2.484375 0 0 Z M 0 0 " transform="matrix(1, 0, 0, -1, 279.5, 77)"/>
<path fill-rule="nonzero" fill="rgb(50%, 50%, 50%)" fill-opacity="1" d="M 315.5 113 C 315.5 115.484375 313.484375 117.5 311 117.5 C 308.515625 117.5 306.5 115.484375 306.5 113 C 306.5 110.515625 308.515625 108.5 311 108.5 C 313.484375 108.5 315.5 110.515625 315.5 113 "/>
<path fill="none" stroke-width="1" stroke-linecap="butt" stroke-linejoin="miter" stroke="rgb(50%, 50%, 50%)" stroke-opacity="1" stroke-miterlimit="4" d="M 0 0 C 0 -2.484375 -2.015625 -4.5 -4.5 -4.5 C -6.984375 -4.5 -9 -2.484375 -9 0 C -9 2.484375 -6.984375 4.5 -4.5 4.5 C -2.015625 4.5 0 2.484375 0 0 Z M 0 0 " transform="matrix(1, 0, 0, -1, 315.5, 113)"/>
<path fill="none" stroke-width="3" stroke-linecap="butt" stroke-linejoin="miter" stroke="rgb(50%, 50%, 50%)" stroke-opacity="1" stroke-miterlimit="4" d="M 0 0 L 36 36 " transform="matrix(1, 0, 0, -1, 203, 113)"/>
<path fill="none" stroke-width="3" stroke-linecap="butt" stroke-linejoin="miter" stroke="rgb(50%, 50%, 50%)" stroke-opacity="1" stroke-miterlimit="4" d="M 0 0 L 36 -36 " transform="matrix(1, 0, 0, -1, 275, 77)"/>
<path fill-rule="nonzero" fill="rgb(0%, 0%, 0%)" fill-opacity="1" d="M 261.5 77 C 261.5 79.484375 259.484375 81.5 257 81.5 C 254.515625 81.5 252.5 79.484375 252.5 77 C 252.5 74.515625 254.515625 72.5 257 72.5 C 259.484375 72.5 261.5 74.515625 261.5 77 "/>
<path fill="none" stroke-width="1" stroke-linecap="butt" stroke-linejoin="miter" stroke="rgb(0%, 0%, 0%)" stroke-opacity="1" stroke-miterlimit="4" d="M 0 0 C 0 -2.484375 -2.015625 -4.5 -4.5 -4.5 C -6.984375 -4.5 -9 -2.484375 -9 0 C -9 2.484375 -6.984375 4.5 -4.5 4.5 C -2.015625 4.5 0 2.484375 0 0 Z M 0 0 " transform="matrix(1, 0, 0, -1, 261.5, 77)"/>
<path fill-rule="nonzero" fill="rgb(100%, 100%, 100%)" fill-opacity="1" d="M 297.5 95 C 297.5 97.484375 295.484375 99.5 293 99.5 C 290.515625 99.5 288.5 97.484375 288.5 95 C 288.5 92.515625 290.515625 90.5 293 90.5 C 295.484375 90.5 297.5 92.515625 297.5 95 "/>
<path fill="none" stroke-width="3" stroke-linecap="butt" stroke-linejoin="miter" stroke="rgb(0%, 0%, 0%)" stroke-opacity="1" stroke-miterlimit="4" d="M 0 0 C 0 -2.484375 -2.015625 -4.5 -4.5 -4.5 C -6.984375 -4.5 -9 -2.484375 -9 0 C -9 2.484375 -6.984375 4.5 -4.5 4.5 C -2.015625 4.5 0 2.484375 0 0 Z M 0 0 " transform="matrix(1, 0, 0, -1, 297.5, 95)"/>
<path fill-rule="nonzero" fill="rgb(100%, 100%, 100%)" fill-opacity="1" d="M 225.5 95 C 225.5 97.484375 223.484375 99.5 221 99.5 C 218.515625 99.5 216.5 97.484375 216.5 95 C 216.5 92.515625 218.515625 90.5 221 90.5 C 223.484375 90.5 225.5 92.515625 225.5 95 "/>
<path fill="none" stroke-width="3" stroke-linecap="butt" stroke-linejoin="miter" stroke="rgb(0%, 0%, 0%)" stroke-opacity="1" stroke-miterlimit="4" d="M 0 0 C 0 -2.484375 -2.015625 -4.5 -4.5 -4.5 C -6.984375 -4.5 -9 -2.484375 -9 0 C -9 2.484375 -6.984375 4.5 -4.5 4.5 C -2.015625 4.5 0 2.484375 0 0 Z M 0 0 " transform="matrix(1, 0, 0, -1, 225.5, 95)"/>
<path fill-rule="nonzero" fill="rgb(0%, 0%, 0%)" fill-opacity="1" d="M 366.300781 149 C 366.300781 149.992188 365.507812 150.800781 364.527344 150.800781 C 363.546875 150.800781 362.75 149.992188 362.75 149 C 362.75 148.007812 363.546875 147.199219 364.527344 147.199219 C 365.507812 147.199219 366.300781 148.007812 366.300781 149 "/>
<path fill="none" stroke-width="1" stroke-linecap="butt" stroke-linejoin="miter" stroke="rgb(0%, 0%, 0%)" stroke-opacity="1" stroke-miterlimit="4" d="M -0.00191875 0 C -0.00191875 -0.992188 -0.794888 -1.800781 -1.775356 -1.800781 C -2.755825 -1.800781 -3.5527 -0.992188 -3.5527 0 C -3.5527 0.992188 -2.755825 1.800781 -1.775356 1.800781 C -0.794888 1.800781 -0.00191875 0.992188 -0.00191875 0 Z M -0.00191875 0 " transform="matrix(1, 0, 0, -1, 366.3027, 149)"/>
<path fill-rule="nonzero" fill="rgb(0%, 0%, 0%)" fill-opacity="1" d="M 510.777344 149 C 510.777344 150.242188 509.769531 151.25 508.527344 151.25 C 507.285156 151.25 506.277344 150.242188 506.277344 149 C 506.277344 147.757812 507.285156 146.75 508.527344 146.75 C 509.769531 146.75 510.777344 147.757812 510.777344 149 "/>
<g clip-path="url(#clip-0)">
<path fill="none" stroke-width="1" stroke-linecap="butt" stroke-linejoin="miter" stroke="rgb(0%, 0%, 0%)" stroke-opacity="1" stroke-miterlimit="4" d="M 0.00094375 0 C 0.00094375 -1.242188 -1.006869 -2.25 -2.249056 -2.25 C -3.491244 -2.25 -4.499056 -1.242188 -4.499056 0 C -4.499056 1.242188 -3.491244 2.25 -2.249056 2.25 C -1.006869 2.25 0.00094375 1.242188 0.00094375 0 Z M 0.00094375 0 " transform="matrix(1, 0, 0, -1, 510.7764, 149)"/>
</g>
<path fill-rule="nonzero" fill="rgb(0%, 0%, 0%)" fill-opacity="1" d="M 384.777344 113 C 384.777344 114.242188 383.769531 115.25 382.527344 115.25 C 381.285156 115.25 380.277344 114.242188 380.277344 113 C 380.277344 111.757812 381.285156 110.75 382.527344 110.75 C 383.769531 110.75 384.777344 111.757812 384.777344 113 "/>
<path fill="none" stroke-width="1" stroke-linecap="butt" stroke-linejoin="miter" stroke="rgb(0%, 0%, 0%)" stroke-opacity="1" stroke-miterlimit="4" d="M 0.00094375 0 C 0.00094375 -1.242188 -1.006869 -2.25 -2.249056 -2.25 C -3.491244 -2.25 -4.499056 -1.242188 -4.499056 0 C -4.499056 1.242188 -3.491244 2.25 -2.249056 2.25 C -1.006869 2.25 0.00094375 1.242188 0.00094375 0 Z M 0.00094375 0 " transform="matrix(1, 0, 0, -1, 384.7764, 113)"/>
<path fill-rule="nonzero" fill="rgb(0%, 0%, 0%)" fill-opacity="1" d="M 402.777344 95 C 402.777344 96.242188 401.769531 97.25 400.527344 97.25 C 399.285156 97.25 398.277344 96.242188 398.277344 95 C 398.277344 93.757812 399.285156 92.75 400.527344 92.75 C 401.769531 92.75 402.777344 93.757812 402.777344 95 "/>
<path fill="none" stroke-width="1" stroke-linecap="butt" stroke-linejoin="miter" stroke="rgb(0%, 0%, 0%)" stroke-opacity="1" stroke-miterlimit="4" d="M 0.00094375 0 C 0.00094375 -1.242188 -1.006869 -2.25 -2.249056 -2.25 C -3.491244 -2.25 -4.499056 -1.242188 -4.499056 0 C -4.499056 1.242188 -3.491244 2.25 -2.249056 2.25 C -1.006869 2.25 0.00094375 1.242188 0.00094375 0 Z M 0.00094375 0 " transform="matrix(1, 0, 0, -1, 402.7764, 95)"/>
<path fill-rule="nonzero" fill="rgb(0%, 0%, 0%)" fill-opacity="1" d="M 456.777344 77 C 456.777344 78.242188 455.769531 79.25 454.527344 79.25 C 453.285156 79.25 452.277344 78.242188 452.277344 77 C 452.277344 75.757812 453.285156 74.75 454.527344 74.75 C 455.769531 74.75 456.777344 75.757812 456.777344 77 "/>
<path fill="none" stroke-width="1" stroke-linecap="butt" stroke-linejoin="miter" stroke="rgb(0%, 0%, 0%)" stroke-opacity="1" stroke-miterlimit="4" d="M 0.00094375 0 C 0.00094375 -1.242188 -1.006869 -2.25 -2.249056 -2.25 C -3.491244 -2.25 -4.499056 -1.242188 -4.499056 0 C -4.499056 1.242188 -3.491244 2.25 -2.249056 2.25 C -1.006869 2.25 0.00094375 1.242188 0.00094375 0 Z M 0.00094375 0 " transform="matrix(1, 0, 0, -1, 456.7764, 77)"/>
<path fill-rule="nonzero" fill="rgb(0%, 0%, 0%)" fill-opacity="1" d="M 492.777344 113 C 492.777344 114.242188 491.769531 115.25 490.527344 115.25 C 489.285156 115.25 488.277344 114.242188 488.277344 113 C 488.277344 111.757812 489.285156 110.75 490.527344 110.75 C 491.769531 110.75 492.777344 111.757812 492.777344 113 "/>
<path fill="none" stroke-width="1" stroke-linecap="butt" stroke-linejoin="miter" stroke="rgb(0%, 0%, 0%)" stroke-opacity="1" stroke-miterlimit="4" d="M 0.00094375 0 C 0.00094375 -1.242188 -1.006869 -2.25 -2.249056 -2.25 C -3.491244 -2.25 -4.499056 -1.242188 -4.499056 0 C -4.499056 1.242188 -3.491244 2.25 -2.249056 2.25 C -1.006869 2.25 0.00094375 1.242188 0.00094375 0 Z M 0.00094375 0 " transform="matrix(1, 0, 0, -1, 492.7764, 113)"/>
<path fill-rule="nonzero" fill="rgb(0%, 0%, 0%)" fill-opacity="1" d="M 438.777344 77 C 438.777344 78.242188 437.769531 79.25 436.527344 79.25 C 435.285156 79.25 434.277344 78.242188 434.277344 77 C 434.277344 75.757812 435.285156 74.75 436.527344 74.75 C 437.769531 74.75 438.777344 75.757812 438.777344 77 "/>
<path fill="none" stroke-width="1" stroke-linecap="butt" stroke-linejoin="miter" stroke="rgb(0%, 0%, 0%)" stroke-opacity="1" stroke-miterlimit="4" d="M 0.00094375 0 C 0.00094375 -1.242188 -1.006869 -2.25 -2.249056 -2.25 C -3.491244 -2.25 -4.499056 -1.242188 -4.499056 0 C -4.499056 1.242188 -3.491244 2.25 -2.249056 2.25 C -1.006869 2.25 0.00094375 1.242188 0.00094375 0 Z M 0.00094375 0 " transform="matrix(1, 0, 0, -1, 438.7764, 77)"/>
<path fill-rule="nonzero" fill="rgb(0%, 0%, 0%)" fill-opacity="1" d="M 474.777344 95 C 474.777344 96.242188 473.769531 97.25 472.527344 97.25 C 471.285156 97.25 470.277344 96.242188 470.277344 95 C 470.277344 93.757812 471.285156 92.75 472.527344 92.75 C 473.769531 92.75 474.777344 93.757812 474.777344 95 "/>
<path fill="none" stroke-width="1" stroke-linecap="butt" stroke-linejoin="miter" stroke="rgb(0%, 0%, 0%)" stroke-opacity="1" stroke-miterlimit="4" d="M 0.00094375 0 C 0.00094375 -1.242188 -1.006869 -2.25 -2.249056 -2.25 C -3.491244 -2.25 -4.499056 -1.242188 -4.499056 0 C -4.499056 1.242188 -3.491244 2.25 -2.249056 2.25 C -1.006869 2.25 0.00094375 1.242188 0.00094375 0 Z M 0.00094375 0 " transform="matrix(1, 0, 0, -1, 474.7764, 95)"/>
<path fill-rule="nonzero" fill="rgb(0%, 0%, 0%)" fill-opacity="1" d="M 420.777344 77 C 420.777344 78.242188 419.769531 79.25 418.527344 79.25 C 417.285156 79.25 416.277344 78.242188 416.277344 77 C 416.277344 75.757812 417.285156 74.75 418.527344 74.75 C 419.769531 74.75 420.777344 75.757812 420.777344 77 "/>
<path fill="none" stroke-width="1" stroke-linecap="butt" stroke-linejoin="miter" stroke="rgb(0%, 0%, 0%)" stroke-opacity="1" stroke-miterlimit="4" d="M 0.00094375 0 C 0.00094375 -1.242188 -1.006869 -2.25 -2.249056 -2.25 C -3.491244 -2.25 -4.499056 -1.242188 -4.499056 0 C -4.499056 1.242188 -3.491244 2.25 -2.249056 2.25 C -1.006869 2.25 0.00094375 1.242188 0.00094375 0 Z M 0.00094375 0 " transform="matrix(1, 0, 0, -1, 420.7764, 77)"/>
<g clip-path="url(#clip-1)">
<path fill="none" stroke-width="2" stroke-linecap="butt" stroke-linejoin="miter" stroke="rgb(0%, 0%, 0%)" stroke-opacity="1" stroke-miterlimit="4" d="M 0.00094375 0 L 9.000944 -18 " transform="matrix(1, 0, 0, -1, 499.5264, 131)"/>
</g>
<path fill="none" stroke-width="2" stroke-linecap="butt" stroke-linejoin="miter" stroke="rgb(0%, 0%, 0%)" stroke-opacity="1" stroke-dasharray="1" stroke-miterlimit="4" d="M 0.00094375 0 L 9.000944 -9 L 18.000944 -27 " transform="matrix(1, 0, 0, -1, 481.5264, 104)"/>
<path fill="none" stroke-width="2" stroke-linecap="butt" stroke-linejoin="miter" stroke="rgb(0%, 0%, 0%)" stroke-opacity="1" stroke-miterlimit="4" d="M 0.00094375 0 L 18.000944 -18 " transform="matrix(1, 0, 0, -1, 463.5264, 86)"/>
<path fill="none" stroke-width="2" stroke-linecap="butt" stroke-linejoin="miter" stroke="rgb(0%, 0%, 0%)" stroke-opacity="1" stroke-dasharray="1" stroke-miterlimit="4" d="M 0.00094375 0 L 9.000944 0 L 18.000944 -9 " transform="matrix(1, 0, 0, -1, 445.5264, 77)"/>
<path fill="none" stroke-width="2" stroke-linecap="butt" stroke-linejoin="miter" stroke="rgb(0%, 0%, 0%)" stroke-opacity="1" stroke-miterlimit="4" d="M 0.00094375 0 L 18.000944 0 " transform="matrix(1, 0, 0, -1, 427.5264, 77)"/>
<path fill="none" stroke-width="2" stroke-linecap="butt" stroke-linejoin="miter" stroke="rgb(0%, 0%, 0%)" stroke-opacity="1" stroke-dasharray="1" stroke-miterlimit="4" d="M 0.00094375 0 L 9.000944 9 L 18.000944 9 " transform="matrix(1, 0, 0, -1, 409.5264, 86)"/>
<path fill="none" stroke-width="2" stroke-linecap="butt" stroke-linejoin="miter" stroke="rgb(0%, 0%, 0%)" stroke-opacity="1" stroke-miterlimit="4" d="M 0.00094375 0 L 18.000944 18 " transform="matrix(1, 0, 0, -1, 391.5264, 104)"/>
<path fill="none" stroke-width="2" stroke-linecap="butt" stroke-linejoin="miter" stroke="rgb(0%, 0%, 0%)" stroke-opacity="1" stroke-dasharray="1" stroke-miterlimit="4" d="M 0.00094375 0 L 4.500944 4.5 " transform="matrix(1, 0, 0, -1, 387.0264, 108.5)"/>
<path fill="none" stroke-width="2" stroke-linecap="butt" stroke-linejoin="miter" stroke="rgb(0%, 0%, 0%)" stroke-opacity="1" stroke-dasharray="1" stroke-miterlimit="4" d="M 0.00094375 0 L 2.250944 2.25 " transform="matrix(1, 0, 0, -1, 384.7764, 110.75)"/>
<path fill="none" stroke-width="2" stroke-linecap="butt" stroke-linejoin="miter" stroke="rgb(0%, 0%, 0%)" stroke-opacity="1" stroke-dasharray="1" stroke-miterlimit="4" d="M 0.00094375 0 L 9.000944 18 L 11.250944 20.25 " transform="matrix(1, 0, 0, -1, 373.5264, 131)"/>
<path fill="none" stroke-width="2" stroke-linecap="butt" stroke-linejoin="miter" stroke="rgb(0%, 0%, 0%)" stroke-opacity="1" stroke-miterlimit="4" d="M 0.00094375 0 L 9.000944 18 " transform="matrix(1, 0, 0, -1, 364.5264, 149)"/>
<path fill-rule="nonzero" fill="rgb(50%, 50%, 50%)" fill-opacity="1" d="M 375.777344 131 C 375.777344 132.242188 374.769531 133.25 373.527344 133.25 C 372.285156 133.25 371.277344 132.242188 371.277344 131 C 371.277344 129.757812 372.285156 128.75 373.527344 128.75 C 374.769531 128.75 375.777344 129.757812 375.777344 131 "/>
<path fill="none" stroke-width="1" stroke-linecap="butt" stroke-linejoin="miter" stroke="rgb(50%, 50%, 50%)" stroke-opacity="1" stroke-miterlimit="4" d="M 0.00094375 0 C 0.00094375 -1.242188 -1.006869 -2.25 -2.249056 -2.25 C -3.491244 -2.25 -4.499056 -1.242188 -4.499056 0 C -4.499056 1.242188 -3.491244 2.25 -2.249056 2.25 C -1.006869 2.25 0.00094375 1.242188 0.00094375 0 Z M 0.00094375 0 " transform="matrix(1, 0, 0, -1, 375.7764, 131)"/>
<path fill-rule="nonzero" fill="rgb(50%, 50%, 50%)" fill-opacity="1" d="M 393.777344 104 C 393.777344 105.242188 392.769531 106.25 391.527344 106.25 C 390.285156 106.25 389.277344 105.242188 389.277344 104 C 389.277344 102.757812 390.285156 101.75 391.527344 101.75 C 392.769531 101.75 393.777344 102.757812 393.777344 104 "/>
<path fill="none" stroke-width="1" stroke-linecap="butt" stroke-linejoin="miter" stroke="rgb(50%, 50%, 50%)" stroke-opacity="1" stroke-miterlimit="4" d="M 0.00094375 0 C 0.00094375 -1.242188 -1.006869 -2.25 -2.249056 -2.25 C -3.491244 -2.25 -4.499056 -1.242188 -4.499056 0 C -4.499056 1.242188 -3.491244 2.25 -2.249056 2.25 C -1.006869 2.25 0.00094375 1.242188 0.00094375 0 Z M 0.00094375 0 " transform="matrix(1, 0, 0, -1, 393.7764, 104)"/>
<path fill-rule="nonzero" fill="rgb(50%, 50%, 50%)" fill-opacity="1" d="M 411.777344 86 C 411.777344 87.242188 410.769531 88.25 409.527344 88.25 C 408.285156 88.25 407.277344 87.242188 407.277344 86 C 407.277344 84.757812 408.285156 83.75 409.527344 83.75 C 410.769531 83.75 411.777344 84.757812 411.777344 86 "/>
<path fill="none" stroke-width="1" stroke-linecap="butt" stroke-linejoin="miter" stroke="rgb(50%, 50%, 50%)" stroke-opacity="1" stroke-miterlimit="4" d="M 0.00094375 0 C 0.00094375 -1.242188 -1.006869 -2.25 -2.249056 -2.25 C -3.491244 -2.25 -4.499056 -1.242188 -4.499056 0 C -4.499056 1.242188 -3.491244 2.25 -2.249056 2.25 C -1.006869 2.25 0.00094375 1.242188 0.00094375 0 Z M 0.00094375 0 " transform="matrix(1, 0, 0, -1, 411.7764, 86)"/>
<path fill-rule="nonzero" fill="rgb(50%, 50%, 50%)" fill-opacity="1" d="M 429.777344 77 C 429.777344 78.242188 428.769531 79.25 427.527344 79.25 C 426.285156 79.25 425.277344 78.242188 425.277344 77 C 425.277344 75.757812 426.285156 74.75 427.527344 74.75 C 428.769531 74.75 429.777344 75.757812 429.777344 77 "/>
<path fill="none" stroke-width="1" stroke-linecap="butt" stroke-linejoin="miter" stroke="rgb(50%, 50%, 50%)" stroke-opacity="1" stroke-miterlimit="4" d="M 0.00094375 0 C 0.00094375 -1.242188 -1.006869 -2.25 -2.249056 -2.25 C -3.491244 -2.25 -4.499056 -1.242188 -4.499056 0 C -4.499056 1.242188 -3.491244 2.25 -2.249056 2.25 C -1.006869 2.25 0.00094375 1.242188 0.00094375 0 Z M 0.00094375 0 " transform="matrix(1, 0, 0, -1, 429.7764, 77)"/>
<path fill-rule="nonzero" fill="rgb(50%, 50%, 50%)" fill-opacity="1" d="M 447.777344 77 C 447.777344 78.242188 446.769531 79.25 445.527344 79.25 C 444.285156 79.25 443.277344 78.242188 443.277344 77 C 443.277344 75.757812 444.285156 74.75 445.527344 74.75 C 446.769531 74.75 447.777344 75.757812 447.777344 77 "/>
<path fill="none" stroke-width="1" stroke-linecap="butt" stroke-linejoin="miter" stroke="rgb(50%, 50%, 50%)" stroke-opacity="1" stroke-miterlimit="4" d="M 0.00094375 0 C 0.00094375 -1.242188 -1.006869 -2.25 -2.249056 -2.25 C -3.491244 -2.25 -4.499056 -1.242188 -4.499056 0 C -4.499056 1.242188 -3.491244 2.25 -2.249056 2.25 C -1.006869 2.25 0.00094375 1.242188 0.00094375 0 Z M 0.00094375 0 " transform="matrix(1, 0, 0, -1, 447.7764, 77)"/>
<path fill-rule="nonzero" fill="rgb(50%, 50%, 50%)" fill-opacity="1" d="M 465.777344 86 C 465.777344 87.242188 464.769531 88.25 463.527344 88.25 C 462.285156 88.25 461.277344 87.242188 461.277344 86 C 461.277344 84.757812 462.285156 83.75 463.527344 83.75 C 464.769531 83.75 465.777344 84.757812 465.777344 86 "/>
<path fill="none" stroke-width="1" stroke-linecap="butt" stroke-linejoin="miter" stroke="rgb(50%, 50%, 50%)" stroke-opacity="1" stroke-miterlimit="4" d="M 0.00094375 0 C 0.00094375 -1.242188 -1.006869 -2.25 -2.249056 -2.25 C -3.491244 -2.25 -4.499056 -1.242188 -4.499056 0 C -4.499056 1.242188 -3.491244 2.25 -2.249056 2.25 C -1.006869 2.25 0.00094375 1.242188 0.00094375 0 Z M 0.00094375 0 " transform="matrix(1, 0, 0, -1, 465.7764, 86)"/>
<path fill-rule="nonzero" fill="rgb(50%, 50%, 50%)" fill-opacity="1" d="M 483.777344 104 C 483.777344 105.242188 482.769531 106.25 481.527344 106.25 C 480.285156 106.25 479.277344 105.242188 479.277344 104 C 479.277344 102.757812 480.285156 101.75 481.527344 101.75 C 482.769531 101.75 483.777344 102.757812 483.777344 104 "/>
<path fill="none" stroke-width="1" stroke-linecap="butt" stroke-linejoin="miter" stroke="rgb(50%, 50%, 50%)" stroke-opacity="1" stroke-miterlimit="4" d="M 0.00094375 0 C 0.00094375 -1.242188 -1.006869 -2.25 -2.249056 -2.25 C -3.491244 -2.25 -4.499056 -1.242188 -4.499056 0 C -4.499056 1.242188 -3.491244 2.25 -2.249056 2.25 C -1.006869 2.25 0.00094375 1.242188 0.00094375 0 Z M 0.00094375 0 " transform="matrix(1, 0, 0, -1, 483.7764, 104)"/>
<path fill-rule="nonzero" fill="rgb(50%, 50%, 50%)" fill-opacity="1" d="M 501.777344 131 C 501.777344 132.242188 500.769531 133.25 499.527344 133.25 C 498.285156 133.25 497.277344 132.242188 497.277344 131 C 497.277344 129.757812 498.285156 128.75 499.527344 128.75 C 500.769531 128.75 501.777344 129.757812 501.777344 131 "/>
<path fill="none" stroke-width="1" stroke-linecap="butt" stroke-linejoin="miter" stroke="rgb(50%, 50%, 50%)" stroke-opacity="1" stroke-miterlimit="4" d="M 0.00094375 0 C 0.00094375 -1.242188 -1.006869 -2.25 -2.249056 -2.25 C -3.491244 -2.25 -4.499056 -1.242188 -4.499056 0 C -4.499056 1.242188 -3.491244 2.25 -2.249056 2.25 C -1.006869 2.25 0.00094375 1.242188 0.00094375 0 Z M 0.00094375 0 " transform="matrix(1, 0, 0, -1, 501.7764, 131)"/>
<path fill="none" stroke-width="2" stroke-linecap="butt" stroke-linejoin="miter" stroke="rgb(50%, 50%, 50%)" stroke-opacity="1" stroke-miterlimit="4" d="M 0.00094375 0 L 18.000944 27 " transform="matrix(1, 0, 0, -1, 373.5264, 131)"/>
<path fill="none" stroke-width="2" stroke-linecap="butt" stroke-linejoin="miter" stroke="rgb(50%, 50%, 50%)" stroke-opacity="1" stroke-miterlimit="4" d="M 0.00094375 0 L 18.000944 9 " transform="matrix(1, 0, 0, -1, 409.5264, 86)"/>
<path fill="none" stroke-width="2" stroke-linecap="butt" stroke-linejoin="miter" stroke="rgb(50%, 50%, 50%)" stroke-opacity="1" stroke-miterlimit="4" d="M 0.00094375 0 L 18.000944 -9 " transform="matrix(1, 0, 0, -1, 445.5264, 77)"/>
<path fill="none" stroke-width="2" stroke-linecap="butt" stroke-linejoin="miter" stroke="rgb(50%, 50%, 50%)" stroke-opacity="1" stroke-miterlimit="4" d="M 0.00094375 0 L 18.000944 -27 " transform="matrix(1, 0, 0, -1, 481.5264, 104)"/>
<path fill="none" stroke-width="1" stroke-linecap="butt" stroke-linejoin="miter" stroke="rgb(0%, 0%, 0%)" stroke-opacity="1" stroke-miterlimit="4" d="M 0 0 L 0 -49.5 " transform="matrix(1, 0, 0, -1, 77, 9.5)"/>
<path fill-rule="nonzero" fill="rgb(0%, 0%, 0%)" fill-opacity="1" d="M 77 66.058594 L 72.933594 56.113281 L 77 58.472656 L 81.0625 56.113281 Z M 77 66.058594 "/>
<path fill-rule="nonzero" fill="rgb(100%, 100%, 100%)" fill-opacity="1" d="M 384.777344 117.5 C 384.777344 118.742188 383.769531 119.75 382.527344 119.75 C 381.285156 119.75 380.277344 118.742188 380.277344 117.5 C 380.277344 116.257812 381.285156 115.25 382.527344 115.25 C 383.769531 115.25 384.777344 116.257812 384.777344 117.5 "/>
<path fill="none" stroke-width="1" stroke-linecap="butt" stroke-linejoin="miter" stroke="rgb(0%, 0%, 0%)" stroke-opacity="1" stroke-miterlimit="4" d="M 0.00094375 0 C 0.00094375 -1.242188 -1.006869 -2.25 -2.249056 -2.25 C -3.491244 -2.25 -4.499056 -1.242188 -4.499056 0 C -4.499056 1.242188 -3.491244 2.25 -2.249056 2.25 C -1.006869 2.25 0.00094375 1.242188 0.00094375 0 Z M 0.00094375 0 " transform="matrix(1, 0, 0, -1, 384.7764, 117.5)"/>
<path fill-rule="nonzero" fill="rgb(100%, 100%, 100%)" fill-opacity="1" d="M 420.777344 81.5 C 420.777344 82.742188 419.769531 83.75 418.527344 83.75 C 417.285156 83.75 416.277344 82.742188 416.277344 81.5 C 416.277344 80.257812 417.285156 79.25 418.527344 79.25 C 419.769531 79.25 420.777344 80.257812 420.777344 81.5 "/>
<path fill="none" stroke-width="1" stroke-linecap="butt" stroke-linejoin="miter" stroke="rgb(0%, 0%, 0%)" stroke-opacity="1" stroke-miterlimit="4" d="M 0.00094375 0 C 0.00094375 -1.242188 -1.006869 -2.25 -2.249056 -2.25 C -3.491244 -2.25 -4.499056 -1.242188 -4.499056 0 C -4.499056 1.242188 -3.491244 2.25 -2.249056 2.25 C -1.006869 2.25 0.00094375 1.242188 0.00094375 0 Z M 0.00094375 0 " transform="matrix(1, 0, 0, -1, 420.7764, 81.5)"/>
<path fill-rule="nonzero" fill="rgb(100%, 100%, 100%)" fill-opacity="1" d="M 456.777344 81.5 C 456.777344 82.742188 455.769531 83.75 454.527344 83.75 C 453.285156 83.75 452.277344 82.742188 452.277344 81.5 C 452.277344 80.257812 453.285156 79.25 454.527344 79.25 C 455.769531 79.25 456.777344 80.257812 456.777344 81.5 "/>
<path fill="none" stroke-width="1" stroke-linecap="butt" stroke-linejoin="miter" stroke="rgb(0%, 0%, 0%)" stroke-opacity="1" stroke-miterlimit="4" d="M 0.00094375 0 C 0.00094375 -1.242188 -1.006869 -2.25 -2.249056 -2.25 C -3.491244 -2.25 -4.499056 -1.242188 -4.499056 0 C -4.499056 1.242188 -3.491244 2.25 -2.249056 2.25 C -1.006869 2.25 0.00094375 1.242188 0.00094375 0 Z M 0.00094375 0 " transform="matrix(1, 0, 0, -1, 456.7764, 81.5)"/>
<path fill-rule="nonzero" fill="rgb(100%, 100%, 100%)" fill-opacity="1" d="M 492.777344 117.5 C 492.777344 118.742188 491.769531 119.75 490.527344 119.75 C 489.285156 119.75 488.277344 118.742188 488.277344 117.5 C 488.277344 116.257812 489.285156 115.25 490.527344 115.25 C 491.769531 115.25 492.777344 116.257812 492.777344 117.5 "/>
<path fill="none" stroke-width="1" stroke-linecap="butt" stroke-linejoin="miter" stroke="rgb(0%, 0%, 0%)" stroke-opacity="1" stroke-miterlimit="4" d="M 0.00094375 0 C 0.00094375 -1.242188 -1.006869 -2.25 -2.249056 -2.25 C -3.491244 -2.25 -4.499056 -1.242188 -4.499056 0 C -4.499056 1.242188 -3.491244 2.25 -2.249056 2.25 C -1.006869 2.25 0.00094375 1.242188 0.00094375 0 Z M 0.00094375 0 " transform="matrix(1, 0, 0, -1, 492.7764, 117.5)"/>
</svg>
