<?xml version="1.0" encoding="UTF-8"?>
<svg xmlns="http://www.w3.org/2000/svg" xmlns:xlink="http://www.w3.org/1999/xlink" width="469pt" height="163pt" viewBox="0 0 469 163">
<path fill="none" stroke-width="1" stroke-linecap="butt" stroke-linejoin="miter" stroke="rgb(13.729858%, 12.159729%, 12.548828%)" stroke-opacity="1" stroke-miterlimit="4" d="M 0.5 0.5 L 72.5 0.5 L 72.5 72.5 L 0.5 72.5 Z M 0.5 0.5 " transform="matrix(1, 0, 0, -1, 0, 163)"/>
<path fill="none" stroke-width="1" stroke-linecap="butt" stroke-linejoin="miter" stroke="rgb(78.431702%, 78.039551%, 78.137207%)" stroke-opacity="1" stroke-miterlimit="4" d="M 0 0 L -4 -4 " transform="matrix(1, 0, 0, -1, 20.5, 142.5)"/>
<path fill="none" stroke-width="1" stroke-linecap="butt" stroke-linejoin="miter" stroke="rgb(78.431702%, 78.039551%, 78.137207%)" stroke-opacity="1" stroke-miterlimit="4" d="M 0 0 L 4 -4 " transform="matrix(1, 0, 0, -1, 16.5, 142.5)"/>
<path fill="none" stroke-width="1" stroke-linecap="butt" stroke-linejoin="miter" stroke="rgb(78.431702%, 78.039551%, 78.137207%)" stroke-opacity="1" stroke-miterlimit="4" d="M 0 0 L -4 -4 " transform="matrix(1, 0, 0, -1, 20.5, 106.5)"/>
<path fill="none" stroke-width="1" stroke-linecap="butt" stroke-linejoin="miter" stroke="rgb(78.431702%, 78.039551%, 78.137207%)" stroke-opacity="1" stroke-miterlimit="4" d="M 0 0 L 4 -4 " transform="matrix(1, 0, 0, -1, 16.5, 106.5)"/>
<path fill="none" stroke-width="1" stroke-linecap="butt" stroke-linejoin="miter" stroke="rgb(78.431702%, 78.039551%, 78.137207%)" stroke-opacity="1" stroke-miterlimit="4" d="M 0 0 L -4 -4 " transform="matrix(1, 0, 0, -1, 56.5, 106.5)"/>
<path fill="none" stroke-width="1" stroke-linecap="butt" stroke-linejoin="miter" stroke="rgb(78.431702%, 78.039551%, 78.137207%)" stroke-opacity="1" stroke-miterlimit="4" d="M 0 0 L 4 -4 " transform="matrix(1, 0, 0, -1, 52.5, 106.5)"/>
<path fill="none" stroke-width="1" stroke-linecap="butt" stroke-linejoin="miter" stroke="rgb(78.431702%, 78.039551%, 78.137207%)" stroke-opacity="1" stroke-miterlimit="4" d="M 0 0 L 0 36 L 36 36 " transform="matrix(1, 0, 0, -1, 18.5, 144.5)"/>
<path fill="none" stroke-width="1" stroke-linecap="butt" stroke-linejoin="miter" stroke="rgb(13.729858%, 12.159729%, 12.548828%)" stroke-opacity="1" stroke-miterlimit="4" d="M 0.5 90.5 L 72.5 90.5 L 72.5 162.5 L 0.5 162.5 Z M 0.5 90.5 " transform="matrix(1, 0, 0, -1, 0, 163)"/>
<path fill="none" stroke-width="1" stroke-linecap="butt" stroke-linejoin="miter" stroke="rgb(78.431702%, 78.039551%, 78.137207%)" stroke-opacity="1" stroke-miterlimit="4" d="M 0 0 L -4 -4 " transform="matrix(1, 0, 0, -1, 20.5, 52.5)"/>
<path fill="none" stroke-width="1" stroke-linecap="butt" stroke-linejoin="miter" stroke="rgb(78.431702%, 78.039551%, 78.137207%)" stroke-opacity="1" stroke-miterlimit="4" d="M 0 0 L 4 -4 " transform="matrix(1, 0, 0, -1, 16.5, 52.5)"/>
<path fill="none" stroke-width="1" stroke-linecap="butt" stroke-linejoin="miter" stroke="rgb(78.431702%, 78.039551%, 78.137207%)" stroke-opacity="1" stroke-miterlimit="4" d="M 0 0 L -4 -4 " transform="matrix(1, 0, 0, -1, 38.5, 16.5)"/>
<path fill="none" stroke-width="1" stroke-linecap="butt" stroke-linejoin="miter" stroke="rgb(78.431702%, 78.039551%, 78.137207%)" stroke-opacity="1" stroke-miterlimit="4" d="M 0 0 L 4 -4 " transform="matrix(1, 0, 0, -1, 34.5, 16.5)"/>
<path fill="none" stroke-width="1" stroke-linecap="butt" stroke-linejoin="miter" stroke="rgb(78.431702%, 78.039551%, 78.137207%)" stroke-opacity="1" stroke-miterlimit="4" d="M 0 0 L -4 -4 " transform="matrix(1, 0, 0, -1, 56.5, 52.5)"/>
<path fill="none" stroke-width="1" stroke-linecap="butt" stroke-linejoin="miter" stroke="rgb(78.431702%, 78.039551%, 78.137207%)" stroke-opacity="1" stroke-miterlimit="4" d="M 0 0 L 4 -4 " transform="matrix(1, 0, 0, -1, 52.5, 52.5)"/>
<path fill="none" stroke-width="1" stroke-linecap="butt" stroke-linejoin="miter" stroke="rgb(78.431702%, 78.039551%, 78.137207%)" stroke-opacity="1" stroke-miterlimit="4" d="M 0 0 L 18 36 L 36 0 " transform="matrix(1, 0, 0, -1, 18.5, 54.5)"/>
<path fill="none" stroke-width="1" stroke-linecap="butt" stroke-linejoin="miter" stroke="rgb(13.729858%, 12.159729%, 12.548828%)" stroke-opacity="1" stroke-miterlimit="4" d="M 99.5 0.5 L 171.5 0.5 L 171.5 72.5 L 99.5 72.5 Z M 99.5 0.5 " transform="matrix(1, 0, 0, -1, 0, 163)"/>
<path fill="none" stroke-width="1" stroke-linecap="butt" stroke-linejoin="miter" stroke="rgb(78.431702%, 78.039551%, 78.137207%)" stroke-opacity="1" stroke-miterlimit="4" d="M 0 0 L -4 -4 " transform="matrix(1, 0, 0, -1, 119.5, 142.5)"/>
<path fill="none" stroke-width="1" stroke-linecap="butt" stroke-linejoin="miter" stroke="rgb(78.431702%, 78.039551%, 78.137207%)" stroke-opacity="1" stroke-miterlimit="4" d="M 0 0 L 4 -4 " transform="matrix(1, 0, 0, -1, 115.5, 142.5)"/>
<path fill="none" stroke-width="1" stroke-linecap="butt" stroke-linejoin="miter" stroke="rgb(78.431702%, 78.039551%, 78.137207%)" stroke-opacity="1" stroke-miterlimit="4" d="M 0 0 L -4 -4 " transform="matrix(1, 0, 0, -1, 119.5, 106.5)"/>
<path fill="none" stroke-width="1" stroke-linecap="butt" stroke-linejoin="miter" stroke="rgb(78.431702%, 78.039551%, 78.137207%)" stroke-opacity="1" stroke-miterlimit="4" d="M 0 0 L 4 -4 " transform="matrix(1, 0, 0, -1, 115.5, 106.5)"/>
<path fill="none" stroke-width="1" stroke-linecap="butt" stroke-linejoin="miter" stroke="rgb(78.431702%, 78.039551%, 78.137207%)" stroke-opacity="1" stroke-miterlimit="4" d="M 0 0 L -4 -4 " transform="matrix(1, 0, 0, -1, 155.5, 106.5)"/>
<path fill="none" stroke-width="1" stroke-linecap="butt" stroke-linejoin="miter" stroke="rgb(78.431702%, 78.039551%, 78.137207%)" stroke-opacity="1" stroke-miterlimit="4" d="M 0 0 L 4 -4 " transform="matrix(1, 0, 0, -1, 151.5, 106.5)"/>
<path fill="none" stroke-width="1" stroke-linecap="butt" stroke-linejoin="miter" stroke="rgb(78.431702%, 78.039551%, 78.137207%)" stroke-opacity="1" stroke-miterlimit="4" d="M 0 0 L -4 -4 " transform="matrix(1, 0, 0, -1, 155.5, 142.5)"/>
<path fill="none" stroke-width="1" stroke-linecap="butt" stroke-linejoin="miter" stroke="rgb(78.431702%, 78.039551%, 78.137207%)" stroke-opacity="1" stroke-miterlimit="4" d="M 0 0 L 4 -4 " transform="matrix(1, 0, 0, -1, 151.5, 142.5)"/>
<path fill="none" stroke-width="1" stroke-linecap="butt" stroke-linejoin="miter" stroke="rgb(78.431702%, 78.039551%, 78.137207%)" stroke-opacity="1" stroke-miterlimit="4" d="M 0 0 L 0 36 L 36 36 L 36 0 " transform="matrix(1, 0, 0, -1, 117.5, 144.5)"/>
<path fill="none" stroke-width="1" stroke-linecap="butt" stroke-linejoin="miter" stroke="rgb(13.729858%, 12.159729%, 12.548828%)" stroke-opacity="1" stroke-miterlimit="4" d="M 99.5 90.5 L 171.5 90.5 L 171.5 162.5 L 99.5 162.5 Z M 99.5 90.5 " transform="matrix(1, 0, 0, -1, 0, 163)"/>
<path fill="none" stroke-width="1" stroke-linecap="butt" stroke-linejoin="miter" stroke="rgb(78.431702%, 78.039551%, 78.137207%)" stroke-opacity="1" stroke-miterlimit="4" d="M 0 0 L -4 -4 " transform="matrix(1, 0, 0, -1, 119.5, 52.5)"/>
<path fill="none" stroke-width="1" stroke-linecap="butt" stroke-linejoin="miter" stroke="rgb(78.431702%, 78.039551%, 78.137207%)" stroke-opacity="1" stroke-miterlimit="4" d="M 0 0 L 4 -4 " transform="matrix(1, 0, 0, -1, 115.5, 52.5)"/>
<path fill="none" stroke-width="1" stroke-linecap="butt" stroke-linejoin="miter" stroke="rgb(78.431702%, 78.039551%, 78.137207%)" stroke-opacity="1" stroke-miterlimit="4" d="M -0.00099375 0 L -4.000994 -4 " transform="matrix(1, 0, 0, -1, 131.3799, 16.5)"/>
<path fill="none" stroke-width="1" stroke-linecap="butt" stroke-linejoin="miter" stroke="rgb(78.431702%, 78.039551%, 78.137207%)" stroke-opacity="1" stroke-miterlimit="4" d="M -0.00099375 0 L 3.999006 -4 " transform="matrix(1, 0, 0, -1, 127.3799, 16.5)"/>
<path fill="none" stroke-width="1" stroke-linecap="butt" stroke-linejoin="miter" stroke="rgb(78.431702%, 78.039551%, 78.137207%)" stroke-opacity="1" stroke-miterlimit="4" d="M 0.00099375 0 L -3.999006 -4 " transform="matrix(1, 0, 0, -1, 143.6201, 52.5)"/>
<path fill="none" stroke-width="1" stroke-linecap="butt" stroke-linejoin="miter" stroke="rgb(78.431702%, 78.039551%, 78.137207%)" stroke-opacity="1" stroke-miterlimit="4" d="M 0.00099375 0 L 4.000994 -4 " transform="matrix(1, 0, 0, -1, 139.6201, 52.5)"/>
<path fill="none" stroke-width="1" stroke-linecap="butt" stroke-linejoin="miter" stroke="rgb(78.431702%, 78.039551%, 78.137207%)" stroke-opacity="1" stroke-miterlimit="4" d="M 0 0 L -4 -4 " transform="matrix(1, 0, 0, -1, 155.5, 16.5)"/>
<path fill="none" stroke-width="1" stroke-linecap="butt" stroke-linejoin="miter" stroke="rgb(78.431702%, 78.039551%, 78.137207%)" stroke-opacity="1" stroke-miterlimit="4" d="M 0 0 L 4 -4 " transform="matrix(1, 0, 0, -1, 151.5, 16.5)"/>
<path fill="none" stroke-width="1" stroke-linecap="butt" stroke-linejoin="miter" stroke="rgb(78.431702%, 78.039551%, 78.137207%)" stroke-opacity="1" stroke-miterlimit="4" d="M 0 0 L 11.878906 36 L 24.121094 0 L 36 36 " transform="matrix(1, 0, 0, -1, 117.5, 54.5)"/>
<path fill="none" stroke-width="1" stroke-linecap="butt" stroke-linejoin="miter" stroke="rgb(13.729858%, 12.159729%, 12.548828%)" stroke-opacity="1" stroke-miterlimit="4" d="M 198.5 0.5 L 270.5 0.5 L 270.5 72.5 L 198.5 72.5 Z M 198.5 0.5 " transform="matrix(1, 0, 0, -1, 0, 163)"/>
<path fill="none" stroke-width="1" stroke-linecap="butt" stroke-linejoin="miter" stroke="rgb(78.431702%, 78.039551%, 78.137207%)" stroke-opacity="1" stroke-miterlimit="4" d="M 0 0 L -4 -4 " transform="matrix(1, 0, 0, -1, 218.5, 142.5)"/>
<path fill="none" stroke-width="1" stroke-linecap="butt" stroke-linejoin="miter" stroke="rgb(78.431702%, 78.039551%, 78.137207%)" stroke-opacity="1" stroke-miterlimit="4" d="M 0 0 L 4 -4 " transform="matrix(1, 0, 0, -1, 214.5, 142.5)"/>
<path fill="none" stroke-width="1" stroke-linecap="butt" stroke-linejoin="miter" stroke="rgb(78.431702%, 78.039551%, 78.137207%)" stroke-opacity="1" stroke-miterlimit="4" d="M 0 0 L -4 -4 " transform="matrix(1, 0, 0, -1, 218.5, 124.5)"/>
<path fill="none" stroke-width="1" stroke-linecap="butt" stroke-linejoin="miter" stroke="rgb(78.431702%, 78.039551%, 78.137207%)" stroke-opacity="1" stroke-miterlimit="4" d="M 0 0 L 4 -4 " transform="matrix(1, 0, 0, -1, 214.5, 124.5)"/>
<path fill="none" stroke-width="1" stroke-linecap="butt" stroke-linejoin="miter" stroke="rgb(78.431702%, 78.039551%, 78.137207%)" stroke-opacity="1" stroke-miterlimit="4" d="M 0 0 L -4 -4 " transform="matrix(1, 0, 0, -1, 236.5, 106.5)"/>
<path fill="none" stroke-width="1" stroke-linecap="butt" stroke-linejoin="miter" stroke="rgb(78.431702%, 78.039551%, 78.137207%)" stroke-opacity="1" stroke-miterlimit="4" d="M 0 0 L 4 -4 " transform="matrix(1, 0, 0, -1, 232.5, 106.5)"/>
<path fill="none" stroke-width="1" stroke-linecap="butt" stroke-linejoin="miter" stroke="rgb(78.431702%, 78.039551%, 78.137207%)" stroke-opacity="1" stroke-miterlimit="4" d="M 0 0 L -4 -4 " transform="matrix(1, 0, 0, -1, 254.5, 124.5)"/>
<path fill="none" stroke-width="1" stroke-linecap="butt" stroke-linejoin="miter" stroke="rgb(78.431702%, 78.039551%, 78.137207%)" stroke-opacity="1" stroke-miterlimit="4" d="M 0 0 L 4 -4 " transform="matrix(1, 0, 0, -1, 250.5, 124.5)"/>
<path fill="none" stroke-width="1" stroke-linecap="butt" stroke-linejoin="miter" stroke="rgb(78.431702%, 78.039551%, 78.137207%)" stroke-opacity="1" stroke-miterlimit="4" d="M 0 0 L -4 -4 " transform="matrix(1, 0, 0, -1, 254.5, 142.5)"/>
<path fill="none" stroke-width="1" stroke-linecap="butt" stroke-linejoin="miter" stroke="rgb(78.431702%, 78.039551%, 78.137207%)" stroke-opacity="1" stroke-miterlimit="4" d="M 0 0 L 4 -4 " transform="matrix(1, 0, 0, -1, 250.5, 142.5)"/>
<path fill="none" stroke-width="1" stroke-linecap="butt" stroke-linejoin="miter" stroke="rgb(78.431702%, 78.039551%, 78.137207%)" stroke-opacity="1" stroke-miterlimit="4" d="M 0 0 L 0 18 L 18 36 L 36 18 L 36 0 " transform="matrix(1, 0, 0, -1, 216.5, 144.5)"/>
<path fill="none" stroke-width="1" stroke-linecap="butt" stroke-linejoin="miter" stroke="rgb(13.729858%, 12.159729%, 12.548828%)" stroke-opacity="1" stroke-miterlimit="4" d="M 198.5 90.5 L 270.5 90.5 L 270.5 162.5 L 198.5 162.5 Z M 198.5 90.5 " transform="matrix(1, 0, 0, -1, 0, 163)"/>
<path fill="none" stroke-width="1" stroke-linecap="butt" stroke-linejoin="miter" stroke="rgb(78.431702%, 78.039551%, 78.137207%)" stroke-opacity="1" stroke-miterlimit="4" d="M 0 0 L -4 -4 " transform="matrix(1, 0, 0, -1, 218.5, 52.5)"/>
<path fill="none" stroke-width="1" stroke-linecap="butt" stroke-linejoin="miter" stroke="rgb(78.431702%, 78.039551%, 78.137207%)" stroke-opacity="1" stroke-miterlimit="4" d="M 0 0 L 4 -4 " transform="matrix(1, 0, 0, -1, 214.5, 52.5)"/>
<path fill="none" stroke-width="1" stroke-linecap="butt" stroke-linejoin="miter" stroke="rgb(78.431702%, 78.039551%, 78.137207%)" stroke-opacity="1" stroke-miterlimit="4" d="M 0 0 L -4 -4 " transform="matrix(1, 0, 0, -1, 227.5, 16.5)"/>
<path fill="none" stroke-width="1" stroke-linecap="butt" stroke-linejoin="miter" stroke="rgb(78.431702%, 78.039551%, 78.137207%)" stroke-opacity="1" stroke-miterlimit="4" d="M 0 0 L 4 -4 " transform="matrix(1, 0, 0, -1, 223.5, 16.5)"/>
<path fill="none" stroke-width="1" stroke-linecap="butt" stroke-linejoin="miter" stroke="rgb(78.431702%, 78.039551%, 78.137207%)" stroke-opacity="1" stroke-miterlimit="4" d="M 0 0 L -4 -4 " transform="matrix(1, 0, 0, -1, 236.5, 52.5)"/>
<path fill="none" stroke-width="1" stroke-linecap="butt" stroke-linejoin="miter" stroke="rgb(78.431702%, 78.039551%, 78.137207%)" stroke-opacity="1" stroke-miterlimit="4" d="M 0 0 L 4 -4 " transform="matrix(1, 0, 0, -1, 232.5, 52.5)"/>
<path fill="none" stroke-width="1" stroke-linecap="butt" stroke-linejoin="miter" stroke="rgb(78.431702%, 78.039551%, 78.137207%)" stroke-opacity="1" stroke-miterlimit="4" d="M 0 0 L -4 -4 " transform="matrix(1, 0, 0, -1, 245.5, 16.5)"/>
<path fill="none" stroke-width="1" stroke-linecap="butt" stroke-linejoin="miter" stroke="rgb(78.431702%, 78.039551%, 78.137207%)" stroke-opacity="1" stroke-miterlimit="4" d="M 0 0 L 4 -4 " transform="matrix(1, 0, 0, -1, 241.5, 16.5)"/>
<path fill="none" stroke-width="1" stroke-linecap="butt" stroke-linejoin="miter" stroke="rgb(78.431702%, 78.039551%, 78.137207%)" stroke-opacity="1" stroke-miterlimit="4" d="M 0 0 L -4 -4 " transform="matrix(1, 0, 0, -1, 254.5, 52.5)"/>
<path fill="none" stroke-width="1" stroke-linecap="butt" stroke-linejoin="miter" stroke="rgb(78.431702%, 78.039551%, 78.137207%)" stroke-opacity="1" stroke-miterlimit="4" d="M 0 0 L 4 -4 " transform="matrix(1, 0, 0, -1, 250.5, 52.5)"/>
<path fill="none" stroke-width="1" stroke-linecap="butt" stroke-linejoin="miter" stroke="rgb(78.431702%, 78.039551%, 78.137207%)" stroke-opacity="1" stroke-miterlimit="4" d="M 0 0 L 9 36 L 18 0 L 27 36 L 36 0 " transform="matrix(1, 0, 0, -1, 216.5, 54.5)"/>
<path fill="none" stroke-width="1" stroke-linecap="butt" stroke-linejoin="miter" stroke="rgb(13.729858%, 12.159729%, 12.548828%)" stroke-opacity="1" stroke-miterlimit="4" d="M 297.5 0.5 L 369.5 0.5 L 369.5 72.5 L 297.5 72.5 Z M 297.5 0.5 " transform="matrix(1, 0, 0, -1, 0, 163)"/>
<path fill="none" stroke-width="1" stroke-linecap="butt" stroke-linejoin="miter" stroke="rgb(78.431702%, 78.039551%, 78.137207%)" stroke-opacity="1" stroke-miterlimit="4" d="M 0 0 L -4 -4 " transform="matrix(1, 0, 0, -1, 317.5, 142.5)"/>
<path fill="none" stroke-width="1" stroke-linecap="butt" stroke-linejoin="miter" stroke="rgb(78.431702%, 78.039551%, 78.137207%)" stroke-opacity="1" stroke-miterlimit="4" d="M 0 0 L 4 -4 " transform="matrix(1, 0, 0, -1, 313.5, 142.5)"/>
<path fill="none" stroke-width="1" stroke-linecap="butt" stroke-linejoin="miter" stroke="rgb(78.431702%, 78.039551%, 78.137207%)" stroke-opacity="1" stroke-miterlimit="4" d="M 0 0 L -4 -4 " transform="matrix(1, 0, 0, -1, 317.5, 124.5)"/>
<path fill="none" stroke-width="1" stroke-linecap="butt" stroke-linejoin="miter" stroke="rgb(78.431702%, 78.039551%, 78.137207%)" stroke-opacity="1" stroke-miterlimit="4" d="M 0 0 L 4 -4 " transform="matrix(1, 0, 0, -1, 313.5, 124.5)"/>
<path fill="none" stroke-width="1" stroke-linecap="butt" stroke-linejoin="miter" stroke="rgb(78.431702%, 78.039551%, 78.137207%)" stroke-opacity="1" stroke-miterlimit="4" d="M 0 0 L -4 -4 " transform="matrix(1, 0, 0, -1, 326.5, 106.5)"/>
<path fill="none" stroke-width="1" stroke-linecap="butt" stroke-linejoin="miter" stroke="rgb(78.431702%, 78.039551%, 78.137207%)" stroke-opacity="1" stroke-miterlimit="4" d="M 0 0 L 4 -4 " transform="matrix(1, 0, 0, -1, 322.5, 106.5)"/>
<path fill="none" stroke-width="1" stroke-linecap="butt" stroke-linejoin="miter" stroke="rgb(78.431702%, 78.039551%, 78.137207%)" stroke-opacity="1" stroke-miterlimit="4" d="M 0 0 L -4 -4 " transform="matrix(1, 0, 0, -1, 344.5, 106.5)"/>
<path fill="none" stroke-width="1" stroke-linecap="butt" stroke-linejoin="miter" stroke="rgb(78.431702%, 78.039551%, 78.137207%)" stroke-opacity="1" stroke-miterlimit="4" d="M 0 0 L 4 -4 " transform="matrix(1, 0, 0, -1, 340.5, 106.5)"/>
<path fill="none" stroke-width="1" stroke-linecap="butt" stroke-linejoin="miter" stroke="rgb(78.431702%, 78.039551%, 78.137207%)" stroke-opacity="1" stroke-miterlimit="4" d="M 0 0 L -4 -4 " transform="matrix(1, 0, 0, -1, 353.5, 124.5)"/>
<path fill="none" stroke-width="1" stroke-linecap="butt" stroke-linejoin="miter" stroke="rgb(78.431702%, 78.039551%, 78.137207%)" stroke-opacity="1" stroke-miterlimit="4" d="M 0 0 L 4 -4 " transform="matrix(1, 0, 0, -1, 349.5, 124.5)"/>
<path fill="none" stroke-width="1" stroke-linecap="butt" stroke-linejoin="miter" stroke="rgb(78.431702%, 78.039551%, 78.137207%)" stroke-opacity="1" stroke-miterlimit="4" d="M 0 0 L -4 -4 " transform="matrix(1, 0, 0, -1, 353.5, 142.5)"/>
<path fill="none" stroke-width="1" stroke-linecap="butt" stroke-linejoin="miter" stroke="rgb(78.431702%, 78.039551%, 78.137207%)" stroke-opacity="1" stroke-miterlimit="4" d="M 0 0 L 4 -4 " transform="matrix(1, 0, 0, -1, 349.5, 142.5)"/>
<path fill="none" stroke-width="1" stroke-linecap="butt" stroke-linejoin="miter" stroke="rgb(78.431702%, 78.039551%, 78.137207%)" stroke-opacity="1" stroke-miterlimit="4" d="M 0 0 L 0 18 L 9 36 L 27 36 L 36 18 L 36 0 " transform="matrix(1, 0, 0, -1, 315.5, 144.5)"/>
<path fill="none" stroke-width="1" stroke-linecap="butt" stroke-linejoin="miter" stroke="rgb(13.729858%, 12.159729%, 12.548828%)" stroke-opacity="1" stroke-miterlimit="4" d="M 297.5 90.5 L 369.5 90.5 L 369.5 162.5 L 297.5 162.5 Z M 297.5 90.5 " transform="matrix(1, 0, 0, -1, 0, 163)"/>
<path fill="none" stroke-width="1" stroke-linecap="butt" stroke-linejoin="miter" stroke="rgb(78.431702%, 78.039551%, 78.137207%)" stroke-opacity="1" stroke-miterlimit="4" d="M 0 0 L -4 -4 " transform="matrix(1, 0, 0, -1, 317.5, 52.5)"/>
<path fill="none" stroke-width="1" stroke-linecap="butt" stroke-linejoin="miter" stroke="rgb(78.431702%, 78.039551%, 78.137207%)" stroke-opacity="1" stroke-miterlimit="4" d="M 0 0 L 4 -4 " transform="matrix(1, 0, 0, -1, 313.5, 52.5)"/>
<path fill="none" stroke-width="1" stroke-linecap="butt" stroke-linejoin="miter" stroke="rgb(78.431702%, 78.039551%, 78.137207%)" stroke-opacity="1" stroke-miterlimit="4" d="M -0.00098125 0 L -4.000981 -4 " transform="matrix(1, 0, 0, -1, 324.7002, 16.5)"/>
<path fill="none" stroke-width="1" stroke-linecap="butt" stroke-linejoin="miter" stroke="rgb(78.431702%, 78.039551%, 78.137207%)" stroke-opacity="1" stroke-miterlimit="4" d="M -0.00098125 0 L 3.999019 -4 " transform="matrix(1, 0, 0, -1, 320.7002, 16.5)"/>
<path fill="none" stroke-width="1" stroke-linecap="butt" stroke-linejoin="miter" stroke="rgb(78.431702%, 78.039551%, 78.137207%)" stroke-opacity="1" stroke-miterlimit="4" d="M 0.00194375 0 L -3.998056 -4 " transform="matrix(1, 0, 0, -1, 331.9004, 52.5)"/>
<path fill="none" stroke-width="1" stroke-linecap="butt" stroke-linejoin="miter" stroke="rgb(78.431702%, 78.039551%, 78.137207%)" stroke-opacity="1" stroke-miterlimit="4" d="M 0.00194375 0 L 4.001944 -4 " transform="matrix(1, 0, 0, -1, 327.9004, 52.5)"/>
<path fill="none" stroke-width="1" stroke-linecap="butt" stroke-linejoin="miter" stroke="rgb(78.431702%, 78.039551%, 78.137207%)" stroke-opacity="1" stroke-miterlimit="4" d="M -0.00194375 0 L -4.001944 -4 " transform="matrix(1, 0, 0, -1, 339.0996, 16.5)"/>
<path fill="none" stroke-width="1" stroke-linecap="butt" stroke-linejoin="miter" stroke="rgb(78.431702%, 78.039551%, 78.137207%)" stroke-opacity="1" stroke-miterlimit="4" d="M -0.00194375 0 L 3.998056 -4 " transform="matrix(1, 0, 0, -1, 335.0996, 16.5)"/>
<path fill="none" stroke-width="1" stroke-linecap="butt" stroke-linejoin="miter" stroke="rgb(78.431702%, 78.039551%, 78.137207%)" stroke-opacity="1" stroke-miterlimit="4" d="M 0.00098125 0 L -3.999019 -4 " transform="matrix(1, 0, 0, -1, 346.2998, 52.5)"/>
<path fill="none" stroke-width="1" stroke-linecap="butt" stroke-linejoin="miter" stroke="rgb(78.431702%, 78.039551%, 78.137207%)" stroke-opacity="1" stroke-miterlimit="4" d="M 0.00098125 0 L 4.000981 -4 " transform="matrix(1, 0, 0, -1, 342.2998, 52.5)"/>
<path fill="none" stroke-width="1" stroke-linecap="butt" stroke-linejoin="miter" stroke="rgb(78.431702%, 78.039551%, 78.137207%)" stroke-opacity="1" stroke-miterlimit="4" d="M 0 0 L -4 -4 " transform="matrix(1, 0, 0, -1, 353.5, 16.5)"/>
<path fill="none" stroke-width="1" stroke-linecap="butt" stroke-linejoin="miter" stroke="rgb(78.431702%, 78.039551%, 78.137207%)" stroke-opacity="1" stroke-miterlimit="4" d="M 0 0 L 4 -4 " transform="matrix(1, 0, 0, -1, 349.5, 16.5)"/>
<path fill="none" stroke-width="1" stroke-linecap="butt" stroke-linejoin="miter" stroke="rgb(78.431702%, 78.039551%, 78.137207%)" stroke-opacity="1" stroke-miterlimit="4" d="M 0 0 L 7.199219 36 L 14.398438 0 L 21.601562 36 L 28.800781 0 L 36 36 " transform="matrix(1, 0, 0, -1, 315.5, 54.5)"/>
<path fill="none" stroke-width="1" stroke-linecap="butt" stroke-linejoin="miter" stroke="rgb(13.729858%, 12.159729%, 12.548828%)" stroke-opacity="1" stroke-miterlimit="4" d="M 396.5 0.5 L 468.5 0.5 L 468.5 72.5 L 396.5 72.5 Z M 396.5 0.5 " transform="matrix(1, 0, 0, -1, 0, 163)"/>
<path fill="none" stroke-width="1" stroke-linecap="butt" stroke-linejoin="miter" stroke="rgb(78.431702%, 78.039551%, 78.137207%)" stroke-opacity="1" stroke-miterlimit="4" d="M 0 0 L -4 -4 " transform="matrix(1, 0, 0, -1, 416.5, 142.5)"/>
<path fill="none" stroke-width="1" stroke-linecap="butt" stroke-linejoin="miter" stroke="rgb(78.431702%, 78.039551%, 78.137207%)" stroke-opacity="1" stroke-miterlimit="4" d="M 0 0 L 4 -4 " transform="matrix(1, 0, 0, -1, 412.5, 142.5)"/>
<path fill="none" stroke-width="1" stroke-linecap="butt" stroke-linejoin="miter" stroke="rgb(78.431702%, 78.039551%, 78.137207%)" stroke-opacity="1" stroke-miterlimit="4" d="M 0 0 L -4 -4 " transform="matrix(1, 0, 0, -1, 416.5, 124.5)"/>
<path fill="none" stroke-width="1" stroke-linecap="butt" stroke-linejoin="miter" stroke="rgb(78.431702%, 78.039551%, 78.137207%)" stroke-opacity="1" stroke-miterlimit="4" d="M 0 0 L 4 -4 " transform="matrix(1, 0, 0, -1, 412.5, 124.5)"/>
<path fill="none" stroke-width="1" stroke-linecap="butt" stroke-linejoin="miter" stroke="rgb(78.431702%, 78.039551%, 78.137207%)" stroke-opacity="1" stroke-miterlimit="4" d="M 0 0 L -4 -4 " transform="matrix(1, 0, 0, -1, 425.5, 106.5)"/>
<path fill="none" stroke-width="1" stroke-linecap="butt" stroke-linejoin="miter" stroke="rgb(78.431702%, 78.039551%, 78.137207%)" stroke-opacity="1" stroke-miterlimit="4" d="M 0 0 L 4 -4 " transform="matrix(1, 0, 0, -1, 421.5, 106.5)"/>
<path fill="none" stroke-width="1" stroke-linecap="butt" stroke-linejoin="miter" stroke="rgb(78.431702%, 78.039551%, 78.137207%)" stroke-opacity="1" stroke-miterlimit="4" d="M 0 0 L -4 -4 " transform="matrix(1, 0, 0, -1, 434.5, 142.5)"/>
<path fill="none" stroke-width="1" stroke-linecap="butt" stroke-linejoin="miter" stroke="rgb(78.431702%, 78.039551%, 78.137207%)" stroke-opacity="1" stroke-miterlimit="4" d="M 0 0 L 4 -4 " transform="matrix(1, 0, 0, -1, 430.5, 142.5)"/>
<path fill="none" stroke-width="1" stroke-linecap="butt" stroke-linejoin="miter" stroke="rgb(78.431702%, 78.039551%, 78.137207%)" stroke-opacity="1" stroke-miterlimit="4" d="M 0 0 L -4 -4 " transform="matrix(1, 0, 0, -1, 443.5, 106.5)"/>
<path fill="none" stroke-width="1" stroke-linecap="butt" stroke-linejoin="miter" stroke="rgb(78.431702%, 78.039551%, 78.137207%)" stroke-opacity="1" stroke-miterlimit="4" d="M 0 0 L 4 -4 " transform="matrix(1, 0, 0, -1, 439.5, 106.5)"/>
<path fill="none" stroke-width="1" stroke-linecap="butt" stroke-linejoin="miter" stroke="rgb(78.431702%, 78.039551%, 78.137207%)" stroke-opacity="1" stroke-miterlimit="4" d="M 0 0 L -4 -4 " transform="matrix(1, 0, 0, -1, 452.5, 124.5)"/>
<path fill="none" stroke-width="1" stroke-linecap="butt" stroke-linejoin="miter" stroke="rgb(78.431702%, 78.039551%, 78.137207%)" stroke-opacity="1" stroke-miterlimit="4" d="M 0 0 L 4 -4 " transform="matrix(1, 0, 0, -1, 448.5, 124.5)"/>
<path fill="none" stroke-width="1" stroke-linecap="butt" stroke-linejoin="miter" stroke="rgb(78.431702%, 78.039551%, 78.137207%)" stroke-opacity="1" stroke-miterlimit="4" d="M 0 0 L -4 -4 " transform="matrix(1, 0, 0, -1, 452.5, 142.5)"/>
<path fill="none" stroke-width="1" stroke-linecap="butt" stroke-linejoin="miter" stroke="rgb(78.431702%, 78.039551%, 78.137207%)" stroke-opacity="1" stroke-miterlimit="4" d="M 0 0 L 4 -4 " transform="matrix(1, 0, 0, -1, 448.5, 142.5)"/>
<path fill="none" stroke-width="1" stroke-linecap="butt" stroke-linejoin="miter" stroke="rgb(78.431702%, 78.039551%, 78.137207%)" stroke-opacity="1" stroke-miterlimit="4" d="M 0 0 L 0 18 L 9 36 L 18 0 L 27 36 L 36 18 L 36 0 " transform="matrix(1, 0, 0, -1, 414.5, 144.5)"/>
<path fill="none" stroke-width="1" stroke-linecap="butt" stroke-linejoin="miter" stroke="rgb(13.729858%, 12.159729%, 12.548828%)" stroke-opacity="1" stroke-miterlimit="4" d="M 396.5 90.5 L 468.5 90.5 L 468.5 162.5 L 396.5 162.5 Z M 396.5 90.5 " transform="matrix(1, 0, 0, -1, 0, 163)"/>
<path fill="none" stroke-width="1" stroke-linecap="butt" stroke-linejoin="miter" stroke="rgb(78.431702%, 78.039551%, 78.137207%)" stroke-opacity="1" stroke-miterlimit="4" d="M 0 0 L -4 -4 " transform="matrix(1, 0, 0, -1, 416.5, 52.5)"/>
<path fill="none" stroke-width="1" stroke-linecap="butt" stroke-linejoin="miter" stroke="rgb(78.431702%, 78.039551%, 78.137207%)" stroke-opacity="1" stroke-miterlimit="4" d="M 0 0 L 4 -4 " transform="matrix(1, 0, 0, -1, 412.5, 52.5)"/>
<path fill="none" stroke-width="1" stroke-linecap="butt" stroke-linejoin="miter" stroke="rgb(78.431702%, 78.039551%, 78.137207%)" stroke-opacity="1" stroke-miterlimit="4" d="M 0.00190625 0 L -3.998094 -4 " transform="matrix(1, 0, 0, -1, 422.4395, 16.5)"/>
<path fill="none" stroke-width="1" stroke-linecap="butt" stroke-linejoin="miter" stroke="rgb(78.431702%, 78.039551%, 78.137207%)" stroke-opacity="1" stroke-miterlimit="4" d="M 0.00190625 0 L 4.001906 -4 " transform="matrix(1, 0, 0, -1, 418.4395, 16.5)"/>
<path fill="none" stroke-width="1" stroke-linecap="butt" stroke-linejoin="miter" stroke="rgb(78.431702%, 78.039551%, 78.137207%)" stroke-opacity="1" stroke-miterlimit="4" d="M -0.00099375 0 L -4.000994 -4 " transform="matrix(1, 0, 0, -1, 428.3799, 52.5)"/>
<path fill="none" stroke-width="1" stroke-linecap="butt" stroke-linejoin="miter" stroke="rgb(78.431702%, 78.039551%, 78.137207%)" stroke-opacity="1" stroke-miterlimit="4" d="M -0.00099375 0 L 3.999006 -4 " transform="matrix(1, 0, 0, -1, 424.3799, 52.5)"/>
<path fill="none" stroke-width="1" stroke-linecap="butt" stroke-linejoin="miter" stroke="rgb(78.431702%, 78.039551%, 78.137207%)" stroke-opacity="1" stroke-miterlimit="4" d="M 0 0 L -4 -4 " transform="matrix(1, 0, 0, -1, 434.5, 16.5)"/>
<path fill="none" stroke-width="1" stroke-linecap="butt" stroke-linejoin="miter" stroke="rgb(78.431702%, 78.039551%, 78.137207%)" stroke-opacity="1" stroke-miterlimit="4" d="M 0 0 L 4 -4 " transform="matrix(1, 0, 0, -1, 430.5, 16.5)"/>
<path fill="none" stroke-width="1" stroke-linecap="butt" stroke-linejoin="miter" stroke="rgb(78.431702%, 78.039551%, 78.137207%)" stroke-opacity="1" stroke-miterlimit="4" d="M 0.00190625 0 L -3.998094 -4 " transform="matrix(1, 0, 0, -1, 440.4395, 52.5)"/>
<path fill="none" stroke-width="1" stroke-linecap="butt" stroke-linejoin="miter" stroke="rgb(78.431702%, 78.039551%, 78.137207%)" stroke-opacity="1" stroke-miterlimit="4" d="M 0.00190625 0 L 4.001906 -4 " transform="matrix(1, 0, 0, -1, 436.4395, 52.5)"/>
<path fill="none" stroke-width="1" stroke-linecap="butt" stroke-linejoin="miter" stroke="rgb(78.431702%, 78.039551%, 78.137207%)" stroke-opacity="1" stroke-miterlimit="4" d="M -0.00099375 0 L -4.000994 -4 " transform="matrix(1, 0, 0, -1, 446.3799, 16.5)"/>
<path fill="none" stroke-width="1" stroke-linecap="butt" stroke-linejoin="miter" stroke="rgb(78.431702%, 78.039551%, 78.137207%)" stroke-opacity="1" stroke-miterlimit="4" d="M -0.00099375 0 L 3.999006 -4 " transform="matrix(1, 0, 0, -1, 442.3799, 16.5)"/>
<path fill="none" stroke-width="1" stroke-linecap="butt" stroke-linejoin="miter" stroke="rgb(78.431702%, 78.039551%, 78.137207%)" stroke-opacity="1" stroke-miterlimit="4" d="M 0 0 L -4 -4 " transform="matrix(1, 0, 0, -1, 452.5, 52.5)"/>
<path fill="none" stroke-width="1" stroke-linecap="butt" stroke-linejoin="miter" stroke="rgb(78.431702%, 78.039551%, 78.137207%)" stroke-opacity="1" stroke-miterlimit="4" d="M 0 0 L 4 -4 " transform="matrix(1, 0, 0, -1, 448.5, 52.5)"/>
<path fill="none" stroke-width="1" stroke-linecap="butt" stroke-linejoin="miter" stroke="rgb(78.431702%, 78.039551%, 78.137207%)" stroke-opacity="1" stroke-miterlimit="4" d="M 0 0 L 5.9375 36 L 11.878906 0 L 18 36 L 23.9375 0 L 29.878906 36 L 36 0 " transform="matrix(1, 0, 0, -1, 414.5, 54.5)"/>
<path fill="none" stroke-width="2" stroke-linecap="butt" stroke-linejoin="miter" stroke="rgb(13.729858%, 12.159729%, 12.548828%)" stroke-opacity="1" stroke-miterlimit="4" d="M 0 0 C 0.0585938 1.140625 0.121094 4.679688 0.359375 6.839844 C 0.601562 9 0.960938 11.039062 1.441406 12.960938 C 1.921875 14.878906 2.519531 16.679688 3.238281 18.359375 C 3.960938 20.039062 4.800781 21.601562 5.761719 23.039062 C 6.71875 24.480469 7.800781 25.800781 9 27 C 10.199219 28.199219 11.519531 29.277344 12.960938 30.238281 C 14.398438 31.199219 15.960938 32.039062 17.640625 32.761719 C 19.320312 33.480469 21.121094 34.082031 23.039062 34.5625 C 24.960938 35.039062 27 35.398438 29.160156 35.640625 C 31.320312 35.878906 34.859375 35.9375 36 36 " transform="matrix(1, 0, 0, -1, 18.5, 144.5)"/>
<path fill="none" stroke-width="2" stroke-linecap="butt" stroke-linejoin="miter" stroke="rgb(13.729858%, 12.159729%, 12.548828%)" stroke-opacity="1" stroke-miterlimit="4" d="M 0 0 C 0.601562 1.078125 2.398438 4.5625 3.601562 6.480469 C 4.800781 8.398438 6 10.078125 7.199219 11.519531 C 8.398438 12.960938 9.601562 14.160156 10.800781 15.121094 C 12 16.078125 13.199219 16.800781 14.398438 17.277344 C 15.601562 17.761719 16.800781 18 18 18 C 19.199219 18 20.398438 17.761719 21.601562 17.277344 C 22.800781 16.800781 24 16.078125 25.199219 15.121094 C 26.398438 14.160156 27.601562 12.960938 28.800781 11.519531 C 30 10.078125 31.199219 8.398438 32.398438 6.480469 C 33.601562 4.5625 35.398438 1.078125 36 0 " transform="matrix(1, 0, 0, -1, 18.5, 54.5)"/>
<path fill="none" stroke-width="2" stroke-linecap="butt" stroke-linejoin="miter" stroke="rgb(13.729858%, 12.159729%, 12.548828%)" stroke-opacity="1" stroke-miterlimit="4" d="M 0 0 C 0.167969 1.621094 0.382812 6.839844 1.007812 9.722656 C 1.632812 12.601562 2.617188 15.121094 3.742188 17.277344 C 4.871094 19.4375 6.289062 21.238281 7.777344 22.679688 C 9.265625 24.121094 10.96875 25.199219 12.671875 25.921875 C 14.375 26.640625 16.222656 27 18 27 C 19.777344 27 21.625 26.640625 23.328125 25.921875 C 25.03125 25.199219 26.734375 24.121094 28.222656 22.679688 C 29.710938 21.238281 31.128906 19.4375 32.257812 17.277344 C 33.382812 15.121094 34.367188 12.601562 34.992188 9.722656 C 35.617188 6.839844 35.832031 1.621094 36 0 " transform="matrix(1, 0, 0, -1, 117.5, 144.5)"/>
<path fill="none" stroke-width="2" stroke-linecap="butt" stroke-linejoin="miter" stroke="rgb(13.729858%, 12.159729%, 12.548828%)" stroke-opacity="1" stroke-miterlimit="4" d="M 0 0 C 0.597656 1.464844 2.378906 6.433594 3.574219 8.785156 C 4.769531 11.136719 5.964844 12.769531 7.164062 14.109375 C 8.363281 15.457031 9.566406 16.226562 10.769531 16.847656 C 11.972656 17.472656 13.179688 17.664062 14.382812 17.855469 C 15.589844 18.046875 16.792969 17.953125 18 18 C 19.207031 18.046875 20.410156 17.953125 21.617188 18.144531 C 22.820312 18.335938 24.027344 18.527344 25.230469 19.152344 C 26.433594 19.773438 27.636719 20.542969 28.835938 21.890625 C 30.035156 23.230469 31.230469 24.863281 32.425781 27.214844 C 33.621094 29.566406 35.402344 34.535156 36 36 " transform="matrix(1, 0, 0, -1, 117.5, 54.5)"/>
<path fill="none" stroke-width="2" stroke-linecap="butt" stroke-linejoin="miter" stroke="rgb(13.729858%, 12.159729%, 12.548828%)" stroke-opacity="1" stroke-miterlimit="4" d="M 0 0 C 0.167969 1.175781 0.382812 4.835938 1.007812 7.0625 C 1.632812 9.289062 2.617188 11.492188 3.742188 13.363281 C 4.871094 15.234375 6.285156 16.949219 7.773438 18.296875 C 9.265625 19.640625 10.96875 20.726562 12.671875 21.425781 C 14.375 22.128906 16.226562 22.5 18 22.5 C 19.773438 22.5 21.625 22.128906 23.328125 21.425781 C 25.03125 20.726562 26.734375 19.640625 28.226562 18.296875 C 29.710938 16.949219 31.128906 15.234375 32.257812 13.363281 C 33.382812 11.492188 34.367188 9.289062 34.992188 7.0625 C 35.617188 4.835938 35.832031 1.175781 36 0 " transform="matrix(1, 0, 0, -1, 216.5, 144.5)"/>
<path fill="none" stroke-width="2" stroke-linecap="butt" stroke-linejoin="miter" stroke="rgb(13.729858%, 12.159729%, 12.548828%)" stroke-opacity="1" stroke-miterlimit="4" d="M 0 0 C 0.601562 1.769531 2.398438 8.015625 3.601562 10.625 C 4.800781 13.234375 6 14.515625 7.199219 15.664062 C 8.398438 16.816406 9.601562 17.15625 10.800781 17.539062 C 12 17.925781 13.199219 17.894531 14.398438 17.972656 C 15.601562 18.046875 16.800781 18 18 18 C 19.199219 18 20.398438 18.046875 21.601562 17.972656 C 22.800781 17.894531 24 17.925781 25.199219 17.539062 C 26.398438 17.15625 27.601562 16.816406 28.800781 15.664062 C 30 14.515625 31.199219 13.234375 32.398438 10.625 C 33.601562 8.015625 35.398438 1.769531 36 0 " transform="matrix(1, 0, 0, -1, 216.5, 54.5)"/>
<path fill="none" stroke-width="2" stroke-linecap="butt" stroke-linejoin="miter" stroke="rgb(13.729858%, 12.159729%, 12.548828%)" stroke-opacity="1" stroke-miterlimit="4" d="M 0 0 C 0.148438 1.472656 0.3125 6.046875 0.894531 8.828125 C 1.472656 11.613281 2.371094 14.363281 3.46875 16.703125 C 4.5625 19.046875 5.960938 21.1875 7.460938 22.871094 C 8.960938 24.550781 10.707031 25.910156 12.464844 26.785156 C 14.222656 27.660156 16.15625 28.125 18 28.125 C 19.847656 28.125 21.777344 27.660156 23.535156 26.785156 C 25.292969 25.910156 27.039062 24.550781 28.539062 22.871094 C 30.039062 21.1875 31.4375 19.046875 32.53125 16.703125 C 33.628906 14.363281 34.527344 11.613281 35.105469 8.828125 C 35.683594 6.046875 35.851562 1.472656 36 0 " transform="matrix(1, 0, 0, -1, 315.5, 144.5)"/>
<path fill="none" stroke-width="2" stroke-linecap="butt" stroke-linejoin="miter" stroke="rgb(13.729858%, 12.159729%, 12.548828%)" stroke-opacity="1" stroke-miterlimit="4" d="M 0 0 C 0.601562 2.019531 2.398438 9.332031 3.601562 12.101562 C 4.800781 14.867188 6 15.644531 7.199219 16.601562 C 8.398438 17.554688 9.601562 17.582031 10.800781 17.8125 C 12 18.046875 13.199219 17.964844 14.398438 17.996094 C 15.601562 18.023438 16.800781 17.996094 18 18 C 19.199219 18.003906 20.398438 17.976562 21.601562 18.003906 C 22.800781 18.035156 24 17.953125 25.199219 18.1875 C 26.398438 18.417969 27.601562 18.449219 28.800781 19.398438 C 30 20.355469 31.199219 21.132812 32.398438 23.898438 C 33.601562 26.667969 35.398438 33.980469 36 36 " transform="matrix(1, 0, 0, -1, 315.5, 54.5)"/>
<path fill="none" stroke-width="2" stroke-linecap="butt" stroke-linejoin="miter" stroke="rgb(13.729858%, 12.159729%, 12.548828%)" stroke-opacity="1" stroke-miterlimit="4" d="M 0 0 C 0.195312 1.660156 0.488281 7.214844 1.183594 9.964844 C 1.875 12.714844 2.980469 14.925781 4.15625 16.503906 C 5.335938 18.085938 6.78125 18.824219 8.253906 19.4375 C 9.722656 20.054688 11.355469 20.0625 12.980469 20.195312 C 14.605469 20.328125 16.328125 20.25 18 20.25 C 19.671875 20.25 21.394531 20.328125 23.019531 20.195312 C 24.644531 20.0625 26.277344 20.054688 27.746094 19.4375 C 29.21875 18.824219 30.664062 18.085938 31.84375 16.503906 C 33.019531 14.925781 34.121094 12.714844 34.816406 9.964844 C 35.507812 7.214844 35.804688 1.660156 36 0 " transform="matrix(1, 0, 0, -1, 414.5, 144.5)"/>
<path fill="none" stroke-width="2" stroke-linecap="butt" stroke-linejoin="miter" stroke="rgb(13.729858%, 12.159729%, 12.548828%)" stroke-opacity="1" stroke-miterlimit="4" d="M 0 0 C 0.59375 2.214844 2.375 10.421875 3.566406 13.277344 C 4.757812 16.140625 5.949219 16.386719 7.144531 17.160156 C 8.34375 17.933594 9.539062 17.785156 10.738281 17.925781 C 11.9375 18.0625 13.140625 17.984375 14.339844 18 C 15.539062 18.015625 16.738281 18 17.9375 18 C 19.140625 18 20.339844 18.015625 21.539062 18 C 22.738281 17.984375 23.9375 18.0625 25.136719 17.925781 C 26.335938 17.785156 27.535156 17.933594 28.734375 17.160156 C 29.9375 16.386719 31.140625 16.140625 32.351562 13.277344 C 33.5625 10.421875 35.394531 2.214844 36 0 " transform="matrix(1, 0, 0, -1, 414.5, 54.5)"/>
</svg>
