<?xml version="1.0" encoding="UTF-8"?>
<svg xmlns="http://www.w3.org/2000/svg" xmlns:xlink="http://www.w3.org/1999/xlink" width="307.414pt" height="126.38pt" viewBox="0 0 307.414 126.38">
<defs>
<g>
<g id="glyph-0-0">
<path d="M 3.71875 0 L 2.84375 0 L 2.84375 -5.59375 C 2.632812 -5.394531 2.359375 -5.191406 2.015625 -4.984375 C 1.671875 -4.785156 1.363281 -4.640625 1.09375 -4.546875 L 1.09375 -5.390625 C 1.582031 -5.617188 2.007812 -5.894531 2.375 -6.21875 C 2.75 -6.550781 3.007812 -6.875 3.15625 -7.1875 L 3.71875 -7.1875 Z M 3.71875 0 "/>
</g>
<g id="glyph-0-1">
<path d="M 5.03125 -0.84375 L 5.03125 0 L 0.296875 0 C 0.296875 -0.207031 0.332031 -0.410156 0.40625 -0.609375 C 0.53125 -0.929688 0.722656 -1.25 0.984375 -1.5625 C 1.242188 -1.875 1.628906 -2.234375 2.140625 -2.640625 C 2.910156 -3.285156 3.429688 -3.789062 3.703125 -4.15625 C 3.984375 -4.53125 4.125 -4.882812 4.125 -5.21875 C 4.125 -5.570312 4 -5.863281 3.75 -6.09375 C 3.5 -6.332031 3.175781 -6.453125 2.78125 -6.453125 C 2.351562 -6.453125 2.007812 -6.328125 1.75 -6.078125 C 1.5 -5.828125 1.375 -5.476562 1.375 -5.03125 L 0.46875 -5.125 C 0.53125 -5.789062 0.757812 -6.300781 1.15625 -6.65625 C 1.5625 -7.007812 2.109375 -7.1875 2.796875 -7.1875 C 3.484375 -7.1875 4.023438 -6.992188 4.421875 -6.609375 C 4.828125 -6.234375 5.03125 -5.765625 5.03125 -5.203125 C 5.03125 -4.910156 4.96875 -4.625 4.84375 -4.34375 C 4.726562 -4.070312 4.535156 -3.78125 4.265625 -3.46875 C 3.992188 -3.164062 3.539062 -2.75 2.90625 -2.21875 C 2.382812 -1.78125 2.046875 -1.476562 1.890625 -1.3125 C 1.742188 -1.15625 1.625 -1 1.53125 -0.84375 Z M 5.03125 -0.84375 "/>
</g>
<g id="glyph-0-2">
<path d="M 0.421875 -1.890625 L 1.296875 -2 C 1.398438 -1.507812 1.570312 -1.148438 1.8125 -0.921875 C 2.050781 -0.703125 2.347656 -0.59375 2.703125 -0.59375 C 3.117188 -0.59375 3.46875 -0.734375 3.75 -1.015625 C 4.03125 -1.304688 4.171875 -1.664062 4.171875 -2.09375 C 4.171875 -2.5 4.039062 -2.832031 3.78125 -3.09375 C 3.519531 -3.351562 3.1875 -3.484375 2.78125 -3.484375 C 2.613281 -3.484375 2.40625 -3.453125 2.15625 -3.390625 L 2.25 -4.15625 C 2.3125 -4.15625 2.359375 -4.15625 2.390625 -4.15625 C 2.765625 -4.15625 3.101562 -4.25 3.40625 -4.4375 C 3.707031 -4.632812 3.859375 -4.9375 3.859375 -5.34375 C 3.859375 -5.664062 3.75 -5.929688 3.53125 -6.140625 C 3.3125 -6.359375 3.03125 -6.46875 2.6875 -6.46875 C 2.34375 -6.46875 2.054688 -6.359375 1.828125 -6.140625 C 1.597656 -5.929688 1.453125 -5.609375 1.390625 -5.171875 L 0.515625 -5.328125 C 0.617188 -5.921875 0.859375 -6.378906 1.234375 -6.703125 C 1.617188 -7.023438 2.09375 -7.1875 2.65625 -7.1875 C 3.050781 -7.1875 3.410156 -7.101562 3.734375 -6.9375 C 4.066406 -6.769531 4.316406 -6.539062 4.484375 -6.25 C 4.660156 -5.957031 4.75 -5.648438 4.75 -5.328125 C 4.75 -5.015625 4.664062 -4.734375 4.5 -4.484375 C 4.34375 -4.234375 4.097656 -4.03125 3.765625 -3.875 C 4.191406 -3.78125 4.519531 -3.578125 4.75 -3.265625 C 4.988281 -2.960938 5.109375 -2.578125 5.109375 -2.109375 C 5.109375 -1.484375 4.878906 -0.953125 4.421875 -0.515625 C 3.960938 -0.0859375 3.390625 0.125 2.703125 0.125 C 2.066406 0.125 1.539062 -0.0625 1.125 -0.4375 C 0.71875 -0.8125 0.484375 -1.296875 0.421875 -1.890625 Z M 0.421875 -1.890625 "/>
</g>
<g id="glyph-0-3">
<path d="M 3.234375 0 L 3.234375 -1.71875 L 0.125 -1.71875 L 0.125 -2.515625 L 3.390625 -7.15625 L 4.109375 -7.15625 L 4.109375 -2.515625 L 5.078125 -2.515625 L 5.078125 -1.71875 L 4.109375 -1.71875 L 4.109375 0 Z M 3.234375 -2.515625 L 3.234375 -5.75 L 0.984375 -2.515625 Z M 3.234375 -2.515625 "/>
</g>
<g id="glyph-0-4">
<path d="M 0.421875 -1.875 L 1.34375 -1.953125 C 1.40625 -1.503906 1.5625 -1.164062 1.8125 -0.9375 C 2.0625 -0.707031 2.363281 -0.59375 2.71875 -0.59375 C 3.132812 -0.59375 3.488281 -0.753906 3.78125 -1.078125 C 4.082031 -1.398438 4.234375 -1.820312 4.234375 -2.34375 C 4.234375 -2.84375 4.09375 -3.238281 3.8125 -3.53125 C 3.53125 -3.820312 3.160156 -3.96875 2.703125 -3.96875 C 2.421875 -3.96875 2.164062 -3.898438 1.9375 -3.765625 C 1.707031 -3.640625 1.523438 -3.476562 1.390625 -3.28125 L 0.578125 -3.390625 L 1.265625 -7.0625 L 4.828125 -7.0625 L 4.828125 -6.21875 L 1.96875 -6.21875 L 1.578125 -4.296875 C 2.015625 -4.597656 2.46875 -4.75 2.9375 -4.75 C 3.5625 -4.75 4.085938 -4.53125 4.515625 -4.09375 C 4.941406 -3.664062 5.15625 -3.109375 5.15625 -2.421875 C 5.15625 -1.773438 4.96875 -1.21875 4.59375 -0.75 C 4.132812 -0.164062 3.507812 0.125 2.71875 0.125 C 2.0625 0.125 1.523438 -0.0546875 1.109375 -0.421875 C 0.703125 -0.785156 0.472656 -1.269531 0.421875 -1.875 Z M 0.421875 -1.875 "/>
</g>
<g id="glyph-0-5">
<path d="M 4.96875 -5.40625 L 4.109375 -5.34375 C 4.023438 -5.6875 3.910156 -5.9375 3.765625 -6.09375 C 3.523438 -6.34375 3.234375 -6.46875 2.890625 -6.46875 C 2.609375 -6.46875 2.363281 -6.390625 2.15625 -6.234375 C 1.875 -6.023438 1.65625 -5.726562 1.5 -5.34375 C 1.34375 -4.957031 1.257812 -4.40625 1.25 -3.6875 C 1.457031 -4.007812 1.710938 -4.25 2.015625 -4.40625 C 2.328125 -4.5625 2.648438 -4.640625 2.984375 -4.640625 C 3.578125 -4.640625 4.078125 -4.421875 4.484375 -3.984375 C 4.898438 -3.554688 5.109375 -3.003906 5.109375 -2.328125 C 5.109375 -1.878906 5.007812 -1.460938 4.8125 -1.078125 C 4.613281 -0.691406 4.34375 -0.394531 4 -0.1875 C 3.664062 0.0195312 3.285156 0.125 2.859375 0.125 C 2.128906 0.125 1.53125 -0.144531 1.0625 -0.6875 C 0.601562 -1.226562 0.375 -2.113281 0.375 -3.34375 C 0.375 -4.726562 0.628906 -5.738281 1.140625 -6.375 C 1.585938 -6.914062 2.1875 -7.1875 2.9375 -7.1875 C 3.507812 -7.1875 3.972656 -7.023438 4.328125 -6.703125 C 4.691406 -6.390625 4.90625 -5.957031 4.96875 -5.40625 Z M 1.390625 -2.3125 C 1.390625 -2.007812 1.453125 -1.71875 1.578125 -1.4375 C 1.703125 -1.164062 1.878906 -0.957031 2.109375 -0.8125 C 2.347656 -0.664062 2.59375 -0.59375 2.84375 -0.59375 C 3.21875 -0.59375 3.535156 -0.742188 3.796875 -1.046875 C 4.066406 -1.347656 4.203125 -1.753906 4.203125 -2.265625 C 4.203125 -2.765625 4.066406 -3.15625 3.796875 -3.4375 C 3.535156 -3.726562 3.207031 -3.875 2.8125 -3.875 C 2.414062 -3.875 2.078125 -3.726562 1.796875 -3.4375 C 1.523438 -3.15625 1.390625 -2.78125 1.390625 -2.3125 Z M 1.390625 -2.3125 "/>
</g>
<g id="glyph-0-6">
<path d="M 0.46875 -6.21875 L 0.46875 -7.0625 L 5.109375 -7.0625 L 5.109375 -6.375 C 4.648438 -5.894531 4.195312 -5.253906 3.75 -4.453125 C 3.300781 -3.648438 2.957031 -2.820312 2.71875 -1.96875 C 2.539062 -1.363281 2.425781 -0.707031 2.375 0 L 1.46875 0 C 1.476562 -0.5625 1.585938 -1.238281 1.796875 -2.03125 C 2.015625 -2.832031 2.320312 -3.601562 2.71875 -4.34375 C 3.113281 -5.082031 3.535156 -5.707031 3.984375 -6.21875 Z M 0.46875 -6.21875 "/>
</g>
</g>
<clipPath id="clip-0">
<path clip-rule="nonzero" d="M 283 90 L 307.414062 90 L 307.414062 120 L 283 120 Z M 283 90 "/>
</clipPath>
</defs>
<path fill-rule="nonzero" fill="rgb(82.745361%, 82.43103%, 82.50885%)" fill-opacity="1" d="M 0.707031 105.132812 L 9.707031 114.132812 L 18.707031 105.132812 L 9.707031 96.132812 Z M 0.707031 105.132812 "/>
<path fill="none" stroke-width="1" stroke-linecap="butt" stroke-linejoin="miter" stroke="rgb(13.729858%, 12.159729%, 12.548828%)" stroke-opacity="1" stroke-miterlimit="4" d="M -0.00006875 0.0000875 L -9.000069 -8.999913 L -0.00006875 -17.999913 L 8.999931 -8.999913 Z M -0.00006875 0.0000875 " transform="matrix(1, 0, 0, -1, 9.7071, 96.1329)"/>
<path fill-rule="nonzero" fill="rgb(82.745361%, 82.43103%, 82.50885%)" fill-opacity="1" stroke-width="1" stroke-linecap="butt" stroke-linejoin="miter" stroke="rgb(13.729858%, 12.159729%, 12.548828%)" stroke-opacity="1" stroke-miterlimit="4" d="M -0.00006875 0.0000875 L -9.000069 -8.999913 L -0.00006875 -17.999913 L 8.999931 -8.999913 Z M -0.00006875 0.0000875 " transform="matrix(1, 0, 0, -1, 81.7071, 96.1329)"/>
<path fill-rule="nonzero" fill="rgb(82.745361%, 82.43103%, 82.50885%)" fill-opacity="1" stroke-width="1" stroke-linecap="butt" stroke-linejoin="miter" stroke="rgb(13.729858%, 12.159729%, 12.548828%)" stroke-opacity="1" stroke-miterlimit="4" d="M -0.00006875 0.0000875 L -9.000069 -8.999913 L -0.00006875 -17.999913 L 8.999931 -8.999913 Z M -0.00006875 0.0000875 " transform="matrix(1, 0, 0, -1, 81.7071, 24.1329)"/>
<path fill-rule="nonzero" fill="rgb(82.745361%, 82.43103%, 82.50885%)" fill-opacity="1" stroke-width="1" stroke-linecap="butt" stroke-linejoin="miter" stroke="rgb(13.729858%, 12.159729%, 12.548828%)" stroke-opacity="1" stroke-miterlimit="4" d="M -0.00006875 0.0000875 L -9.000069 -8.999913 L -0.00006875 -17.999913 L 8.999931 -8.999913 Z M -0.00006875 0.0000875 " transform="matrix(1, 0, 0, -1, 153.7071, 24.1329)"/>
<path fill-rule="nonzero" fill="rgb(82.745361%, 82.43103%, 82.50885%)" fill-opacity="1" stroke-width="1" stroke-linecap="butt" stroke-linejoin="miter" stroke="rgb(13.729858%, 12.159729%, 12.548828%)" stroke-opacity="1" stroke-miterlimit="4" d="M -0.00006875 0.0000875 L -9.000069 -8.999913 L -0.00006875 -17.999913 L 8.999931 -8.999913 Z M -0.00006875 0.0000875 " transform="matrix(1, 0, 0, -1, 225.7071, 24.1329)"/>
<path fill-rule="nonzero" fill="rgb(82.745361%, 82.43103%, 82.50885%)" fill-opacity="1" stroke-width="1" stroke-linecap="butt" stroke-linejoin="miter" stroke="rgb(13.729858%, 12.159729%, 12.548828%)" stroke-opacity="1" stroke-miterlimit="4" d="M -0.00006875 0.0000875 L -9.000069 -8.999913 L -0.00006875 -17.999913 L 8.999931 -8.999913 Z M -0.00006875 0.0000875 " transform="matrix(1, 0, 0, -1, 225.7071, 96.1329)"/>
<path fill-rule="nonzero" fill="rgb(82.745361%, 82.43103%, 82.50885%)" fill-opacity="1" d="M 297.707031 96.132812 L 288.707031 105.132812 L 297.707031 114.132812 L 306.707031 105.132812 Z M 297.707031 96.132812 "/>
<g clip-path="url(#clip-0)">
<path fill="none" stroke-width="1" stroke-linecap="butt" stroke-linejoin="miter" stroke="rgb(13.729858%, 12.159729%, 12.548828%)" stroke-opacity="1" stroke-miterlimit="4" d="M -0.00006875 0.0000875 L -9.000069 -8.999913 L -0.00006875 -17.999913 L 8.999931 -8.999913 Z M -0.00006875 0.0000875 " transform="matrix(1, 0, 0, -1, 297.7071, 96.1329)"/>
</g>
<path fill="none" stroke-width="1" stroke-linecap="butt" stroke-linejoin="miter" stroke="rgb(56.864929%, 56.079102%, 56.274414%)" stroke-opacity="1" stroke-miterlimit="4" d="M -0.00006875 0.0000875 C 35.999931 36.000087 -36.000069 36.000087 -0.00006875 72.000087 C 35.999931 108.000087 35.999931 72.000087 71.999931 72.000087 C 107.999931 72.000087 107.999931 108.000087 143.999931 72.000087 C 179.999931 36.000087 107.999931 36.000087 143.999931 0.0000875 " transform="matrix(1, 0, 0, -1, 81.7071, 105.1329)"/>
<path fill="none" stroke-width="1" stroke-linecap="butt" stroke-linejoin="miter" stroke="rgb(13.729858%, 12.159729%, 12.548828%)" stroke-opacity="1" stroke-miterlimit="4" d="M -0.00006875 0.0000875 C 17.999931 18.000087 -18.000069 54.000087 -0.00006875 72.000087 C 17.999931 90.000087 53.999931 72.000087 71.999931 72.000087 C 89.999931 72.000087 125.999931 90.000087 143.999931 72.000087 C 161.999931 54.000087 125.999931 18.000087 143.999931 0.0000875 " transform="matrix(1, 0, 0, -1, 81.7071, 105.1329)"/>
<path fill="none" stroke-width="1" stroke-linecap="butt" stroke-linejoin="miter" stroke="rgb(78.431702%, 78.039551%, 78.137207%)" stroke-opacity="1" stroke-miterlimit="4" d="M 0.0019125 0.00013125 C 54.001913 54.000131 -53.998087 18.000131 0.0019125 72.000131 C 54.001913 126.000131 18.001913 72.000131 72.001913 72.000131 C 126.001913 72.000131 90.001913 126.000131 144.001913 72.000131 C 198.001913 18.000131 90.001913 54.000131 144.001913 0.00013125 " transform="matrix(1, 0, 0, -1, 81.8184, 104.5431)"/>
<path fill="none" stroke-width="1" stroke-linecap="butt" stroke-linejoin="miter" stroke="rgb(13.729858%, 12.159729%, 12.548828%)" stroke-opacity="1" stroke-dasharray="1 1 1 1" stroke-miterlimit="4" d="M -0.0000875 0.0001 C 73.281162 72.0001 -71.988369 1.269631 -0.0000875 72.0001 C 73.281162 144.0001 1.281162 72.0001 71.999912 72.0001 C 145.281162 72.0001 72.011631 142.730569 143.999912 72.0001 C 217.281162 0.0001 73.281162 72.0001 143.999912 0.0001 " transform="matrix(1, 0, 0, -1, 81.0079, 104.5001)"/>
<g fill="rgb(13.729858%, 12.159729%, 12.548828%)" fill-opacity="1">
<use xlink:href="#glyph-0-0" x="9.707" y="123.1329"/>
</g>
<g fill="rgb(13.729858%, 12.159729%, 12.548828%)" fill-opacity="1">
<use xlink:href="#glyph-0-1" x="81.707" y="123.1329"/>
</g>
<g fill="rgb(13.729858%, 12.159729%, 12.548828%)" fill-opacity="1">
<use xlink:href="#glyph-0-2" x="72.707" y="24.1329"/>
</g>
<g fill="rgb(13.729858%, 12.159729%, 12.548828%)" fill-opacity="1">
<use xlink:href="#glyph-0-3" x="153.707" y="15.1329"/>
</g>
<g fill="rgb(13.729858%, 12.159729%, 12.548828%)" fill-opacity="1">
<use xlink:href="#glyph-0-4" x="234.707" y="24.1329"/>
</g>
<g fill="rgb(13.729858%, 12.159729%, 12.548828%)" fill-opacity="1">
<use xlink:href="#glyph-0-5" x="225.707" y="123.1329"/>
</g>
<g fill="rgb(13.729858%, 12.159729%, 12.548828%)" fill-opacity="1">
<use xlink:href="#glyph-0-6" x="297.707" y="123.1329"/>
</g>
</svg>
