<?xml version="1.0" encoding="UTF-8"?>
<svg xmlns="http://www.w3.org/2000/svg" xmlns:xlink="http://www.w3.org/1999/xlink" width="271pt" height="145pt" viewBox="0 0 271 145">
<path fill="none" stroke-width="1" stroke-linecap="butt" stroke-linejoin="miter" stroke="rgb(13.729858%, 12.159729%, 12.548828%)" stroke-opacity="1" stroke-miterlimit="4" d="M 0.5 0.5 L 270.5 0.5 L 270.5 144.5 L 0.5 144.5 Z M 0.5 0.5 " transform="matrix(1, 0, 0, -1, 0, 145)"/>
<path fill="none" stroke-width="4" stroke-linecap="butt" stroke-linejoin="miter" stroke="rgb(82.745361%, 82.43103%, 82.50885%)" stroke-opacity="1" stroke-miterlimit="4" d="M 0.00098125 0.00191875 C 0.48145 -5.919956 1.91895 -26.283237 2.879887 -35.517612 C 3.840825 -44.748081 4.801762 -50.677769 5.758794 -55.388706 C 6.719731 -60.095737 7.680669 -62.326206 8.641606 -63.767612 C 9.598637 -65.209019 10.559575 -64.845737 11.520512 -64.033237 C 12.48145 -63.224644 13.438481 -61.158237 14.399419 -58.904331 C 15.360356 -56.650425 16.321294 -53.580112 17.278325 -50.517612 C 18.239262 -47.455112 19.2002 -43.91605 20.161137 -40.525425 C 21.118169 -37.130894 22.079106 -33.525425 23.040044 -30.150425 C 24.000981 -26.775425 24.961919 -23.388706 25.91895 -20.283237 C 26.879887 -17.177769 27.840825 -14.1973 28.801762 -11.521519 C 29.758794 -8.841831 30.719731 -6.380894 31.680669 -4.220737 C 32.641606 -2.060581 33.598637 -0.169956 34.559575 1.435513 C 35.520512 3.044888 36.48145 4.361294 37.438481 5.423794 C 38.399419 6.486294 39.360356 7.259731 40.321294 7.818325 C 41.278325 8.376919 42.239262 8.662075 43.2002 8.775356 C 44.161137 8.888638 45.118169 8.759731 46.079106 8.505825 C 47.040044 8.248013 48.000981 7.787075 48.961919 7.244106 C 49.91895 6.701138 50.879887 5.9902 51.840825 5.244106 C 52.801762 4.494106 53.758794 3.626919 54.719731 2.751919 C 55.680669 1.876919 56.641606 0.923794 57.598637 0.00191875 C 58.559575 -0.923862 59.520512 -1.888706 60.48145 -2.798862 C 61.438481 -3.712925 62.399419 -4.626987 63.360356 -5.470737 C 64.321294 -6.314487 65.278325 -7.126987 66.239262 -7.857456 C 67.2002 -8.587925 68.161137 -9.267612 69.118169 -9.857456 C 70.079106 -10.443394 71.040044 -10.962925 72.000981 -11.3848 C 72.961919 -11.810581 73.91895 -12.150425 74.879887 -12.400425 C 75.840825 -12.650425 76.801762 -12.810581 77.758794 -12.892612 C 78.719731 -12.970737 79.680669 -12.959019 80.641606 -12.876987 C 81.598637 -12.794956 82.559575 -12.623081 83.520512 -12.400425 C 84.48145 -12.173862 85.438481 -11.865269 86.399419 -11.521519 C 87.360356 -11.173862 88.321294 -10.7598 89.278325 -10.318394 C 90.239262 -9.880894 91.2002 -9.388706 92.161137 -8.892612 C 93.118169 -8.392612 94.079106 -7.85355 95.040044 -7.326206 C 96.000981 -6.798862 96.961919 -6.248081 97.91895 -5.724644 C 98.879887 -5.201206 99.840825 -4.673862 100.801762 -4.185581 C 101.758794 -3.693394 102.719731 -3.216831 103.680669 -2.79105 C 104.641606 -2.361362 105.598637 -1.962925 106.559575 -1.619175 C 107.520512 -1.275425 108.48145 -0.974644 109.438481 -0.736362 C 110.399419 -0.498081 111.360356 -0.310581 112.321294 -0.185581 C 113.278325 -0.0644875 114.239262 0.00191875 115.2002 0.00191875 C 116.161137 0.00191875 117.118169 -0.0644875 118.079106 -0.185581 C 119.040044 -0.310581 120.000981 -0.498081 120.961919 -0.736362 C 121.91895 -0.974644 122.879887 -1.275425 123.840825 -1.619175 C 124.801762 -1.962925 125.758794 -2.361362 126.719731 -2.79105 C 127.680669 -3.216831 128.641606 -3.693394 129.598637 -4.185581 C 130.559575 -4.673862 131.520512 -5.201206 132.48145 -5.724644 C 133.438481 -6.248081 134.399419 -6.798862 135.360356 -7.326206 C 136.321294 -7.85355 137.278325 -8.392612 138.239262 -8.892612 C 139.2002 -9.388706 140.161137 -9.880894 141.118169 -10.318394 C 142.079106 -10.7598 143.040044 -11.173862 144.000981 -11.521519 C 144.961919 -11.865269 145.91895 -12.173862 146.879887 -12.400425 C 147.840825 -12.623081 148.801762 -12.794956 149.758794 -12.876987 C 150.719731 -12.959019 151.680669 -12.970737 152.641606 -12.892612 C 153.598637 -12.810581 154.559575 -12.650425 155.520512 -12.400425 C 156.477544 -12.150425 157.438481 -11.810581 158.399419 -11.3848 C 159.360356 -10.962925 160.321294 -10.443394 161.278325 -9.857456 C 162.239262 -9.267612 163.2002 -8.587925 164.161137 -7.857456 C 165.118169 -7.126987 166.079106 -6.314487 167.040044 -5.470737 C 168.000981 -4.626987 168.961919 -3.712925 169.91895 -2.798862 C 170.879887 -1.888706 171.840825 -0.923862 172.801762 0.00191875 C 173.758794 0.923794 174.719731 1.876919 175.680669 2.751919 C 176.641606 3.626919 177.598637 4.494106 178.559575 5.244106 C 179.520512 5.9902 180.48145 6.701138 181.438481 7.244106 C 182.399419 7.787075 183.360356 8.248013 184.321294 8.505825 C 185.278325 8.759731 186.239262 8.888638 187.2002 8.775356 C 188.161137 8.662075 189.118169 8.376919 190.079106 7.818325 C 191.040044 7.259731 192.000981 6.486294 192.961919 5.423794 C 193.91895 4.361294 194.879887 3.044888 195.840825 1.435513 C 196.801762 -0.169956 197.758794 -2.060581 198.719731 -4.220737 C 199.680669 -6.380894 200.641606 -8.841831 201.598637 -11.521519 C 202.559575 -14.1973 203.520512 -17.177769 204.477544 -20.283237 C 205.438481 -23.388706 206.399419 -26.775425 207.360356 -30.150425 C 208.321294 -33.525425 209.278325 -37.130894 210.239262 -40.525425 C 211.2002 -43.91605 212.161137 -47.455112 213.118169 -50.517612 C 214.079106 -53.580112 215.040044 -56.650425 216.000981 -58.904331 C 216.961919 -61.158237 217.922856 -63.224644 218.879887 -64.033237 C 219.840825 -64.845737 220.801762 -65.209019 221.758794 -63.767612 C 222.719731 -62.326206 223.680669 -60.095737 224.641606 -55.388706 C 225.598637 -50.677769 226.559575 -44.748081 227.520512 -35.517612 C 228.477544 -26.283237 229.91895 -5.919956 230.399419 0.00191875 " transform="matrix(1, 0, 0, -1, 20.2998, 66.7402)"/>
<path fill="none" stroke-width="1" stroke-linecap="butt" stroke-linejoin="miter" stroke="rgb(13.729858%, 12.159729%, 12.548828%)" stroke-opacity="1" stroke-miterlimit="4" d="M 0.00098125 0.00191875 L -7.999019 -7.998081 " transform="matrix(1, 0, 0, -1, 24.2998, 62.7402)"/>
<path fill="none" stroke-width="1" stroke-linecap="butt" stroke-linejoin="miter" stroke="rgb(13.729858%, 12.159729%, 12.548828%)" stroke-opacity="1" stroke-miterlimit="4" d="M 0.00098125 0.00191875 L 8.000981 -7.998081 " transform="matrix(1, 0, 0, -1, 16.2998, 62.7402)"/>
<path fill="none" stroke-width="1" stroke-linecap="butt" stroke-linejoin="miter" stroke="rgb(13.729858%, 12.159729%, 12.548828%)" stroke-opacity="1" stroke-miterlimit="4" d="M 0.0014625 -0.00191875 L -7.998538 -8.001919 " transform="matrix(1, 0, 0, -1, 53.1001, 74.2598)"/>
<path fill="none" stroke-width="1" stroke-linecap="butt" stroke-linejoin="miter" stroke="rgb(13.729858%, 12.159729%, 12.548828%)" stroke-opacity="1" stroke-miterlimit="4" d="M 0.0014625 -0.00191875 L 8.001462 -8.001919 " transform="matrix(1, 0, 0, -1, 45.1001, 74.2598)"/>
<path fill="none" stroke-width="1" stroke-linecap="butt" stroke-linejoin="miter" stroke="rgb(13.729858%, 12.159729%, 12.548828%)" stroke-opacity="1" stroke-miterlimit="4" d="M -0.0014625 0.00191875 L -8.001463 -7.998081 " transform="matrix(1, 0, 0, -1, 81.8999, 62.7402)"/>
<path fill="none" stroke-width="1" stroke-linecap="butt" stroke-linejoin="miter" stroke="rgb(13.729858%, 12.159729%, 12.548828%)" stroke-opacity="1" stroke-miterlimit="4" d="M -0.0014625 0.00191875 L 7.998537 -7.998081 " transform="matrix(1, 0, 0, -1, 73.8999, 62.7402)"/>
<path fill="none" stroke-width="1" stroke-linecap="butt" stroke-linejoin="miter" stroke="rgb(13.729858%, 12.159729%, 12.548828%)" stroke-opacity="1" stroke-miterlimit="4" d="M -0.00098125 -0.00191875 L -8.000981 -8.001919 " transform="matrix(1, 0, 0, -1, 110.7002, 74.2598)"/>
<path fill="none" stroke-width="1" stroke-linecap="butt" stroke-linejoin="miter" stroke="rgb(13.729858%, 12.159729%, 12.548828%)" stroke-opacity="1" stroke-miterlimit="4" d="M -0.00098125 -0.00191875 L 7.999019 -8.001919 " transform="matrix(1, 0, 0, -1, 102.7002, 74.2598)"/>
<path fill="none" stroke-width="1" stroke-linecap="butt" stroke-linejoin="miter" stroke="rgb(13.729858%, 12.159729%, 12.548828%)" stroke-opacity="1" stroke-miterlimit="4" d="M 0 0.00191875 L -8 -7.998081 " transform="matrix(1, 0, 0, -1, 139.5, 62.7402)"/>
<path fill="none" stroke-width="1" stroke-linecap="butt" stroke-linejoin="miter" stroke="rgb(13.729858%, 12.159729%, 12.548828%)" stroke-opacity="1" stroke-miterlimit="4" d="M 0 0.00191875 L 8 -7.998081 " transform="matrix(1, 0, 0, -1, 131.5, 62.7402)"/>
<path fill="none" stroke-width="1" stroke-linecap="butt" stroke-linejoin="miter" stroke="rgb(13.729858%, 12.159729%, 12.548828%)" stroke-opacity="1" stroke-miterlimit="4" d="M 0.00098125 -0.00191875 L -7.999019 -8.001919 " transform="matrix(1, 0, 0, -1, 168.2998, 74.2598)"/>
<path fill="none" stroke-width="1" stroke-linecap="butt" stroke-linejoin="miter" stroke="rgb(13.729858%, 12.159729%, 12.548828%)" stroke-opacity="1" stroke-miterlimit="4" d="M 0.00098125 -0.00191875 L 8.000981 -8.001919 " transform="matrix(1, 0, 0, -1, 160.2998, 74.2598)"/>
<path fill="none" stroke-width="1" stroke-linecap="butt" stroke-linejoin="miter" stroke="rgb(13.729858%, 12.159729%, 12.548828%)" stroke-opacity="1" stroke-miterlimit="4" d="M -0.00194375 0.00191875 L -8.001944 -7.998081 " transform="matrix(1, 0, 0, -1, 197.0996, 62.7402)"/>
<path fill="none" stroke-width="1" stroke-linecap="butt" stroke-linejoin="miter" stroke="rgb(13.729858%, 12.159729%, 12.548828%)" stroke-opacity="1" stroke-miterlimit="4" d="M -0.00194375 0.00191875 L 7.998056 -7.998081 " transform="matrix(1, 0, 0, -1, 189.0996, 62.7402)"/>
<path fill="none" stroke-width="1" stroke-linecap="butt" stroke-linejoin="miter" stroke="rgb(13.729858%, 12.159729%, 12.548828%)" stroke-opacity="1" stroke-miterlimit="4" d="M 0.00194375 -0.00191875 L -7.998056 -8.001919 " transform="matrix(1, 0, 0, -1, 225.9004, 74.2598)"/>
<path fill="none" stroke-width="1" stroke-linecap="butt" stroke-linejoin="miter" stroke="rgb(13.729858%, 12.159729%, 12.548828%)" stroke-opacity="1" stroke-miterlimit="4" d="M 0.00194375 -0.00191875 L 8.001944 -8.001919 " transform="matrix(1, 0, 0, -1, 217.9004, 74.2598)"/>
<path fill="none" stroke-width="1" stroke-linecap="butt" stroke-linejoin="miter" stroke="rgb(13.729858%, 12.159729%, 12.548828%)" stroke-opacity="1" stroke-miterlimit="4" d="M -0.00098125 0.00191875 L -8.000981 -7.998081 " transform="matrix(1, 0, 0, -1, 254.7002, 62.7402)"/>
<path fill="none" stroke-width="1" stroke-linecap="butt" stroke-linejoin="miter" stroke="rgb(13.729858%, 12.159729%, 12.548828%)" stroke-opacity="1" stroke-miterlimit="4" d="M -0.00098125 0.00191875 L 7.999019 -7.998081 " transform="matrix(1, 0, 0, -1, 246.7002, 62.7402)"/>
<path fill="none" stroke-width="2" stroke-linecap="butt" stroke-linejoin="miter" stroke="rgb(0%, 0%, 0%)" stroke-opacity="1" stroke-miterlimit="4" d="M 0.0014625 0.00191875 C 9.599119 0.00191875 19.200681 -11.521519 28.798338 -11.521519 " transform="matrix(1, 0, 0, -1, 193.1001, 66.7402)"/>
<path fill="none" stroke-width="2" stroke-linecap="butt" stroke-linejoin="miter" stroke="rgb(48.23761%, 47.296143%, 47.529602%)" stroke-opacity="1" stroke-miterlimit="4" d="M 0.00098125 -0.00191875 C 9.598638 -0.00191875 19.2002 11.521519 28.801763 11.521519 " transform="matrix(1, 0, 0, -1, 164.2998, 78.2598)"/>
<path fill="none" stroke-width="2" stroke-linecap="butt" stroke-linejoin="miter" stroke="rgb(0%, 0%, 0%)" stroke-opacity="1" stroke-miterlimit="4" d="M 0 0.00191875 C 9.601562 0.00191875 19.199219 -11.521519 28.800781 -11.521519 " transform="matrix(1, 0, 0, -1, 135.5, 66.7402)"/>
<path fill="none" stroke-width="2" stroke-linecap="butt" stroke-linejoin="miter" stroke="rgb(48.23761%, 47.296143%, 47.529602%)" stroke-opacity="1" stroke-miterlimit="4" d="M -0.00098125 -0.00191875 C 9.600581 -0.00191875 19.198237 11.521519 28.7998 11.521519 " transform="matrix(1, 0, 0, -1, 106.7002, 78.2598)"/>
<path fill="none" stroke-width="2" stroke-linecap="butt" stroke-linejoin="miter" stroke="rgb(0%, 0%, 0%)" stroke-opacity="1" stroke-miterlimit="4" d="M -0.0014625 0.00191875 C 9.6001 0.00191875 19.201662 -11.521519 28.799319 -11.521519 " transform="matrix(1, 0, 0, -1, 77.8999, 66.7402)"/>
<path fill="none" stroke-width="2" stroke-linecap="butt" stroke-linejoin="miter" stroke="rgb(48.23761%, 47.296143%, 47.529602%)" stroke-opacity="1" stroke-miterlimit="4" d="M 0.0014625 -0.00191875 C 9.599119 -0.00191875 19.200681 11.521519 28.798337 11.521519 " transform="matrix(1, 0, 0, -1, 49.1001, 78.2598)"/>
</svg>
