<?xml version="1.0" encoding="UTF-8"?>
<svg xmlns="http://www.w3.org/2000/svg" xmlns:xlink="http://www.w3.org/1999/xlink" width="429.156pt" height="163.397pt" viewBox="0 0 429.156 163.397">
<defs>
<g>
<g id="glyph-0-0">
<path d="M 2.828125 0 L 3.859375 0 L 3.859375 -7.796875 L 2.953125 -7.796875 L 1.25 -6.890625 L 1.453125 -6.078125 L 2.8125 -6.8125 L 2.828125 -6.8125 Z M 2.828125 0 "/>
</g>
<g id="glyph-0-1">
<path d="M 5.515625 0 L 5.515625 -0.875 L 2.015625 -0.875 L 2.015625 -0.90625 L 2.640625 -1.46875 C 4.28125 -3.0625 5.328125 -4.21875 5.328125 -5.65625 C 5.328125 -6.78125 4.625 -7.9375 2.9375 -7.9375 C 2.046875 -7.9375 1.265625 -7.59375 0.734375 -7.140625 L 1.0625 -6.390625 C 1.421875 -6.703125 2.015625 -7.0625 2.71875 -7.0625 C 3.890625 -7.0625 4.265625 -6.328125 4.265625 -5.53125 C 4.265625 -4.359375 3.359375 -3.34375 1.375 -1.453125 L 0.546875 -0.640625 L 0.546875 0 Z M 5.515625 0 "/>
</g>
<g id="glyph-0-2">
<path d="M 0.5 -0.390625 C 0.890625 -0.140625 1.65625 0.125 2.53125 0.125 C 4.40625 0.125 5.375 -0.953125 5.375 -2.203125 C 5.375 -3.296875 4.59375 -4.015625 3.640625 -4.21875 L 3.640625 -4.234375 C 4.59375 -4.578125 5.078125 -5.265625 5.078125 -6.078125 C 5.078125 -7.015625 4.375 -7.9375 2.84375 -7.9375 C 2 -7.9375 1.21875 -7.625 0.796875 -7.328125 L 1.078125 -6.5625 C 1.421875 -6.796875 2.015625 -7.078125 2.640625 -7.078125 C 3.609375 -7.078125 4.015625 -6.53125 4.015625 -5.90625 C 4.015625 -4.984375 3.03125 -4.578125 2.265625 -4.578125 L 1.6875 -4.578125 L 1.6875 -3.796875 L 2.265625 -3.796875 C 3.28125 -3.796875 4.265625 -3.328125 4.28125 -2.234375 C 4.296875 -1.578125 3.875 -0.71875 2.515625 -0.71875 C 1.78125 -0.71875 1.09375 -1.015625 0.796875 -1.21875 Z M 0.5 -0.390625 "/>
</g>
<g id="glyph-0-3">
<path d="M 4.796875 0 L 4.796875 -2.125 L 5.890625 -2.125 L 5.890625 -2.953125 L 4.796875 -2.953125 L 4.796875 -7.796875 L 3.65625 -7.796875 L 0.1875 -2.8125 L 0.1875 -2.125 L 3.796875 -2.125 L 3.796875 0 Z M 1.25 -2.953125 L 1.25 -2.96875 L 3.15625 -5.625 C 3.375 -5.984375 3.5625 -6.328125 3.796875 -6.78125 L 3.84375 -6.78125 C 3.8125 -6.375 3.796875 -5.96875 3.796875 -5.5625 L 3.796875 -2.953125 Z M 1.25 -2.953125 "/>
</g>
</g>
<clipPath id="clip-0">
<path clip-rule="nonzero" d="M 9 145 L 27 145 L 27 163.398438 L 9 163.398438 Z M 9 145 "/>
</clipPath>
<clipPath id="clip-1">
<path clip-rule="nonzero" d="M 153 145 L 171 145 L 171 163.398438 L 153 163.398438 Z M 153 145 "/>
</clipPath>
<clipPath id="clip-2">
<path clip-rule="nonzero" d="M 147 139 L 177 139 L 177 163.398438 L 147 163.398438 Z M 147 139 "/>
</clipPath>
<clipPath id="clip-3">
<path clip-rule="nonzero" d="M 261 145 L 279 145 L 279 163.398438 L 261 163.398438 Z M 261 145 "/>
</clipPath>
<clipPath id="clip-4">
<path clip-rule="nonzero" d="M 405 145 L 423 145 L 423 163.398438 L 405 163.398438 Z M 405 145 "/>
</clipPath>
<clipPath id="clip-5">
<path clip-rule="nonzero" d="M 399 139 L 429 139 L 429 163.398438 L 399 163.398438 Z M 399 139 "/>
</clipPath>
<clipPath id="clip-6">
<path clip-rule="nonzero" d="M 253 29 L 429.15625 29 L 429.15625 163.398438 L 253 163.398438 Z M 253 29 "/>
</clipPath>
</defs>
<path fill="none" stroke-width="1" stroke-linecap="butt" stroke-linejoin="miter" stroke="rgb(13.729858%, 12.159729%, 12.548828%)" stroke-opacity="1" stroke-miterlimit="4" d="M 0 0.00043125 L 0 144.000431 L 144 144.000431 L 144 0.00043125 " transform="matrix(1, 0, 0, -1, 18, 154.0434)"/>
<g fill="rgb(13.729858%, 12.159729%, 12.548828%)" fill-opacity="1">
<use xlink:href="#glyph-0-0" x="0" y="154.0435"/>
</g>
<g fill="rgb(13.729858%, 12.159729%, 12.548828%)" fill-opacity="1">
<use xlink:href="#glyph-0-1" x="0" y="10.0435"/>
</g>
<g fill="rgb(13.729858%, 12.159729%, 12.548828%)" fill-opacity="1">
<use xlink:href="#glyph-0-2" x="171" y="10.0435"/>
</g>
<g fill="rgb(13.729858%, 12.159729%, 12.548828%)" fill-opacity="1">
<use xlink:href="#glyph-0-3" x="171" y="154.0435"/>
</g>
<g clip-path="url(#clip-0)">
<path fill-rule="nonzero" fill="rgb(13.729858%, 12.159729%, 12.548828%)" fill-opacity="1" d="M 9 154.042969 L 18 163.042969 L 27 154.042969 L 18 145.042969 Z M 9 154.042969 "/>
</g>
<path fill-rule="nonzero" fill="rgb(13.729858%, 12.159729%, 12.548828%)" fill-opacity="1" d="M 18 1.042969 L 9 10.042969 L 18 19.042969 L 27 10.042969 "/>
<path fill-rule="nonzero" fill="rgb(13.729858%, 12.159729%, 12.548828%)" fill-opacity="1" d="M 162 1.042969 L 153 10.042969 L 162 19.042969 L 171 10.042969 "/>
<g clip-path="url(#clip-1)">
<path fill-rule="nonzero" fill="rgb(13.729858%, 12.159729%, 12.548828%)" fill-opacity="1" d="M 153 154.042969 L 162 163.042969 L 171 154.042969 L 162 145.042969 Z M 153 154.042969 "/>
</g>
<g clip-path="url(#clip-2)">
<path fill="none" stroke-width="1" stroke-linecap="butt" stroke-linejoin="miter" stroke="rgb(13.729858%, 12.159729%, 12.548828%)" stroke-opacity="1" stroke-miterlimit="4" d="M 0 0.00043125 L 9 9.000431 L 18 0.00043125 L 9 -8.999569 " transform="matrix(1, 0, 0, -1, 153, 154.0434)"/>
</g>
<path fill="none" stroke-width="1" stroke-linecap="butt" stroke-linejoin="miter" stroke="rgb(13.729858%, 12.159729%, 12.548828%)" stroke-opacity="1" stroke-miterlimit="4" d="M 0 0.00043125 L 72 72.000431 L 144 0.00043125 " transform="matrix(1, 0, 0, -1, 18, 82.0434)"/>
<path fill="none" stroke-width="1" stroke-linecap="butt" stroke-linejoin="miter" stroke="rgb(13.729858%, 12.159729%, 12.548828%)" stroke-opacity="1" stroke-miterlimit="4" d="M 0 0.00043125 L 72 0.00043125 " transform="matrix(1, 0, 0, -1, 54, 46.0434)"/>
<path fill-rule="nonzero" fill="rgb(82.745361%, 82.43103%, 82.50885%)" fill-opacity="1" d="M 22.5 82.042969 C 22.5 84.527344 20.484375 86.542969 18 86.542969 C 15.515625 86.542969 13.5 84.527344 13.5 82.042969 C 13.5 79.558594 15.515625 77.542969 18 77.542969 C 20.484375 77.542969 22.5 79.558594 22.5 82.042969 "/>
<path fill="none" stroke-width="1" stroke-linecap="butt" stroke-linejoin="miter" stroke="rgb(13.729858%, 12.159729%, 12.548828%)" stroke-opacity="1" stroke-miterlimit="4" d="M 0 0.00043125 C 0 -2.483944 -2.015625 -4.499569 -4.5 -4.499569 C -6.984375 -4.499569 -9 -2.483944 -9 0.00043125 C -9 2.484806 -6.984375 4.500431 -4.5 4.500431 C -2.015625 4.500431 0 2.484806 0 0.00043125 Z M 0 0.00043125 " transform="matrix(1, 0, 0, -1, 22.5, 82.0434)"/>
<path fill-rule="nonzero" fill="rgb(82.745361%, 82.43103%, 82.50885%)" fill-opacity="1" d="M 94.5 10.042969 C 94.5 12.527344 92.484375 14.542969 90 14.542969 C 87.515625 14.542969 85.5 12.527344 85.5 10.042969 C 85.5 7.558594 87.515625 5.542969 90 5.542969 C 92.484375 5.542969 94.5 7.558594 94.5 10.042969 "/>
<path fill="none" stroke-width="1" stroke-linecap="butt" stroke-linejoin="miter" stroke="rgb(13.729858%, 12.159729%, 12.548828%)" stroke-opacity="1" stroke-miterlimit="4" d="M 0 0.00053125 C 0 -2.483844 -2.015625 -4.499469 -4.5 -4.499469 C -6.984375 -4.499469 -9 -2.483844 -9 0.00053125 C -9 2.484906 -6.984375 4.500531 -4.5 4.500531 C -2.015625 4.500531 0 2.484906 0 0.00053125 Z M 0 0.00053125 " transform="matrix(1, 0, 0, -1, 94.5, 10.0435)"/>
<path fill-rule="nonzero" fill="rgb(82.745361%, 82.43103%, 82.50885%)" fill-opacity="1" d="M 166.5 82.042969 C 166.5 84.527344 164.484375 86.542969 162 86.542969 C 159.515625 86.542969 157.5 84.527344 157.5 82.042969 C 157.5 79.558594 159.515625 77.542969 162 77.542969 C 164.484375 77.542969 166.5 79.558594 166.5 82.042969 "/>
<path fill="none" stroke-width="1" stroke-linecap="butt" stroke-linejoin="miter" stroke="rgb(13.729858%, 12.159729%, 12.548828%)" stroke-opacity="1" stroke-miterlimit="4" d="M 0 0.00043125 C 0 -2.483944 -2.015625 -4.499569 -4.5 -4.499569 C -6.984375 -4.499569 -9 -2.483944 -9 0.00043125 C -9 2.484806 -6.984375 4.500431 -4.5 4.500431 C -2.015625 4.500431 0 2.484806 0 0.00043125 Z M 0 0.00043125 " transform="matrix(1, 0, 0, -1, 166.5, 82.0434)"/>
<path fill-rule="nonzero" fill="rgb(100%, 100%, 100%)" fill-opacity="1" d="M 130.5 46.042969 C 130.5 48.527344 128.484375 50.542969 126 50.542969 C 123.515625 50.542969 121.5 48.527344 121.5 46.042969 C 121.5 43.558594 123.515625 41.542969 126 41.542969 C 128.484375 41.542969 130.5 43.558594 130.5 46.042969 "/>
<path fill="none" stroke-width="1" stroke-linecap="butt" stroke-linejoin="miter" stroke="rgb(13.729858%, 12.159729%, 12.548828%)" stroke-opacity="1" stroke-miterlimit="4" d="M 0 0.00043125 C 0 -2.483944 -2.015625 -4.499569 -4.5 -4.499569 C -6.984375 -4.499569 -9 -2.483944 -9 0.00043125 C -9 2.484806 -6.984375 4.500431 -4.5 4.500431 C -2.015625 4.500431 0 2.484806 0 0.00043125 Z M 0 0.00043125 " transform="matrix(1, 0, 0, -1, 130.5, 46.0434)"/>
<path fill-rule="nonzero" fill="rgb(100%, 100%, 100%)" fill-opacity="1" d="M 58.5 46.042969 C 58.5 48.527344 56.484375 50.542969 54 50.542969 C 51.515625 50.542969 49.5 48.527344 49.5 46.042969 C 49.5 43.558594 51.515625 41.542969 54 41.542969 C 56.484375 41.542969 58.5 43.558594 58.5 46.042969 "/>
<path fill="none" stroke-width="1" stroke-linecap="butt" stroke-linejoin="miter" stroke="rgb(13.729858%, 12.159729%, 12.548828%)" stroke-opacity="1" stroke-miterlimit="4" d="M 0 0.00043125 C 0 -2.483944 -2.015625 -4.499569 -4.5 -4.499569 C -6.984375 -4.499569 -9 -2.483944 -9 0.00043125 C -9 2.484806 -6.984375 4.500431 -4.5 4.500431 C -2.015625 4.500431 0 2.484806 0 0.00043125 Z M 0 0.00043125 " transform="matrix(1, 0, 0, -1, 58.5, 46.0434)"/>
<path fill-rule="nonzero" fill="rgb(13.729858%, 12.159729%, 12.548828%)" fill-opacity="1" d="M 94.5 46.042969 C 94.5 48.527344 92.484375 50.542969 90 50.542969 C 87.515625 50.542969 85.5 48.527344 85.5 46.042969 C 85.5 43.558594 87.515625 41.542969 90 41.542969 C 92.484375 41.542969 94.5 43.558594 94.5 46.042969 "/>
<path fill="none" stroke-width="1" stroke-linecap="butt" stroke-linejoin="miter" stroke="rgb(13.729858%, 12.159729%, 12.548828%)" stroke-opacity="1" stroke-miterlimit="4" d="M 0 0.00043125 C 0 -2.483944 -2.015625 -4.499569 -4.5 -4.499569 C -6.984375 -4.499569 -9 -2.483944 -9 0.00043125 C -9 2.484806 -6.984375 4.500431 -4.5 4.500431 C -2.015625 4.500431 0 2.484806 0 0.00043125 Z M 0 0.00043125 " transform="matrix(1, 0, 0, -1, 94.5, 46.0434)"/>
<path fill="none" stroke-width="1" stroke-linecap="butt" stroke-linejoin="miter" stroke="rgb(13.729858%, 12.159729%, 12.548828%)" stroke-opacity="1" stroke-miterlimit="4" d="M 0 0.00043125 L 0 144.000431 L -144 144.000431 L -144 0.00043125 " transform="matrix(1, 0, 0, -1, 414, 154.0434)"/>
<g fill="rgb(13.729858%, 12.159729%, 12.548828%)" fill-opacity="1">
<use xlink:href="#glyph-0-0" x="252" y="154.0435"/>
</g>
<g fill="rgb(13.729858%, 12.159729%, 12.548828%)" fill-opacity="1">
<use xlink:href="#glyph-0-1" x="252" y="10.0435"/>
</g>
<g fill="rgb(13.729858%, 12.159729%, 12.548828%)" fill-opacity="1">
<use xlink:href="#glyph-0-2" x="423" y="10.0435"/>
</g>
<g fill="rgb(13.729858%, 12.159729%, 12.548828%)" fill-opacity="1">
<use xlink:href="#glyph-0-3" x="423" y="154.0435"/>
</g>
<g clip-path="url(#clip-3)">
<path fill-rule="nonzero" fill="rgb(13.729858%, 12.159729%, 12.548828%)" fill-opacity="1" d="M 270 145.042969 L 261 154.042969 L 270 163.042969 L 279 154.042969 "/>
</g>
<path fill-rule="nonzero" fill="rgb(13.729858%, 12.159729%, 12.548828%)" fill-opacity="1" d="M 270 1.042969 L 261 10.042969 L 270 19.042969 L 279 10.042969 "/>
<path fill-rule="nonzero" fill="rgb(13.729858%, 12.159729%, 12.548828%)" fill-opacity="1" d="M 414 1.042969 L 405 10.042969 L 414 19.042969 L 423 10.042969 "/>
<g clip-path="url(#clip-4)">
<path fill-rule="nonzero" fill="rgb(13.729858%, 12.159729%, 12.548828%)" fill-opacity="1" d="M 405 154.042969 L 414 145.042969 L 423 154.042969 L 414 163.042969 "/>
</g>
<g clip-path="url(#clip-5)">
<path fill="none" stroke-width="1" stroke-linecap="butt" stroke-linejoin="miter" stroke="rgb(13.729858%, 12.159729%, 12.548828%)" stroke-opacity="1" stroke-miterlimit="4" d="M 0 0.00043125 L 9 9.000431 L 18 0.00043125 L 9 -8.999569 " transform="matrix(1, 0, 0, -1, 405, 154.0434)"/>
</g>
<path fill="none" stroke-width="1" stroke-linecap="butt" stroke-linejoin="miter" stroke="rgb(13.729858%, 12.159729%, 12.548828%)" stroke-opacity="1" stroke-miterlimit="4" d="M 0 0.00043125 L 72 72.000431 L 144 0.00043125 " transform="matrix(1, 0, 0, -1, 270, 82.0434)"/>
<path fill="none" stroke-width="1" stroke-linecap="butt" stroke-linejoin="miter" stroke="rgb(13.729858%, 12.159729%, 12.548828%)" stroke-opacity="1" stroke-miterlimit="4" d="M 0 0.00043125 L 72 0.00043125 " transform="matrix(1, 0, 0, -1, 306, 46.0434)"/>
<g clip-path="url(#clip-6)">
<path fill="none" stroke-width="3" stroke-linecap="butt" stroke-linejoin="miter" stroke="rgb(89.129639%, 88.9328%, 88.981628%)" stroke-opacity="1" stroke-miterlimit="4" d="M 0 0.00043125 C 0 144.000431 144 144.000431 144 0.00043125 " transform="matrix(1, 0, 0, -1, 270, 154.0434)"/>
</g>
<path fill="none" stroke-width="1" stroke-linecap="butt" stroke-linejoin="miter" stroke="rgb(65.492249%, 64.863586%, 65.019226%)" stroke-opacity="1" stroke-miterlimit="4" d="M 0 0.00043125 L 36 108.000431 L 144 72.000431 " transform="matrix(1, 0, 0, -1, 270, 118.0434)"/>
<path fill="none" stroke-width="1" stroke-linecap="butt" stroke-linejoin="miter" stroke="rgb(65.492249%, 64.863586%, 65.019226%)" stroke-opacity="1" stroke-miterlimit="4" d="M 0 0.00043125 L 54 72.000431 " transform="matrix(1, 0, 0, -1, 279, 91.0434)"/>
<path fill="none" stroke-width="1" stroke-linecap="butt" stroke-linejoin="miter" stroke="rgb(13.729858%, 12.159729%, 12.548828%)" stroke-opacity="1" stroke-dasharray="1 1" stroke-miterlimit="4" d="M -0.00099375 0.0004 L -36.000994 108.0004 L -144.000994 72.0004 " transform="matrix(1, 0, 0, -1, 413.7549, 118.1254)"/>
<path fill="none" stroke-width="1" stroke-linecap="butt" stroke-linejoin="miter" stroke="rgb(13.729858%, 12.159729%, 12.548828%)" stroke-opacity="1" stroke-dasharray="1 1" stroke-miterlimit="4" d="M -0.00099375 0.0004 L -54.000994 72.0004 " transform="matrix(1, 0, 0, -1, 404.7549, 91.1254)"/>
<path fill-rule="nonzero" fill="rgb(82.745361%, 82.43103%, 82.50885%)" fill-opacity="1" d="M 274.5 118.042969 C 274.5 120.527344 272.484375 122.542969 270 122.542969 C 267.515625 122.542969 265.5 120.527344 265.5 118.042969 C 265.5 115.558594 267.515625 113.542969 270 113.542969 C 272.484375 113.542969 274.5 115.558594 274.5 118.042969 "/>
<path fill="none" stroke-width="1" stroke-linecap="butt" stroke-linejoin="miter" stroke="rgb(13.729858%, 12.159729%, 12.548828%)" stroke-opacity="1" stroke-miterlimit="4" d="M 0 0.00043125 C 0 -2.483944 -2.015625 -4.499569 -4.5 -4.499569 C -6.984375 -4.499569 -9 -2.483944 -9 0.00043125 C -9 2.484806 -6.984375 4.500431 -4.5 4.500431 C -2.015625 4.500431 0 2.484806 0 0.00043125 Z M 0 0.00043125 " transform="matrix(1, 0, 0, -1, 274.5, 118.0434)"/>
<path fill-rule="nonzero" fill="rgb(82.745361%, 82.43103%, 82.50885%)" fill-opacity="1" d="M 310.5 10.042969 C 310.5 12.527344 308.484375 14.542969 306 14.542969 C 303.515625 14.542969 301.5 12.527344 301.5 10.042969 C 301.5 7.558594 303.515625 5.542969 306 5.542969 C 308.484375 5.542969 310.5 7.558594 310.5 10.042969 "/>
<path fill="none" stroke-width="1" stroke-linecap="butt" stroke-linejoin="miter" stroke="rgb(13.729858%, 12.159729%, 12.548828%)" stroke-opacity="1" stroke-miterlimit="4" d="M 0 0.00053125 C 0 -2.483844 -2.015625 -4.499469 -4.5 -4.499469 C -6.984375 -4.499469 -9 -2.483844 -9 0.00053125 C -9 2.484906 -6.984375 4.500531 -4.5 4.500531 C -2.015625 4.500531 0 2.484906 0 0.00053125 Z M 0 0.00053125 " transform="matrix(1, 0, 0, -1, 310.5, 10.0435)"/>
<path fill-rule="nonzero" fill="rgb(100%, 100%, 100%)" fill-opacity="1" d="M 382.253906 10.125 C 382.253906 12.609375 380.238281 14.625 377.753906 14.625 C 375.269531 14.625 373.253906 12.609375 373.253906 10.125 C 373.253906 7.640625 375.269531 5.625 377.753906 5.625 C 380.238281 5.625 382.253906 7.640625 382.253906 10.125 "/>
<path fill="none" stroke-width="1" stroke-linecap="butt" stroke-linejoin="miter" stroke="rgb(13.729858%, 12.159729%, 12.548828%)" stroke-opacity="1" stroke-miterlimit="4" d="M -0.00099375 0.0004 C -0.00099375 -2.483975 -2.016619 -4.4996 -4.500994 -4.4996 C -6.985369 -4.4996 -9.000994 -2.483975 -9.000994 0.0004 C -9.000994 2.484775 -6.985369 4.5004 -4.500994 4.5004 C -2.016619 4.5004 -0.00099375 2.484775 -0.00099375 0.0004 Z M -0.00099375 0.0004 " transform="matrix(1, 0, 0, -1, 382.2549, 10.1254)"/>
<path fill-rule="nonzero" fill="rgb(100%, 100%, 100%)" fill-opacity="1" d="M 355.253906 19.125 C 355.253906 21.609375 353.238281 23.625 350.753906 23.625 C 348.269531 23.625 346.253906 21.609375 346.253906 19.125 C 346.253906 16.640625 348.269531 14.625 350.753906 14.625 C 353.238281 14.625 355.253906 16.640625 355.253906 19.125 "/>
<path fill="none" stroke-width="1" stroke-linecap="butt" stroke-linejoin="miter" stroke="rgb(13.729858%, 12.159729%, 12.548828%)" stroke-opacity="1" stroke-miterlimit="4" d="M -0.00099375 0.0004 C -0.00099375 -2.483975 -2.016619 -4.4996 -4.500994 -4.4996 C -6.985369 -4.4996 -9.000994 -2.483975 -9.000994 0.0004 C -9.000994 2.484775 -6.985369 4.5004 -4.500994 4.5004 C -2.016619 4.5004 -0.00099375 2.484775 -0.00099375 0.0004 Z M -0.00099375 0.0004 " transform="matrix(1, 0, 0, -1, 355.2549, 19.1254)"/>
<path fill-rule="nonzero" fill="rgb(100%, 100%, 100%)" fill-opacity="1" d="M 409.253906 91.125 C 409.253906 93.609375 407.238281 95.625 404.753906 95.625 C 402.269531 95.625 400.253906 93.609375 400.253906 91.125 C 400.253906 88.640625 402.269531 86.625 404.753906 86.625 C 407.238281 86.625 409.253906 88.640625 409.253906 91.125 "/>
<path fill="none" stroke-width="1" stroke-linecap="butt" stroke-linejoin="miter" stroke="rgb(13.729858%, 12.159729%, 12.548828%)" stroke-opacity="1" stroke-miterlimit="4" d="M -0.00099375 0.0004 C -0.00099375 -2.483975 -2.016619 -4.4996 -4.500994 -4.4996 C -6.985369 -4.4996 -9.000994 -2.483975 -9.000994 0.0004 C -9.000994 2.484775 -6.985369 4.5004 -4.500994 4.5004 C -2.016619 4.5004 -0.00099375 2.484775 -0.00099375 0.0004 Z M -0.00099375 0.0004 " transform="matrix(1, 0, 0, -1, 409.2549, 91.1254)"/>
<path fill-rule="nonzero" fill="rgb(100%, 100%, 100%)" fill-opacity="1" d="M 392.007812 68.128906 C 392.007812 70.613281 389.992188 72.628906 387.507812 72.628906 C 385.019531 72.628906 383.007812 70.613281 383.007812 68.128906 C 383.007812 65.640625 385.019531 63.628906 387.507812 63.628906 C 389.992188 63.628906 392.007812 65.640625 392.007812 68.128906 "/>
<path fill="none" stroke-width="1" stroke-linecap="butt" stroke-linejoin="miter" stroke="rgb(13.729858%, 12.159729%, 12.548828%)" stroke-opacity="1" stroke-miterlimit="4" d="M 0.0019125 -0.00150625 C 0.0019125 -2.485881 -2.013712 -4.501506 -4.498087 -4.501506 C -6.986369 -4.501506 -8.998087 -2.485881 -8.998087 -0.00150625 C -8.998087 2.486775 -6.986369 4.498494 -4.498087 4.498494 C -2.013712 4.498494 0.0019125 2.486775 0.0019125 -0.00150625 Z M 0.0019125 -0.00150625 " transform="matrix(1, 0, 0, -1, 392.0059, 68.1274)"/>
<path fill-rule="nonzero" fill="rgb(100%, 100%, 100%)" fill-opacity="1" d="M 274.253906 46.125 C 274.253906 48.609375 272.238281 50.625 269.753906 50.625 C 267.269531 50.625 265.253906 48.609375 265.253906 46.125 C 265.253906 43.640625 267.269531 41.625 269.753906 41.625 C 272.238281 41.625 274.253906 43.640625 274.253906 46.125 "/>
<path fill="none" stroke-width="1" stroke-linecap="butt" stroke-linejoin="miter" stroke="rgb(13.729858%, 12.159729%, 12.548828%)" stroke-opacity="1" stroke-miterlimit="4" d="M -0.00099375 0.0004 C -0.00099375 -2.483975 -2.016619 -4.4996 -4.500994 -4.4996 C -6.985369 -4.4996 -9.000994 -2.483975 -9.000994 0.0004 C -9.000994 2.484775 -6.985369 4.5004 -4.500994 4.5004 C -2.016619 4.5004 -0.00099375 2.484775 -0.00099375 0.0004 Z M -0.00099375 0.0004 " transform="matrix(1, 0, 0, -1, 274.2549, 46.1254)"/>
<path fill-rule="nonzero" fill="rgb(100%, 100%, 100%)" fill-opacity="1" d="M 418.253906 118.125 C 418.253906 120.609375 416.238281 122.625 413.753906 122.625 C 411.269531 122.625 409.253906 120.609375 409.253906 118.125 C 409.253906 115.640625 411.269531 113.625 413.753906 113.625 C 416.238281 113.625 418.253906 115.640625 418.253906 118.125 "/>
<path fill="none" stroke-width="1" stroke-linecap="butt" stroke-linejoin="miter" stroke="rgb(13.729858%, 12.159729%, 12.548828%)" stroke-opacity="1" stroke-miterlimit="4" d="M -0.00099375 0.0004 C -0.00099375 -2.483975 -2.016619 -4.4996 -4.500994 -4.4996 C -6.985369 -4.4996 -9.000994 -2.483975 -9.000994 0.0004 C -9.000994 2.484775 -6.985369 4.5004 -4.500994 4.5004 C -2.016619 4.5004 -0.00099375 2.484775 -0.00099375 0.0004 Z M -0.00099375 0.0004 " transform="matrix(1, 0, 0, -1, 418.2549, 118.1254)"/>
<path fill-rule="nonzero" fill="rgb(82.745361%, 82.43103%, 82.50885%)" fill-opacity="1" d="M 418.5 46.042969 C 418.5 48.527344 416.484375 50.542969 414 50.542969 C 411.515625 50.542969 409.5 48.527344 409.5 46.042969 C 409.5 43.558594 411.515625 41.542969 414 41.542969 C 416.484375 41.542969 418.5 43.558594 418.5 46.042969 "/>
<path fill="none" stroke-width="1" stroke-linecap="butt" stroke-linejoin="miter" stroke="rgb(13.729858%, 12.159729%, 12.548828%)" stroke-opacity="1" stroke-miterlimit="4" d="M 0 0.00043125 C 0 -2.483944 -2.015625 -4.499569 -4.5 -4.499569 C -6.984375 -4.499569 -9 -2.483944 -9 0.00043125 C -9 2.484806 -6.984375 4.500431 -4.5 4.500431 C -2.015625 4.500431 0 2.484806 0 0.00043125 Z M 0 0.00043125 " transform="matrix(1, 0, 0, -1, 418.5, 46.0434)"/>
<path fill-rule="nonzero" fill="rgb(82.745361%, 82.43103%, 82.50885%)" fill-opacity="1" d="M 297 73.042969 C 297 75.527344 294.984375 77.542969 292.5 77.542969 C 290.015625 77.542969 288 75.527344 288 73.042969 C 288 70.558594 290.015625 68.542969 292.5 68.542969 C 294.984375 68.542969 297 70.558594 297 73.042969 "/>
<path fill="none" stroke-width="1" stroke-linecap="butt" stroke-linejoin="miter" stroke="rgb(13.729858%, 12.159729%, 12.548828%)" stroke-opacity="1" stroke-miterlimit="4" d="M 0 0.00043125 C 0 -2.483944 -2.015625 -4.499569 -4.5 -4.499569 C -6.984375 -4.499569 -9 -2.483944 -9 0.00043125 C -9 2.484806 -6.984375 4.500431 -4.5 4.500431 C -2.015625 4.500431 0 2.484806 0 0.00043125 Z M 0 0.00043125 " transform="matrix(1, 0, 0, -1, 297, 73.0434)"/>
<path fill-rule="nonzero" fill="rgb(82.745361%, 82.43103%, 82.50885%)" fill-opacity="1" d="M 283.5 91.042969 C 283.5 93.527344 281.484375 95.542969 279 95.542969 C 276.515625 95.542969 274.5 93.527344 274.5 91.042969 C 274.5 88.558594 276.515625 86.542969 279 86.542969 C 281.484375 86.542969 283.5 88.558594 283.5 91.042969 "/>
<path fill="none" stroke-width="1" stroke-linecap="butt" stroke-linejoin="miter" stroke="rgb(13.729858%, 12.159729%, 12.548828%)" stroke-opacity="1" stroke-miterlimit="4" d="M 0 0.00043125 C 0 -2.483944 -2.015625 -4.499569 -4.5 -4.499569 C -6.984375 -4.499569 -9 -2.483944 -9 0.00043125 C -9 2.484806 -6.984375 4.500431 -4.5 4.500431 C -2.015625 4.500431 0 2.484806 0 0.00043125 Z M 0 0.00043125 " transform="matrix(1, 0, 0, -1, 283.5, 91.0434)"/>
<path fill-rule="nonzero" fill="rgb(82.745361%, 82.43103%, 82.50885%)" fill-opacity="1" d="M 337.5 19.042969 C 337.5 21.527344 335.484375 23.542969 333 23.542969 C 330.515625 23.542969 328.5 21.527344 328.5 19.042969 C 328.5 16.558594 330.515625 14.542969 333 14.542969 C 335.484375 14.542969 337.5 16.558594 337.5 19.042969 "/>
<path fill="none" stroke-width="1" stroke-linecap="butt" stroke-linejoin="miter" stroke="rgb(13.729858%, 12.159729%, 12.548828%)" stroke-opacity="1" stroke-miterlimit="4" d="M 0 0.00053125 C 0 -2.483844 -2.015625 -4.499469 -4.5 -4.499469 C -6.984375 -4.499469 -9 -2.483844 -9 0.00053125 C -9 2.484906 -6.984375 4.500531 -4.5 4.500531 C -2.015625 4.500531 0 2.484906 0 0.00053125 Z M 0 0.00053125 " transform="matrix(1, 0, 0, -1, 337.5, 19.0435)"/>
<path fill-rule="nonzero" fill="rgb(13.729858%, 12.159729%, 12.548828%)" fill-opacity="1" d="M 346.5 46.042969 C 346.5 48.527344 344.484375 50.542969 342 50.542969 C 339.515625 50.542969 337.5 48.527344 337.5 46.042969 C 337.5 43.558594 339.515625 41.542969 342 41.542969 C 344.484375 41.542969 346.5 43.558594 346.5 46.042969 "/>
<path fill="none" stroke-width="1" stroke-linecap="butt" stroke-linejoin="miter" stroke="rgb(13.729858%, 12.159729%, 12.548828%)" stroke-opacity="1" stroke-miterlimit="4" d="M 0 0.00043125 C 0 -2.483944 -2.015625 -4.499569 -4.5 -4.499569 C -6.984375 -4.499569 -9 -2.483944 -9 0.00043125 C -9 2.484806 -6.984375 4.500431 -4.5 4.500431 C -2.015625 4.500431 0 2.484806 0 0.00043125 Z M 0 0.00043125 " transform="matrix(1, 0, 0, -1, 346.5, 46.0434)"/>
<path fill-rule="nonzero" fill="rgb(13.729858%, 12.159729%, 12.548828%)" fill-opacity="1" d="M 418.5 82.042969 C 418.5 84.527344 416.484375 86.542969 414 86.542969 C 411.515625 86.542969 409.5 84.527344 409.5 82.042969 C 409.5 79.558594 411.515625 77.542969 414 77.542969 C 416.484375 77.542969 418.5 79.558594 418.5 82.042969 "/>
<path fill="none" stroke-width="1" stroke-linecap="butt" stroke-linejoin="miter" stroke="rgb(13.729858%, 12.159729%, 12.548828%)" stroke-opacity="1" stroke-miterlimit="4" d="M 0 0.00043125 C 0 -2.483944 -2.015625 -4.499569 -4.5 -4.499569 C -6.984375 -4.499569 -9 -2.483944 -9 0.00043125 C -9 2.484806 -6.984375 4.500431 -4.5 4.500431 C -2.015625 4.500431 0 2.484806 0 0.00043125 Z M 0 0.00043125 " transform="matrix(1, 0, 0, -1, 418.5, 82.0434)"/>
<path fill-rule="nonzero" fill="rgb(13.729858%, 12.159729%, 12.548828%)" fill-opacity="1" d="M 382.5 46.042969 C 382.5 48.527344 380.484375 50.542969 378 50.542969 C 375.515625 50.542969 373.5 48.527344 373.5 46.042969 C 373.5 43.558594 375.515625 41.542969 378 41.542969 C 380.484375 41.542969 382.5 43.558594 382.5 46.042969 "/>
<path fill="none" stroke-width="1" stroke-linecap="butt" stroke-linejoin="miter" stroke="rgb(13.729858%, 12.159729%, 12.548828%)" stroke-opacity="1" stroke-miterlimit="4" d="M 0 0.00043125 C 0 -2.483944 -2.015625 -4.499569 -4.5 -4.499569 C -6.984375 -4.499569 -9 -2.483944 -9 0.00043125 C -9 2.484806 -6.984375 4.500431 -4.5 4.500431 C -2.015625 4.500431 0 2.484806 0 0.00043125 Z M 0 0.00043125 " transform="matrix(1, 0, 0, -1, 382.5, 46.0434)"/>
<path fill-rule="nonzero" fill="rgb(13.729858%, 12.159729%, 12.548828%)" fill-opacity="1" d="M 310.5 46.042969 C 310.5 48.527344 308.484375 50.542969 306 50.542969 C 303.515625 50.542969 301.5 48.527344 301.5 46.042969 C 301.5 43.558594 303.515625 41.542969 306 41.542969 C 308.484375 41.542969 310.5 43.558594 310.5 46.042969 "/>
<path fill="none" stroke-width="1" stroke-linecap="butt" stroke-linejoin="miter" stroke="rgb(13.729858%, 12.159729%, 12.548828%)" stroke-opacity="1" stroke-miterlimit="4" d="M 0 0.00043125 C 0 -2.483944 -2.015625 -4.499569 -4.5 -4.499569 C -6.984375 -4.499569 -9 -2.483944 -9 0.00043125 C -9 2.484806 -6.984375 4.500431 -4.5 4.500431 C -2.015625 4.500431 0 2.484806 0 0.00043125 Z M 0 0.00043125 " transform="matrix(1, 0, 0, -1, 310.5, 46.0434)"/>
<path fill-rule="nonzero" fill="rgb(13.729858%, 12.159729%, 12.548828%)" fill-opacity="1" d="M 346.5 10.042969 C 346.5 12.527344 344.484375 14.542969 342 14.542969 C 339.515625 14.542969 337.5 12.527344 337.5 10.042969 C 337.5 7.558594 339.515625 5.542969 342 5.542969 C 344.484375 5.542969 346.5 7.558594 346.5 10.042969 "/>
<path fill="none" stroke-width="1" stroke-linecap="butt" stroke-linejoin="miter" stroke="rgb(13.729858%, 12.159729%, 12.548828%)" stroke-opacity="1" stroke-miterlimit="4" d="M 0 0.00053125 C 0 -2.483844 -2.015625 -4.499469 -4.5 -4.499469 C -6.984375 -4.499469 -9 -2.483844 -9 0.00053125 C -9 2.484906 -6.984375 4.500531 -4.5 4.500531 C -2.015625 4.500531 0 2.484906 0 0.00053125 Z M 0 0.00053125 " transform="matrix(1, 0, 0, -1, 346.5, 10.0435)"/>
<path fill-rule="nonzero" fill="rgb(13.729858%, 12.159729%, 12.548828%)" fill-opacity="1" d="M 274.5 82.042969 C 274.5 84.527344 272.484375 86.542969 270 86.542969 C 267.515625 86.542969 265.5 84.527344 265.5 82.042969 C 265.5 79.558594 267.515625 77.542969 270 77.542969 C 272.484375 77.542969 274.5 79.558594 274.5 82.042969 "/>
<path fill="none" stroke-width="1" stroke-linecap="butt" stroke-linejoin="miter" stroke="rgb(13.729858%, 12.159729%, 12.548828%)" stroke-opacity="1" stroke-miterlimit="4" d="M 0 0.00043125 C 0 -2.483944 -2.015625 -4.499569 -4.5 -4.499569 C -6.984375 -4.499569 -9 -2.483944 -9 0.00043125 C -9 2.484806 -6.984375 4.500431 -4.5 4.500431 C -2.015625 4.500431 0 2.484806 0 0.00043125 Z M 0 0.00043125 " transform="matrix(1, 0, 0, -1, 274.5, 82.0434)"/>
</svg>
