<?xml version="1.0" encoding="UTF-8"?>
<svg xmlns="http://www.w3.org/2000/svg" xmlns:xlink="http://www.w3.org/1999/xlink" width="87.5403pt" height="113.736pt" viewBox="0 0 87.5403 113.736">
<defs>
<g>
<g id="glyph-0-0">
<path d="M 3.71875 0 L 2.84375 0 L 2.84375 -5.59375 C 2.632812 -5.394531 2.359375 -5.191406 2.015625 -4.984375 C 1.671875 -4.785156 1.363281 -4.640625 1.09375 -4.546875 L 1.09375 -5.390625 C 1.582031 -5.617188 2.007812 -5.894531 2.375 -6.21875 C 2.75 -6.550781 3.007812 -6.875 3.15625 -7.1875 L 3.71875 -7.1875 Z M 3.71875 0 "/>
</g>
<g id="glyph-0-1">
<path d="M 5.03125 -0.84375 L 5.03125 0 L 0.296875 0 C 0.296875 -0.207031 0.332031 -0.410156 0.40625 -0.609375 C 0.53125 -0.929688 0.722656 -1.25 0.984375 -1.5625 C 1.242188 -1.875 1.628906 -2.234375 2.140625 -2.640625 C 2.910156 -3.285156 3.429688 -3.789062 3.703125 -4.15625 C 3.984375 -4.53125 4.125 -4.882812 4.125 -5.21875 C 4.125 -5.570312 4 -5.863281 3.75 -6.09375 C 3.5 -6.332031 3.175781 -6.453125 2.78125 -6.453125 C 2.351562 -6.453125 2.007812 -6.328125 1.75 -6.078125 C 1.5 -5.828125 1.375 -5.476562 1.375 -5.03125 L 0.46875 -5.125 C 0.53125 -5.789062 0.757812 -6.300781 1.15625 -6.65625 C 1.5625 -7.007812 2.109375 -7.1875 2.796875 -7.1875 C 3.484375 -7.1875 4.023438 -6.992188 4.421875 -6.609375 C 4.828125 -6.234375 5.03125 -5.765625 5.03125 -5.203125 C 5.03125 -4.910156 4.96875 -4.625 4.84375 -4.34375 C 4.726562 -4.070312 4.535156 -3.78125 4.265625 -3.46875 C 3.992188 -3.164062 3.539062 -2.75 2.90625 -2.21875 C 2.382812 -1.78125 2.046875 -1.476562 1.890625 -1.3125 C 1.742188 -1.15625 1.625 -1 1.53125 -0.84375 Z M 5.03125 -0.84375 "/>
</g>
<g id="glyph-0-2">
<path d="M 0.421875 -1.890625 L 1.296875 -2 C 1.398438 -1.507812 1.570312 -1.148438 1.8125 -0.921875 C 2.050781 -0.703125 2.347656 -0.59375 2.703125 -0.59375 C 3.117188 -0.59375 3.46875 -0.734375 3.75 -1.015625 C 4.03125 -1.304688 4.171875 -1.664062 4.171875 -2.09375 C 4.171875 -2.5 4.039062 -2.832031 3.78125 -3.09375 C 3.519531 -3.351562 3.1875 -3.484375 2.78125 -3.484375 C 2.613281 -3.484375 2.40625 -3.453125 2.15625 -3.390625 L 2.25 -4.15625 C 2.3125 -4.15625 2.359375 -4.15625 2.390625 -4.15625 C 2.765625 -4.15625 3.101562 -4.25 3.40625 -4.4375 C 3.707031 -4.632812 3.859375 -4.9375 3.859375 -5.34375 C 3.859375 -5.664062 3.75 -5.929688 3.53125 -6.140625 C 3.3125 -6.359375 3.03125 -6.46875 2.6875 -6.46875 C 2.34375 -6.46875 2.054688 -6.359375 1.828125 -6.140625 C 1.597656 -5.929688 1.453125 -5.609375 1.390625 -5.171875 L 0.515625 -5.328125 C 0.617188 -5.921875 0.859375 -6.378906 1.234375 -6.703125 C 1.617188 -7.023438 2.09375 -7.1875 2.65625 -7.1875 C 3.050781 -7.1875 3.410156 -7.101562 3.734375 -6.9375 C 4.066406 -6.769531 4.316406 -6.539062 4.484375 -6.25 C 4.660156 -5.957031 4.75 -5.648438 4.75 -5.328125 C 4.75 -5.015625 4.664062 -4.734375 4.5 -4.484375 C 4.34375 -4.234375 4.097656 -4.03125 3.765625 -3.875 C 4.191406 -3.78125 4.519531 -3.578125 4.75 -3.265625 C 4.988281 -2.960938 5.109375 -2.578125 5.109375 -2.109375 C 5.109375 -1.484375 4.878906 -0.953125 4.421875 -0.515625 C 3.960938 -0.0859375 3.390625 0.125 2.703125 0.125 C 2.066406 0.125 1.539062 -0.0625 1.125 -0.4375 C 0.71875 -0.8125 0.484375 -1.296875 0.421875 -1.890625 Z M 0.421875 -1.890625 "/>
</g>
<g id="glyph-0-3">
<path d="M 3.234375 0 L 3.234375 -1.71875 L 0.125 -1.71875 L 0.125 -2.515625 L 3.390625 -7.15625 L 4.109375 -7.15625 L 4.109375 -2.515625 L 5.078125 -2.515625 L 5.078125 -1.71875 L 4.109375 -1.71875 L 4.109375 0 Z M 3.234375 -2.515625 L 3.234375 -5.75 L 0.984375 -2.515625 Z M 3.234375 -2.515625 "/>
</g>
<g id="glyph-0-4">
<path d="M 0.421875 -1.875 L 1.34375 -1.953125 C 1.40625 -1.503906 1.5625 -1.164062 1.8125 -0.9375 C 2.0625 -0.707031 2.363281 -0.59375 2.71875 -0.59375 C 3.132812 -0.59375 3.488281 -0.753906 3.78125 -1.078125 C 4.082031 -1.398438 4.234375 -1.820312 4.234375 -2.34375 C 4.234375 -2.84375 4.09375 -3.238281 3.8125 -3.53125 C 3.53125 -3.820312 3.160156 -3.96875 2.703125 -3.96875 C 2.421875 -3.96875 2.164062 -3.898438 1.9375 -3.765625 C 1.707031 -3.640625 1.523438 -3.476562 1.390625 -3.28125 L 0.578125 -3.390625 L 1.265625 -7.0625 L 4.828125 -7.0625 L 4.828125 -6.21875 L 1.96875 -6.21875 L 1.578125 -4.296875 C 2.015625 -4.597656 2.46875 -4.75 2.9375 -4.75 C 3.5625 -4.75 4.085938 -4.53125 4.515625 -4.09375 C 4.941406 -3.664062 5.15625 -3.109375 5.15625 -2.421875 C 5.15625 -1.773438 4.96875 -1.21875 4.59375 -0.75 C 4.132812 -0.164062 3.507812 0.125 2.71875 0.125 C 2.0625 0.125 1.523438 -0.0546875 1.109375 -0.421875 C 0.703125 -0.785156 0.472656 -1.269531 0.421875 -1.875 Z M 0.421875 -1.875 "/>
</g>
</g>
<clipPath id="clip-0">
<path clip-rule="nonzero" d="M 70 15 L 87.539062 15 L 87.539062 35 L 70 35 Z M 70 15 "/>
</clipPath>
<clipPath id="clip-1">
<path clip-rule="nonzero" d="M 70 87 L 87.539062 87 L 87.539062 107 L 70 107 Z M 70 87 "/>
</clipPath>
<clipPath id="clip-2">
<path clip-rule="nonzero" d="M 0 0 L 87.539062 0 L 87.539062 109 L 0 109 Z M 0 0 "/>
</clipPath>
</defs>
<path fill="none" stroke-width="1" stroke-linecap="butt" stroke-linejoin="miter" stroke="rgb(78.431702%, 78.039551%, 78.137207%)" stroke-opacity="1" stroke-miterlimit="4" d="M -0.00066875 0.00061875 L -8.000669 -7.999381 " transform="matrix(1, 0, 0, -1, 11.7702, 92.9889)"/>
<path fill="none" stroke-width="1" stroke-linecap="butt" stroke-linejoin="miter" stroke="rgb(78.431702%, 78.039551%, 78.137207%)" stroke-opacity="1" stroke-miterlimit="4" d="M -0.00066875 0.00061875 L 7.999331 -7.999381 " transform="matrix(1, 0, 0, -1, 3.7702, 92.9889)"/>
<path fill="none" stroke-width="1" stroke-linecap="butt" stroke-linejoin="miter" stroke="rgb(78.431702%, 78.039551%, 78.137207%)" stroke-opacity="1" stroke-miterlimit="4" d="M -0.00066875 0.00061875 L -8.000669 -7.999381 " transform="matrix(1, 0, 0, -1, 11.7702, 20.9889)"/>
<path fill="none" stroke-width="1" stroke-linecap="butt" stroke-linejoin="miter" stroke="rgb(78.431702%, 78.039551%, 78.137207%)" stroke-opacity="1" stroke-miterlimit="4" d="M -0.00066875 0.00061875 L 7.999331 -7.999381 " transform="matrix(1, 0, 0, -1, 3.7702, 20.9889)"/>
<path fill="none" stroke-width="1" stroke-linecap="butt" stroke-linejoin="miter" stroke="rgb(78.431702%, 78.039551%, 78.137207%)" stroke-opacity="1" stroke-miterlimit="4" d="M -0.00066875 0.00061875 L -8.000669 -7.999381 " transform="matrix(1, 0, 0, -1, 47.7702, 92.9889)"/>
<path fill="none" stroke-width="1" stroke-linecap="butt" stroke-linejoin="miter" stroke="rgb(78.431702%, 78.039551%, 78.137207%)" stroke-opacity="1" stroke-miterlimit="4" d="M -0.00066875 0.00061875 L 7.999331 -7.999381 " transform="matrix(1, 0, 0, -1, 39.7702, 92.9889)"/>
<g clip-path="url(#clip-0)">
<path fill="none" stroke-width="1" stroke-linecap="butt" stroke-linejoin="miter" stroke="rgb(78.431702%, 78.039551%, 78.137207%)" stroke-opacity="1" stroke-miterlimit="4" d="M -0.00066875 0.00061875 L -8.000669 -7.999381 " transform="matrix(1, 0, 0, -1, 83.7702, 20.9889)"/>
<path fill="none" stroke-width="1" stroke-linecap="butt" stroke-linejoin="miter" stroke="rgb(78.431702%, 78.039551%, 78.137207%)" stroke-opacity="1" stroke-miterlimit="4" d="M -0.00066875 0.00061875 L 7.999331 -7.999381 " transform="matrix(1, 0, 0, -1, 75.7702, 20.9889)"/>
</g>
<g clip-path="url(#clip-1)">
<path fill="none" stroke-width="1" stroke-linecap="butt" stroke-linejoin="miter" stroke="rgb(78.431702%, 78.039551%, 78.137207%)" stroke-opacity="1" stroke-miterlimit="4" d="M -0.00066875 0.00061875 L -8.000669 -7.999381 " transform="matrix(1, 0, 0, -1, 83.7702, 92.9889)"/>
<path fill="none" stroke-width="1" stroke-linecap="butt" stroke-linejoin="miter" stroke="rgb(78.431702%, 78.039551%, 78.137207%)" stroke-opacity="1" stroke-miterlimit="4" d="M -0.00066875 0.00061875 L 7.999331 -7.999381 " transform="matrix(1, 0, 0, -1, 75.7702, 92.9889)"/>
</g>
<g clip-path="url(#clip-2)">
<path fill="none" stroke-width="2" stroke-linecap="butt" stroke-linejoin="miter" stroke="rgb(13.729858%, 12.159729%, 12.548828%)" stroke-opacity="1" stroke-miterlimit="4" d="M -0.00066875 0.00061875 C -0.442075 5.633431 -1.879575 23.938119 -2.6452 33.789681 C -3.414731 43.637338 -4.063169 51.899056 -4.606138 59.098275 C -5.153013 66.297494 -5.586606 72.094369 -5.922544 76.9889 C -6.258481 81.887338 -6.485044 85.555306 -6.625669 88.473275 C -6.762388 91.391244 -6.797544 93.250619 -6.750669 94.500619 C -6.703794 95.746713 -6.559263 96.094369 -6.336606 95.961556 C -6.11395 95.828744 -5.80145 94.942025 -5.418638 93.695931 C -5.035825 92.445931 -4.567075 90.586556 -4.031919 88.473275 C -3.496763 86.3639 -2.887388 83.766244 -2.215513 81.02015 C -1.543638 78.274056 -0.797544 75.168588 -0.00066875 72.000619 C 0.796206 68.83265 1.663394 65.410775 2.57355 62.012338 C 3.487612 58.6139 4.456362 55.063119 5.471987 51.609994 C 6.487612 48.152963 7.554019 44.637338 8.659487 41.277963 C 9.76105 37.918588 10.913394 34.578744 12.096987 31.449838 C 13.276675 28.320931 14.503237 25.285775 15.749331 22.500619 C 16.999331 19.715463 18.280581 17.090463 19.585269 14.746713 C 20.88605 12.402963 22.218081 10.27015 23.561831 8.445931 C 24.905581 6.621713 26.272769 5.0514 27.647769 3.8014 C 29.022769 2.555306 30.413394 1.590463 31.807925 0.95765 C 33.19855 0.324838 34.600894 0.00061875 35.999331 0.00061875 C 37.397769 0.00061875 38.800112 0.324838 40.194644 0.95765 C 41.585269 1.590463 42.9798 2.555306 44.350894 3.8014 C 45.725894 5.0514 47.093081 6.621713 48.436831 8.445931 C 49.780581 10.27015 51.112612 12.402963 52.4173 14.746713 C 53.718081 17.090463 55.003237 19.715463 56.249331 22.500619 C 57.499331 25.285775 58.721987 28.320931 59.905581 31.449838 C 61.085269 34.578744 62.237612 37.918588 63.343081 41.277963 C 64.444644 44.637338 65.51105 48.152963 66.526675 51.609994 C 67.5423 55.063119 68.514956 58.6139 69.425112 62.012338 C 70.339175 65.410775 71.202456 68.83265 71.999331 72.000619 C 72.796206 75.168588 73.5423 78.274056 74.214175 81.02015 C 74.88605 83.766244 75.499331 86.3639 76.030581 88.473275 C 76.565737 90.586556 77.034487 92.445931 77.4173 93.695931 C 77.800112 94.942025 78.112612 95.828744 78.335269 95.961556 C 78.557925 96.094369 78.702456 95.746713 78.749331 94.500619 C 78.796206 93.250619 78.76105 91.391244 78.624331 88.473275 C 78.487612 85.555306 78.257144 81.887338 77.921206 76.9889 C 77.585269 72.094369 77.151675 66.297494 76.608706 59.098275 C 76.061831 51.899056 75.413394 43.637338 74.647769 33.789681 C 73.878237 23.938119 72.440737 5.633431 71.999331 0.00061875 " transform="matrix(1, 0, 0, -1, 7.7702, 96.9889)"/>
</g>
<g fill="rgb(6.29425%, 5.767822%, 5.058289%)" fill-opacity="1">
<use xlink:href="#glyph-0-0" x="4.9893" y="110.4889"/>
</g>
<g fill="rgb(6.29425%, 5.767822%, 5.058289%)" fill-opacity="1">
<use xlink:href="#glyph-0-1" x="13.9893" y="27.2389"/>
</g>
<g fill="rgb(6.29425%, 5.767822%, 5.058289%)" fill-opacity="1">
<use xlink:href="#glyph-0-2" x="40.9893" y="110.4889"/>
</g>
<g fill="rgb(6.29425%, 5.767822%, 5.058289%)" fill-opacity="1">
<use xlink:href="#glyph-0-3" x="67.9888" y="27.2389"/>
</g>
<g fill="rgb(6.29425%, 5.767822%, 5.058289%)" fill-opacity="1">
<use xlink:href="#glyph-0-4" x="76.9888" y="110.4889"/>
</g>
</svg>
