<?xml version="1.0" encoding="UTF-8"?>
<svg xmlns="http://www.w3.org/2000/svg" xmlns:xlink="http://www.w3.org/1999/xlink" width="294.938pt" height="169.371pt" viewBox="0 0 294.938 169.371">
<defs>
<g>
<g id="glyph-0-0">
<path d="M 0.875 2.375 L 1.921875 2.375 L 1.921875 -0.78125 L 1.9375 -0.78125 C 2.296875 -0.203125 2.96875 0.125 3.734375 0.125 C 5.09375 0.125 6.375 -0.90625 6.375 -2.984375 C 6.375 -4.75 5.3125 -5.9375 3.90625 -5.9375 C 2.96875 -5.9375 2.28125 -5.515625 1.84375 -4.8125 L 1.828125 -4.8125 L 1.78125 -5.8125 L 0.828125 -5.8125 C 0.859375 -5.25 0.875 -4.65625 0.875 -3.90625 Z M 1.921875 -3.359375 C 1.921875 -3.5 1.953125 -3.65625 1.984375 -3.796875 C 2.203125 -4.578125 2.875 -5.09375 3.59375 -5.09375 C 4.703125 -5.09375 5.3125 -4.109375 5.3125 -2.9375 C 5.3125 -1.609375 4.671875 -0.703125 3.546875 -0.703125 C 2.796875 -0.703125 2.15625 -1.203125 1.96875 -1.9375 C 1.9375 -2.0625 1.921875 -2.203125 1.921875 -2.359375 Z M 1.921875 -3.359375 "/>
</g>
<g id="glyph-0-1">
<path d="M 3.140625 -7.9375 C 1.5625 -7.9375 0.4375 -6.484375 0.4375 -3.875 C 0.453125 -1.296875 1.484375 0.125 3.015625 0.125 C 4.734375 0.125 5.71875 -1.328125 5.71875 -3.984375 C 5.71875 -6.46875 4.78125 -7.9375 3.140625 -7.9375 Z M 3.078125 -7.109375 C 4.171875 -7.109375 4.671875 -5.859375 4.671875 -3.9375 C 4.671875 -1.9375 4.15625 -0.6875 3.078125 -0.6875 C 2.109375 -0.6875 1.484375 -1.84375 1.484375 -3.859375 C 1.484375 -5.984375 2.15625 -7.109375 3.078125 -7.109375 Z M 3.078125 -7.109375 "/>
</g>
<g id="glyph-0-2">
<path d="M 2.828125 0 L 3.859375 0 L 3.859375 -7.796875 L 2.953125 -7.796875 L 1.25 -6.890625 L 1.453125 -6.078125 L 2.8125 -6.8125 L 2.828125 -6.8125 Z M 2.828125 0 "/>
</g>
<g id="glyph-0-3">
<path d="M 5.515625 0 L 5.515625 -0.875 L 2.015625 -0.875 L 2.015625 -0.90625 L 2.640625 -1.46875 C 4.28125 -3.0625 5.328125 -4.21875 5.328125 -5.65625 C 5.328125 -6.78125 4.625 -7.9375 2.9375 -7.9375 C 2.046875 -7.9375 1.265625 -7.59375 0.734375 -7.140625 L 1.0625 -6.390625 C 1.421875 -6.703125 2.015625 -7.0625 2.71875 -7.0625 C 3.890625 -7.0625 4.265625 -6.328125 4.265625 -5.53125 C 4.265625 -4.359375 3.359375 -3.34375 1.375 -1.453125 L 0.546875 -0.640625 L 0.546875 0 Z M 5.515625 0 "/>
</g>
<g id="glyph-0-4">
<path d="M 0.5 -0.390625 C 0.890625 -0.140625 1.65625 0.125 2.53125 0.125 C 4.40625 0.125 5.375 -0.953125 5.375 -2.203125 C 5.375 -3.296875 4.59375 -4.015625 3.640625 -4.21875 L 3.640625 -4.234375 C 4.59375 -4.578125 5.078125 -5.265625 5.078125 -6.078125 C 5.078125 -7.015625 4.375 -7.9375 2.84375 -7.9375 C 2 -7.9375 1.21875 -7.625 0.796875 -7.328125 L 1.078125 -6.5625 C 1.421875 -6.796875 2.015625 -7.078125 2.640625 -7.078125 C 3.609375 -7.078125 4.015625 -6.53125 4.015625 -5.90625 C 4.015625 -4.984375 3.03125 -4.578125 2.265625 -4.578125 L 1.6875 -4.578125 L 1.6875 -3.796875 L 2.265625 -3.796875 C 3.28125 -3.796875 4.265625 -3.328125 4.28125 -2.234375 C 4.296875 -1.578125 3.875 -0.71875 2.515625 -0.71875 C 1.78125 -0.71875 1.09375 -1.015625 0.796875 -1.21875 Z M 0.5 -0.390625 "/>
</g>
<g id="glyph-1-0">
<path d="M 2.53125 0.109375 L 2.9375 -0.84375 L 0.03125 -2.0625 L 0.03125 -2.078125 C 0.703125 -2.203125 1.265625 -2.6875 1.5625 -3.390625 C 2.078125 -4.65625 1.640625 -6.21875 -0.28125 -7.03125 C -1.90625 -7.71875 -3.40625 -7.1875 -3.953125 -5.890625 C -4.3125 -5.03125 -4.1875 -4.25 -3.71875 -3.5625 L -3.734375 -3.546875 L -4.671875 -3.890625 L -5.03125 -3.015625 C -4.515625 -2.828125 -3.953125 -2.609375 -3.25 -2.328125 Z M -2.34375 -3.0625 C -2.484375 -3.125 -2.625 -3.21875 -2.734375 -3.296875 C -3.359375 -3.8125 -3.59375 -4.625 -3.3125 -5.28125 C -2.875 -6.296875 -1.71875 -6.484375 -0.640625 -6.03125 C 0.578125 -5.515625 1.171875 -4.578125 0.734375 -3.53125 C 0.4375 -2.84375 -0.28125 -2.453125 -1.015625 -2.5625 C -1.15625 -2.578125 -1.28125 -2.625 -1.421875 -2.671875 Z M -2.34375 -3.0625 "/>
</g>
<g id="glyph-1-1">
<path d="M -6.09375 -5.96875 C -6.703125 -4.515625 -5.8125 -2.921875 -3.40625 -1.90625 C -1.03125 -0.921875 0.6875 -1.328125 1.28125 -2.734375 C 1.9375 -4.3125 1 -5.78125 -1.453125 -6.8125 C -3.75 -7.765625 -5.453125 -7.484375 -6.09375 -5.96875 Z M -5.359375 -5.59375 C -4.9375 -6.59375 -3.59375 -6.578125 -1.8125 -5.84375 C 0.03125 -5.0625 0.96875 -4.09375 0.546875 -3.109375 C 0.171875 -2.203125 -1.125 -2.09375 -2.984375 -2.875 C -4.9375 -3.6875 -5.71875 -4.734375 -5.359375 -5.59375 Z M -5.359375 -5.59375 "/>
</g>
<g id="glyph-2-0">
<path d="M 1.09375 -2.609375 L 1.5 -3.5625 L -5.6875 -6.578125 L -6.046875 -5.734375 L -5.875 -3.828125 L -5.046875 -3.703125 L -5.1875 -5.234375 L -5.1875 -5.25 Z M 1.09375 -2.609375 "/>
</g>
<g id="glyph-2-1">
<path d="M -3.21875 -1.734375 L -2.5 -1.4375 L -1.34375 -4.171875 L -2.0625 -4.46875 Z M -3.21875 -1.734375 "/>
</g>
<g id="glyph-3-0">
<path d="M 2.53125 0.109375 L 2.9375 -0.84375 L 0.03125 -2.0625 L 0.03125 -2.078125 C 0.703125 -2.203125 1.265625 -2.6875 1.5625 -3.390625 C 2.078125 -4.65625 1.640625 -6.21875 -0.28125 -7.03125 C -1.90625 -7.71875 -3.40625 -7.1875 -3.953125 -5.890625 C -4.3125 -5.03125 -4.1875 -4.25 -3.71875 -3.5625 L -3.734375 -3.546875 L -4.671875 -3.890625 L -5.03125 -3.015625 C -4.515625 -2.828125 -3.953125 -2.609375 -3.25 -2.328125 Z M -2.34375 -3.0625 C -2.484375 -3.125 -2.625 -3.21875 -2.734375 -3.296875 C -3.359375 -3.8125 -3.59375 -4.625 -3.3125 -5.28125 C -2.875 -6.296875 -1.71875 -6.484375 -0.640625 -6.03125 C 0.578125 -5.515625 1.171875 -4.578125 0.734375 -3.53125 C 0.4375 -2.84375 -0.28125 -2.453125 -1.015625 -2.5625 C -1.15625 -2.578125 -1.28125 -2.625 -1.421875 -2.671875 Z M -2.34375 -3.0625 "/>
</g>
<g id="glyph-4-0">
<path d="M -1.375 2.125 L -0.75 2.953125 L 1.78125 1.0625 L 1.78125 1.078125 C 1.53125 1.71875 1.6875 2.453125 2.140625 3.0625 C 2.953125 4.15625 4.546875 4.5625 6.21875 3.328125 C 7.625 2.265625 7.9375 0.6875 7.09375 -0.4375 C 6.53125 -1.1875 5.796875 -1.484375 4.96875 -1.421875 L 4.953125 -1.421875 L 5.71875 -2.0625 L 5.15625 -2.828125 C 4.71875 -2.453125 4.265625 -2.09375 3.65625 -1.640625 Z M 3.84375 -0.484375 C 3.953125 -0.5625 4.09375 -0.625 4.21875 -0.6875 C 5 -0.984375 5.796875 -0.75 6.234375 -0.171875 C 6.890625 0.71875 6.484375 1.78125 5.53125 2.484375 C 4.46875 3.28125 3.359375 3.3125 2.6875 2.421875 C 2.234375 1.8125 2.265625 1 2.734375 0.421875 C 2.8125 0.3125 2.921875 0.203125 3.046875 0.109375 Z M 3.84375 -0.484375 "/>
</g>
<g id="glyph-4-1">
<path d="M 0.609375 0.171875 C 0.640625 0.640625 0.90625 1.40625 1.421875 2.109375 C 2.546875 3.609375 3.984375 3.71875 4.984375 2.96875 C 5.859375 2.328125 5.96875 1.265625 5.5625 0.375 L 5.578125 0.375 C 6.421875 0.921875 7.265625 0.90625 7.90625 0.421875 C 8.65625 -0.140625 8.984375 -1.265625 8.0625 -2.484375 C 7.5625 -3.171875 6.84375 -3.609375 6.34375 -3.75 L 5.890625 -3.078125 C 6.296875 -2.9375 6.875 -2.640625 7.25 -2.140625 C 7.828125 -1.359375 7.640625 -0.703125 7.140625 -0.328125 C 6.390625 0.234375 5.484375 -0.328125 5.03125 -0.9375 L 4.6875 -1.40625 L 4.046875 -0.9375 L 4.390625 -0.46875 C 5 0.34375 5.21875 1.421875 4.34375 2.078125 C 3.84375 2.484375 2.90625 2.65625 2.09375 1.578125 C 1.640625 0.984375 1.46875 0.265625 1.453125 -0.09375 Z M 0.609375 0.171875 "/>
</g>
<g id="glyph-5-0">
<path d="M 3.125 -1.90625 L 2.5 -1.4375 L 4.28125 0.9375 L 4.90625 0.46875 Z M 3.125 -1.90625 "/>
</g>
<g id="glyph-6-0">
<path d="M -1.375 2.125 L -0.75 2.953125 L 1.78125 1.0625 L 1.78125 1.078125 C 1.53125 1.71875 1.6875 2.453125 2.140625 3.0625 C 2.953125 4.15625 4.546875 4.5625 6.21875 3.3125 C 7.625 2.265625 7.9375 0.6875 7.09375 -0.4375 C 6.53125 -1.1875 5.796875 -1.484375 4.96875 -1.421875 L 4.953125 -1.421875 L 5.71875 -2.0625 L 5.15625 -2.828125 C 4.71875 -2.453125 4.265625 -2.09375 3.65625 -1.640625 Z M 3.84375 -0.484375 C 3.953125 -0.5625 4.09375 -0.625 4.21875 -0.6875 C 5 -0.984375 5.796875 -0.75 6.234375 -0.171875 C 6.890625 0.71875 6.46875 1.78125 5.53125 2.484375 C 4.46875 3.28125 3.359375 3.3125 2.6875 2.421875 C 2.234375 1.8125 2.265625 1 2.734375 0.421875 C 2.8125 0.3125 2.921875 0.203125 3.046875 0.109375 Z M 3.84375 -0.484375 "/>
</g>
<g id="glyph-6-1">
<path d="M 3.3125 4.421875 L 4.015625 3.890625 L 1.90625 1.078125 L 1.921875 1.0625 L 2.75 1.234375 C 5.015625 1.59375 6.5625 1.734375 7.71875 0.875 C 8.609375 0.203125 9.125 -1.0625 8.125 -2.421875 C 7.59375 -3.125 6.84375 -3.53125 6.15625 -3.6875 L 5.75 -2.984375 C 6.21875 -2.875 6.859375 -2.625 7.28125 -2.0625 C 7.984375 -1.125 7.625 -0.375 6.984375 0.109375 C 6.046875 0.8125 4.6875 0.6875 1.984375 0.21875 L 0.84375 0.046875 L 0.328125 0.4375 Z M 3.3125 4.421875 "/>
</g>
<g id="glyph-7-0">
<path d="M 1.6875 0 L 1.6875 -4.171875 L 2.859375 -4.171875 L 2.859375 -4.84375 L 1.6875 -4.84375 L 1.6875 -5.09375 C 1.6875 -5.84375 1.875 -6.5 2.625 -6.5 C 2.875 -6.5 3.0625 -6.453125 3.1875 -6.390625 L 3.3125 -7.0625 C 3.140625 -7.140625 2.875 -7.203125 2.5625 -7.203125 C 2.15625 -7.203125 1.703125 -7.078125 1.375 -6.765625 C 0.96875 -6.375 0.8125 -5.75 0.8125 -5.0625 L 0.8125 -4.84375 L 0.140625 -4.84375 L 0.140625 -4.171875 L 0.8125 -4.171875 L 0.8125 0 Z M 1.6875 0 "/>
</g>
<g id="glyph-7-1">
<path d="M 0.9375 -6.765625 C 0.8125 -6.046875 0.5625 -5 0.34375 -4.40625 L 0.90625 -4.484375 C 1.1875 -4.9375 1.609375 -6.015625 1.84375 -6.84375 Z M 0.9375 -6.765625 "/>
</g>
<g id="glyph-7-2">
<path d="M 1.953125 -6.9375 C 1.3125 -6.09375 0.65625 -4.8125 0.640625 -2.84375 C 0.640625 -0.90625 1.3125 0.375 1.953125 1.203125 L 2.640625 1.203125 C 1.9375 0.203125 1.375 -1.0625 1.375 -2.84375 C 1.375 -4.65625 1.90625 -5.953125 2.640625 -6.9375 Z M 1.953125 -6.9375 "/>
</g>
<g id="glyph-7-3">
<path d="M 2.625 -6.609375 C 1.296875 -6.609375 0.359375 -5.40625 0.359375 -3.234375 C 0.375 -1.078125 1.234375 0.109375 2.515625 0.109375 C 3.953125 0.109375 4.765625 -1.109375 4.765625 -3.3125 C 4.765625 -5.390625 3.984375 -6.609375 2.625 -6.609375 Z M 2.5625 -5.9375 C 3.484375 -5.9375 3.890625 -4.875 3.890625 -3.28125 C 3.890625 -1.625 3.453125 -0.5625 2.5625 -0.5625 C 1.765625 -0.5625 1.234375 -1.53125 1.234375 -3.21875 C 1.234375 -4.984375 1.796875 -5.9375 2.5625 -5.9375 Z M 2.5625 -5.9375 "/>
</g>
<g id="glyph-7-4">
<path d="M 0.875 1.203125 C 1.515625 0.359375 2.1875 -0.90625 2.1875 -2.875 C 2.1875 -4.84375 1.515625 -6.125 0.875 -6.9375 L 0.203125 -6.9375 C 0.921875 -5.953125 1.453125 -4.671875 1.453125 -2.875 C 1.453125 -1.078125 0.90625 0.21875 0.203125 1.203125 Z M 0.875 1.203125 "/>
</g>
<g id="glyph-7-5">
<path d="M 5.5625 -3.375 L 5.5625 -3.96875 L 0.40625 -3.96875 L 0.40625 -3.375 Z M 5.5625 -1.40625 L 5.5625 -2.015625 L 0.40625 -2.015625 L 0.40625 -1.40625 Z M 5.5625 -1.40625 "/>
</g>
<g id="glyph-7-6">
<path d="M 0.421875 -0.328125 C 0.734375 -0.125 1.375 0.109375 2.109375 0.109375 C 3.671875 0.109375 4.484375 -0.796875 4.484375 -1.84375 C 4.484375 -2.75 3.828125 -3.34375 3.03125 -3.515625 L 3.03125 -3.53125 C 3.828125 -3.8125 4.234375 -4.390625 4.234375 -5.0625 C 4.234375 -5.84375 3.65625 -6.609375 2.375 -6.609375 C 1.671875 -6.609375 1.015625 -6.359375 0.671875 -6.109375 L 0.90625 -5.46875 C 1.1875 -5.671875 1.6875 -5.90625 2.203125 -5.90625 C 3.015625 -5.90625 3.34375 -5.4375 3.34375 -4.921875 C 3.34375 -4.15625 2.53125 -3.8125 1.890625 -3.8125 L 1.40625 -3.8125 L 1.40625 -3.15625 L 1.890625 -3.15625 C 2.734375 -3.15625 3.5625 -2.765625 3.5625 -1.859375 C 3.578125 -1.3125 3.234375 -0.59375 2.09375 -0.59375 C 1.484375 -0.59375 0.90625 -0.84375 0.65625 -1.015625 Z M 0.421875 -0.328125 "/>
</g>
<g id="glyph-7-7">
<path d="M 0.734375 1.984375 L 1.59375 1.984375 L 1.59375 -0.65625 L 1.625 -0.65625 C 1.90625 -0.171875 2.46875 0.109375 3.109375 0.109375 C 4.25 0.109375 5.3125 -0.75 5.3125 -2.484375 C 5.3125 -3.953125 4.4375 -4.953125 3.265625 -4.953125 C 2.46875 -4.953125 1.90625 -4.59375 1.546875 -4.015625 L 1.515625 -4.015625 L 1.484375 -4.84375 L 0.6875 -4.84375 C 0.703125 -4.375 0.734375 -3.875 0.734375 -3.265625 Z M 1.59375 -2.796875 C 1.59375 -2.921875 1.625 -3.046875 1.65625 -3.15625 C 1.828125 -3.8125 2.390625 -4.25 2.984375 -4.25 C 3.921875 -4.25 4.4375 -3.421875 4.4375 -2.453125 C 4.4375 -1.34375 3.890625 -0.578125 2.953125 -0.578125 C 2.328125 -0.578125 1.796875 -1 1.640625 -1.609375 C 1.625 -1.71875 1.59375 -1.84375 1.59375 -1.96875 Z M 1.59375 -2.796875 "/>
</g>
<g id="glyph-7-8">
<path d="M 2.359375 0 L 3.203125 0 L 3.203125 -6.5 L 2.453125 -6.5 L 1.046875 -5.734375 L 1.203125 -5.0625 L 2.34375 -5.6875 L 2.359375 -5.6875 Z M 2.359375 0 "/>
</g>
<g id="glyph-7-9">
<path d="M 0.296875 -3.03125 L 0.296875 -2.375 L 2.765625 -2.375 L 2.765625 -3.03125 Z M 0.296875 -3.03125 "/>
</g>
<g id="glyph-7-10">
<path d="M 4.59375 0 L 4.59375 -0.734375 L 1.6875 -0.734375 L 1.6875 -0.75 L 2.203125 -1.234375 C 3.5625 -2.546875 4.4375 -3.515625 4.4375 -4.71875 C 4.4375 -5.65625 3.84375 -6.609375 2.453125 -6.609375 C 1.703125 -6.609375 1.0625 -6.328125 0.609375 -5.953125 L 0.890625 -5.328125 C 1.1875 -5.578125 1.6875 -5.875 2.265625 -5.875 C 3.234375 -5.875 3.5625 -5.265625 3.5625 -4.609375 C 3.546875 -3.625 2.796875 -2.796875 1.140625 -1.203125 L 0.453125 -0.546875 L 0.453125 0 Z M 4.59375 0 "/>
</g>
</g>
<clipPath id="clip-0">
<path clip-rule="nonzero" d="M 205 128 L 247 128 L 247 169.371094 L 205 169.371094 Z M 205 128 "/>
</clipPath>
<clipPath id="clip-1">
<path clip-rule="nonzero" d="M 230 158 L 240 158 L 240 169.371094 L 230 169.371094 Z M 230 158 "/>
</clipPath>
<clipPath id="clip-2">
<path clip-rule="nonzero" d="M 240 147 L 294.9375 147 L 294.9375 157 L 240 157 Z M 240 147 "/>
</clipPath>
</defs>
<path fill-rule="nonzero" fill="rgb(69.799805%, 69.799805%, 69.799805%)" fill-opacity="1" d="M 19.25 131.042969 C 19.25 136.015625 15.222656 140.042969 10.25 140.042969 C 5.277344 140.042969 1.25 136.015625 1.25 131.042969 C 1.25 126.074219 5.277344 122.042969 10.25 122.042969 C 15.222656 122.042969 19.25 126.074219 19.25 131.042969 "/>
<path fill="none" stroke-width="1" stroke-linecap="butt" stroke-linejoin="miter" stroke="rgb(0%, 0%, 0%)" stroke-opacity="1" stroke-miterlimit="4" d="M 0 0.00093125 C 0 -4.971725 -4.027344 -8.999069 -9 -8.999069 C -13.972656 -8.999069 -18 -4.971725 -18 0.00093125 C -18 4.969681 -13.972656 9.000931 -9 9.000931 C -4.027344 9.000931 0 4.969681 0 0.00093125 Z M 0 0.00093125 " transform="matrix(1, 0, 0, -1, 19.25, 131.0439)"/>
<path fill-rule="nonzero" fill="rgb(69.799805%, 69.799805%, 69.799805%)" fill-opacity="1" d="M 64.25 23.042969 C 64.25 28.015625 60.222656 32.042969 55.25 32.042969 C 50.277344 32.042969 46.25 28.015625 46.25 23.042969 C 46.25 18.074219 50.277344 14.042969 55.25 14.042969 C 60.222656 14.042969 64.25 18.074219 64.25 23.042969 "/>
<path fill="none" stroke-width="1" stroke-linecap="butt" stroke-linejoin="miter" stroke="rgb(0%, 0%, 0%)" stroke-opacity="1" stroke-miterlimit="4" d="M 0 0.00093125 C 0 -4.971725 -4.027344 -8.999069 -9 -8.999069 C -13.972656 -8.999069 -18 -4.971725 -18 0.00093125 C -18 4.969681 -13.972656 9.000931 -9 9.000931 C -4.027344 9.000931 0 4.969681 0 0.00093125 Z M 0 0.00093125 " transform="matrix(1, 0, 0, -1, 64.25, 23.0439)"/>
<path fill-rule="nonzero" fill="rgb(69.799805%, 69.799805%, 69.799805%)" fill-opacity="1" d="M 181.25 59.042969 C 181.25 64.015625 177.222656 68.042969 172.25 68.042969 C 167.277344 68.042969 163.25 64.015625 163.25 59.042969 C 163.25 54.074219 167.277344 50.042969 172.25 50.042969 C 177.222656 50.042969 181.25 54.074219 181.25 59.042969 "/>
<path fill="none" stroke-width="1" stroke-linecap="butt" stroke-linejoin="miter" stroke="rgb(0%, 0%, 0%)" stroke-opacity="1" stroke-miterlimit="4" d="M 0 0.00093125 C 0 -4.971725 -4.027344 -8.999069 -9 -8.999069 C -13.972656 -8.999069 -18 -4.971725 -18 0.00093125 C -18 4.969681 -13.972656 9.000931 -9 9.000931 C -4.027344 9.000931 0 4.969681 0 0.00093125 Z M 0 0.00093125 " transform="matrix(1, 0, 0, -1, 181.25, 59.0439)"/>
<path fill-rule="nonzero" fill="rgb(69.799805%, 69.799805%, 69.799805%)" fill-opacity="1" d="M 235.25 131.042969 C 235.25 136.015625 231.222656 140.042969 226.25 140.042969 C 221.277344 140.042969 217.25 136.015625 217.25 131.042969 C 217.25 126.074219 221.277344 122.042969 226.25 122.042969 C 231.222656 122.042969 235.25 126.074219 235.25 131.042969 "/>
<path fill="none" stroke-width="1" stroke-linecap="butt" stroke-linejoin="miter" stroke="rgb(0%, 0%, 0%)" stroke-opacity="1" stroke-miterlimit="4" d="M 0 0.00093125 C 0 -4.971725 -4.027344 -8.999069 -9 -8.999069 C -13.972656 -8.999069 -18 -4.971725 -18 0.00093125 C -18 4.969681 -13.972656 9.000931 -9 9.000931 C -4.027344 9.000931 0 4.969681 0 0.00093125 Z M 0 0.00093125 " transform="matrix(1, 0, 0, -1, 235.25, 131.0439)"/>
<g fill="rgb(0%, 0%, 0%)" fill-opacity="1">
<use xlink:href="#glyph-0-0" x="1.5" y="153.2939"/>
<use xlink:href="#glyph-0-1" x="8.328" y="153.2939"/>
</g>
<g fill="rgb(0%, 0%, 0%)" fill-opacity="1">
<use xlink:href="#glyph-0-0" x="67.5" y="10.0439"/>
<use xlink:href="#glyph-0-2" x="74.328" y="10.0439"/>
</g>
<g fill="rgb(0%, 0%, 0%)" fill-opacity="1">
<use xlink:href="#glyph-0-0" x="176.75" y="45.5439"/>
<use xlink:href="#glyph-0-3" x="183.578" y="45.5439"/>
</g>
<g fill="rgb(0%, 0%, 0%)" fill-opacity="1">
<use xlink:href="#glyph-0-0" x="239.498" y="136.5399"/>
<use xlink:href="#glyph-0-4" x="246.326" y="136.5399"/>
</g>
<path fill="none" stroke-width="2" stroke-linecap="butt" stroke-linejoin="miter" stroke="rgb(39.99939%, 39.99939%, 39.99939%)" stroke-opacity="1" stroke-miterlimit="4" d="M 0 0.00093125 L 39.5 94.000931 " transform="matrix(1, 0, 0, -1, 10.25, 131.0439)"/>
<path fill-rule="nonzero" fill="rgb(39.99939%, 39.99939%, 39.99939%)" fill-opacity="1" d="M 55.21875 24.023438 L 55.007812 45.519531 L 49.339844 38.015625 L 40.019531 39.222656 Z M 55.21875 24.023438 "/>
<g fill="rgb(0%, 0%, 0%)" fill-opacity="1">
<use xlink:href="#glyph-1-0" x="21.2544" y="85.9647"/>
</g>
<g fill="rgb(0%, 0%, 0%)" fill-opacity="1">
<use xlink:href="#glyph-2-0" x="23.8936" y="79.6835"/>
</g>
<g fill="rgb(0%, 0%, 0%)" fill-opacity="1">
<use xlink:href="#glyph-2-1" x="26.2886" y="73.9843"/>
</g>
<g fill="rgb(0%, 0%, 0%)" fill-opacity="1">
<use xlink:href="#glyph-3-0" x="27.709" y="70.6044"/>
</g>
<g fill="rgb(0%, 0%, 0%)" fill-opacity="1">
<use xlink:href="#glyph-1-1" x="30.3501" y="64.3192"/>
</g>
<path fill="none" stroke-width="2" stroke-linecap="butt" stroke-linejoin="miter" stroke="rgb(39.99939%, 39.99939%, 39.99939%)" stroke-opacity="1" stroke-miterlimit="4" d="M 0 0.00093125 L 47 -62.749069 " transform="matrix(1, 0, 0, -1, 172.25, 59.0439)"/>
<path fill-rule="nonzero" fill="rgb(39.99939%, 39.99939%, 39.99939%)" fill-opacity="1" d="M 227.714844 133.097656 L 209.28125 122.042969 L 218.617188 120.949219 L 222.292969 112.296875 Z M 227.714844 133.097656 "/>
<g fill="rgb(0%, 0%, 0%)" fill-opacity="1">
<use xlink:href="#glyph-4-0" x="196.8994" y="79.7001"/>
</g>
<g fill="rgb(0%, 0%, 0%)" fill-opacity="1">
<use xlink:href="#glyph-4-1" x="200.9951" y="85.1679"/>
</g>
<g fill="rgb(0%, 0%, 0%)" fill-opacity="1">
<use xlink:href="#glyph-5-0" x="204.6797" y="90.0888"/>
</g>
<g fill="rgb(0%, 0%, 0%)" fill-opacity="1">
<use xlink:href="#glyph-6-0" x="206.8887" y="93.037"/>
</g>
<g fill="rgb(0%, 0%, 0%)" fill-opacity="1">
<use xlink:href="#glyph-6-1" x="210.9795" y="98.498"/>
</g>
<path fill="none" stroke-width="3" stroke-linecap="butt" stroke-linejoin="miter" stroke="rgb(0%, 0%, 0%)" stroke-opacity="1" stroke-miterlimit="4" d="M 0 0.00093125 C 45 108.000931 162 72.000931 216 0.00093125 " transform="matrix(1, 0, 0, -1, 10.25, 131.0439)"/>
<path fill="none" stroke-width="2" stroke-linecap="butt" stroke-linejoin="miter" stroke="rgb(39.99939%, 39.99939%, 39.99939%)" stroke-opacity="1" stroke-miterlimit="4" d="M -0.0014625 0.00093125 L 12.3501 30.000931 " transform="matrix(1, 0, 0, -1, 22.3999, 131.0439)"/>
<path fill-rule="nonzero" fill="rgb(39.99939%, 39.99939%, 39.99939%)" fill-opacity="1" d="M 37.4375 94.515625 L 37.410156 105.261719 L 34.550781 101.53125 L 29.890625 102.167969 Z M 37.4375 94.515625 "/>
<g clip-path="url(#clip-0)">
<path fill="none" stroke-width="2" stroke-linecap="butt" stroke-linejoin="miter" stroke="rgb(39.99939%, 39.99939%, 39.99939%)" stroke-opacity="1" stroke-miterlimit="4" d="M -0.00145625 0.001875 L 18.068856 -23.677812 " transform="matrix(1, 0, 0, -1, 217.0913, 140.08)"/>
</g>
<g clip-path="url(#clip-1)">
<path fill-rule="nonzero" fill="rgb(39.99939%, 39.99939%, 39.99939%)" fill-opacity="1" d="M 239.441406 169.371094 L 230.175781 163.925781 L 234.839844 163.339844 L 236.636719 158.996094 Z M 239.441406 169.371094 "/>
</g>
<g fill="rgb(0%, 0%, 0%)" fill-opacity="1">
<use xlink:href="#glyph-7-0" x="37.5" y="126.5439"/>
</g>
<g fill="rgb(0%, 0%, 0%)" fill-opacity="1">
<use xlink:href="#glyph-7-1" x="41.08" y="126.5439"/>
<use xlink:href="#glyph-7-2" x="43.15" y="126.5439"/>
<use xlink:href="#glyph-7-3" x="45.99" y="126.5439"/>
<use xlink:href="#glyph-7-4" x="51.12" y="126.5439"/>
<use xlink:href="#glyph-7-5" x="53.96" y="126.5439"/>
<use xlink:href="#glyph-7-6" x="59.92" y="126.5439"/>
<use xlink:href="#glyph-7-2" x="65.05" y="126.5439"/>
<use xlink:href="#glyph-7-7" x="67.89" y="126.5439"/>
<use xlink:href="#glyph-7-8" x="73.58" y="126.5439"/>
<use xlink:href="#glyph-7-9" x="78.71" y="126.5439"/>
<use xlink:href="#glyph-7-7" x="81.78" y="126.5439"/>
<use xlink:href="#glyph-7-3" x="87.47" y="126.5439"/>
<use xlink:href="#glyph-7-4" x="92.6" y="126.5439"/>
</g>
<g fill="rgb(0%, 0%, 0%)" fill-opacity="1">
<use xlink:href="#glyph-7-0" x="237" y="154.2939"/>
</g>
<g clip-path="url(#clip-2)">
<g fill="rgb(0%, 0%, 0%)" fill-opacity="1">
<use xlink:href="#glyph-7-1" x="240.5801" y="154.2939"/>
<use xlink:href="#glyph-7-2" x="242.6501" y="154.2939"/>
<use xlink:href="#glyph-7-8" x="245.4901" y="154.2939"/>
<use xlink:href="#glyph-7-4" x="250.6201" y="154.2939"/>
<use xlink:href="#glyph-7-5" x="253.4601" y="154.2939"/>
<use xlink:href="#glyph-7-6" x="259.4201" y="154.2939"/>
<use xlink:href="#glyph-7-2" x="264.5501" y="154.2939"/>
<use xlink:href="#glyph-7-7" x="267.3901" y="154.2939"/>
<use xlink:href="#glyph-7-6" x="273.0801" y="154.2939"/>
<use xlink:href="#glyph-7-9" x="278.2101" y="154.2939"/>
<use xlink:href="#glyph-7-7" x="281.2801" y="154.2939"/>
<use xlink:href="#glyph-7-10" x="286.9701" y="154.2939"/>
<use xlink:href="#glyph-7-4" x="292.1001" y="154.2939"/>
</g>
</g>
</svg>
