<?xml version="1.0" encoding="UTF-8"?>
<svg xmlns="http://www.w3.org/2000/svg" xmlns:xlink="http://www.w3.org/1999/xlink" width="281pt" height="75pt" viewBox="0 0 281 75">
<defs>
<g>
<g id="glyph-0-0">
<path d="M -0.015625 0 L 3.28125 -8.59375 L 4.5 -8.59375 L 8.015625 0 L 6.734375 0 L 5.71875 -2.609375 L 2.140625 -2.609375 L 1.1875 0 Z M 2.46875 -3.53125 L 5.375 -3.53125 L 4.484375 -5.90625 C 4.203125 -6.625 4 -7.21875 3.875 -7.6875 C 3.757812 -7.132812 3.601562 -6.585938 3.40625 -6.046875 Z M 2.46875 -3.53125 "/>
</g>
<g id="glyph-0-1">
<path d="M 1.484375 2.53125 L 0.734375 2.53125 C 1.898438 0.65625 2.484375 -1.222656 2.484375 -3.109375 C 2.484375 -3.835938 2.398438 -4.566406 2.234375 -5.296875 C 2.097656 -5.878906 1.910156 -6.441406 1.671875 -6.984375 C 1.515625 -7.328125 1.203125 -7.910156 0.734375 -8.734375 L 1.484375 -8.734375 C 2.210938 -7.753906 2.753906 -6.769531 3.109375 -5.78125 C 3.410156 -4.925781 3.5625 -4.035156 3.5625 -3.109375 C 3.5625 -2.054688 3.359375 -1.035156 2.953125 -0.046875 C 2.546875 0.929688 2.054688 1.789062 1.484375 2.53125 Z M 1.484375 2.53125 "/>
</g>
<g id="glyph-0-2">
<path d="M 0.875 0 L 0.875 -8.59375 L 4.109375 -8.59375 C 4.765625 -8.59375 5.289062 -8.503906 5.6875 -8.328125 C 6.082031 -8.148438 6.390625 -7.878906 6.609375 -7.515625 C 6.835938 -7.160156 6.953125 -6.785156 6.953125 -6.390625 C 6.953125 -6.023438 6.851562 -5.679688 6.65625 -5.359375 C 6.457031 -5.035156 6.15625 -4.773438 5.75 -4.578125 C 6.269531 -4.421875 6.664062 -4.15625 6.9375 -3.78125 C 7.21875 -3.414062 7.359375 -2.984375 7.359375 -2.484375 C 7.359375 -2.085938 7.273438 -1.710938 7.109375 -1.359375 C 6.941406 -1.015625 6.734375 -0.75 6.484375 -0.5625 C 6.234375 -0.375 5.914062 -0.234375 5.53125 -0.140625 C 5.15625 -0.046875 4.695312 0 4.15625 0 Z M 2.015625 -4.984375 L 3.875 -4.984375 C 4.375 -4.984375 4.734375 -5.015625 4.953125 -5.078125 C 5.242188 -5.160156 5.460938 -5.300781 5.609375 -5.5 C 5.753906 -5.707031 5.828125 -5.960938 5.828125 -6.265625 C 5.828125 -6.546875 5.757812 -6.796875 5.625 -7.015625 C 5.488281 -7.234375 5.289062 -7.378906 5.03125 -7.453125 C 4.78125 -7.535156 4.347656 -7.578125 3.734375 -7.578125 L 2.015625 -7.578125 Z M 2.015625 -1.015625 L 4.15625 -1.015625 C 4.519531 -1.015625 4.773438 -1.03125 4.921875 -1.0625 C 5.191406 -1.101562 5.410156 -1.175781 5.578125 -1.28125 C 5.753906 -1.394531 5.898438 -1.554688 6.015625 -1.765625 C 6.128906 -1.972656 6.1875 -2.210938 6.1875 -2.484375 C 6.1875 -2.804688 6.101562 -3.085938 5.9375 -3.328125 C 5.78125 -3.566406 5.554688 -3.734375 5.265625 -3.828125 C 4.972656 -3.921875 4.550781 -3.96875 4 -3.96875 L 2.015625 -3.96875 Z M 2.015625 -1.015625 "/>
</g>
<g id="glyph-0-3">
<path d="M 7.0625 -3.015625 L 8.1875 -2.71875 C 7.945312 -1.789062 7.519531 -1.082031 6.90625 -0.59375 C 6.289062 -0.101562 5.535156 0.140625 4.640625 0.140625 C 3.710938 0.140625 2.957031 -0.046875 2.375 -0.421875 C 1.789062 -0.796875 1.347656 -1.335938 1.046875 -2.046875 C 0.742188 -2.765625 0.59375 -3.535156 0.59375 -4.359375 C 0.59375 -5.253906 0.765625 -6.035156 1.109375 -6.703125 C 1.453125 -7.367188 1.9375 -7.875 2.5625 -8.21875 C 3.195312 -8.5625 3.894531 -8.734375 4.65625 -8.734375 C 5.507812 -8.734375 6.226562 -8.515625 6.8125 -8.078125 C 7.40625 -7.640625 7.816406 -7.023438 8.046875 -6.234375 L 6.921875 -5.96875 C 6.722656 -6.59375 6.429688 -7.046875 6.046875 -7.328125 C 5.671875 -7.617188 5.195312 -7.765625 4.625 -7.765625 C 3.96875 -7.765625 3.414062 -7.601562 2.96875 -7.28125 C 2.53125 -6.96875 2.21875 -6.546875 2.03125 -6.015625 C 1.851562 -5.484375 1.765625 -4.929688 1.765625 -4.359375 C 1.765625 -3.628906 1.867188 -2.992188 2.078125 -2.453125 C 2.296875 -1.910156 2.628906 -1.503906 3.078125 -1.234375 C 3.523438 -0.960938 4.015625 -0.828125 4.546875 -0.828125 C 5.179688 -0.828125 5.71875 -1.007812 6.15625 -1.375 C 6.601562 -1.738281 6.90625 -2.285156 7.0625 -3.015625 Z M 7.0625 -3.015625 "/>
</g>
</g>
</defs>
<g fill="rgb(13.729858%, 12.159729%, 12.548828%)" fill-opacity="1">
<use xlink:href="#glyph-0-0" x="0" y="12"/>
<use xlink:href="#glyph-0-1" x="8.004" y="12"/>
</g>
<g fill="rgb(13.729858%, 12.159729%, 12.548828%)" fill-opacity="1">
<use xlink:href="#glyph-0-2" x="99" y="12"/>
<use xlink:href="#glyph-0-1" x="107.004" y="12"/>
</g>
<g fill="rgb(13.729858%, 12.159729%, 12.548828%)" fill-opacity="1">
<use xlink:href="#glyph-0-3" x="198" y="12"/>
<use xlink:href="#glyph-0-1" x="206.664" y="12"/>
</g>
<path fill="none" stroke-width="2" stroke-linecap="butt" stroke-linejoin="miter" stroke="rgb(13.729858%, 12.159729%, 12.548828%)" stroke-opacity="1" stroke-miterlimit="4" d="M 0 0 L 0 45 L 45 63 " transform="matrix(1, 0, 0, -1, 27, 75)"/>
<path fill="none" stroke-width="2" stroke-linecap="butt" stroke-linejoin="miter" stroke="rgb(13.729858%, 12.159729%, 12.548828%)" stroke-opacity="1" stroke-miterlimit="4" d="M 0 0 L 0 45 " transform="matrix(1, 0, 0, -1, 126, 75)"/>
<path fill="none" stroke-width="2" stroke-linecap="butt" stroke-linejoin="miter" stroke="rgb(13.729858%, 12.159729%, 12.548828%)" stroke-opacity="1" stroke-miterlimit="4" d="M 0 0 C 0 14.910156 12.089844 27 27 27 C 41.910156 27 54 14.910156 54 0 " transform="matrix(1, 0, 0, -1, 126, 30)"/>
<path fill="none" stroke-width="4" stroke-linecap="butt" stroke-linejoin="miter" stroke="rgb(78.431702%, 78.039551%, 78.137207%)" stroke-opacity="1" stroke-miterlimit="4" d="M 0 0 L 0 45 " transform="matrix(1, 0, 0, -1, 225, 75)"/>
<path fill="none" stroke-width="4" stroke-linecap="butt" stroke-linejoin="miter" stroke="rgb(78.431702%, 78.039551%, 78.137207%)" stroke-opacity="1" stroke-miterlimit="4" d="M 0 0 C 0 14.910156 12.089844 27 27 27 C 41.910156 27 54 14.910156 54 0 " transform="matrix(1, 0, 0, -1, 225, 30)"/>
<path fill="none" stroke-width="2" stroke-linecap="butt" stroke-linejoin="miter" stroke="rgb(13.729858%, 12.159729%, 12.548828%)" stroke-opacity="1" stroke-miterlimit="4" d="M 0 0 L 0 46.335938 L 8 64.667969 L 27 73.335938 L 46.332031 64.332031 L 54 46.335938 " transform="matrix(1, 0, 0, -1, 225, 75)"/>
</svg>
